<svg xmlns="http://www.w3.org/2000/svg" viewBox="0 0 1999.007 560"><path class="line1" d="M0 205.122s1.873-5.227 34.181 11.771c34.482 18.143 59.697 52.119 93.893 71.865 58.23 33.623 127.729 35.703 192.193 20.418 84.208-19.967 120.448-106.473 201.401-131.238 33.513-10.252 72.097-7.987 100.849 12.053 13.948 9.722 25.016 23.027 38.729 33.078 41.312 30.281 101.44 28.432 150.36 28.432h1187.401" fill="none" stroke="#ca3532" stroke-width="11" stroke-miterlimit="10"/><path class="line2" d="M7.622 68.997c63.526 16.725 114.958 46.718 161.474 93.375 58.574 58.752 124.397 129.296 215.396 122.491 36.201-2.707 69.877-18.493 104.376-29.793 92.193-30.198 191.378-28.556 288.366-26.362 222.659 5.037 443.983 4.791 666.654 4.791h555.119" fill="none" stroke="#21aeb8" stroke-width="11" stroke-miterlimit="10"/><path class="line3" d="M10.628 398.243c98.501 20.268 202.926 9.114 295.368-30.252 110.86-47.21 211.1-122.805 335.982-128.2 91.338-3.945 184.697 28.631 270.85 55.526 52.736 15.855 159.623 42.183 257.969 42.183h828.21" fill="none" stroke="#62ab38" stroke-width="11" stroke-miterlimit="10"/><path class="line4" d="M3.753 344.931S264.445 235.789 311.48 226.525c47.035-9.264 132.368-18.393 195.794 3.404s243.095 67.78 340.015 64.93c96.92-2.851 204.513-72.49 236.582-89.594 32.069-17.104 65.547-14.766 143.225-14.766h771.911" fill="none" stroke="#70357b" stroke-width="11" stroke-miterlimit="10"/></svg>