<?xml version="1.0" encoding="utf-8"?>
<!-- Generator: Adobe Illustrator 21.1.0, SVG Export Plug-In . SVG Version: 6.00 Build 0)  -->
<svg version="1.1" id="Layer_1" xmlns="http://www.w3.org/2000/svg" xmlns:xlink="http://www.w3.org/1999/xlink" x="0px" y="0px"
	 viewBox="0 0 23.5 24.3" style="enable-background:new 0 0 23.5 24.3;" xml:space="preserve">
<style type="text/css">
	.st0{fill:#262626;}
</style>
<g>
	<path class="st0" d="M0.3,2.5C0,2.8-0.1,3.2,0.1,3.6l3,6.2l-1,7.3c0,0.4,0.1,0.8,0.4,1l8.3,5.6c0.3,0.2,0.6,0.2,0.9,0.1l4-1.3
		l6.4,1.8c0.5,0.1,1.1-0.2,1.2-0.7c0-0.1,0-0.3,0-0.4l-1-7.1l0.7-5.4c0-0.4-0.1-0.8-0.4-1l-4.5-3l-3-6.2c-0.2-0.5-0.8-0.7-1.3-0.5
		c-0.1,0.1-0.2,0.1-0.3,0.2L9.1,5.5L7.6,6L1.5,2.4C1.1,2.1,0.6,2.2,0.3,2.5z M13.5,7.9c3.3,0.4,5.6,3.5,5.1,6.8s-3.5,5.6-6.8,5.1
		s-5.6-3.5-5.1-6.8C7.2,9.8,10.2,7.5,13.5,7.9z"/>
	<path class="st0" d="M0.3,2.5C0,2.8-0.1,3.2,0.1,3.6l3,6.2l-1,7.3c0,0.4,0.1,0.8,0.4,1l8.3,5.6c0.3,0.2,0.6,0.2,0.9,0.1l4-1.3
		l6.4,1.8c0.5,0.1,1.1-0.2,1.2-0.7c0-0.1,0-0.3,0-0.4l-1-7.1l0.7-5.4c0-0.4-0.1-0.8-0.4-1l-4.5-3l-3-6.2c-0.2-0.5-0.8-0.7-1.3-0.5
		c-0.1,0.1-0.2,0.1-0.3,0.2L9.1,5.5L7.6,6L1.5,2.4C1.1,2.1,0.6,2.2,0.3,2.5z M13.5,7.9c3.3,0.4,5.6,3.5,5.1,6.8s-3.5,5.6-6.8,5.1
		s-5.6-3.5-5.1-6.8C7.2,9.8,10.2,7.5,13.5,7.9z"/>
	<ellipse transform="matrix(0.1349 -0.9909 0.9909 0.1349 -2.7964 24.5608)" class="st0" cx="12.7" cy="13.9" rx="4" ry="4"/>
	<ellipse transform="matrix(0.1349 -0.9909 0.9909 0.1349 -2.7964 24.5608)" class="st0" cx="12.7" cy="13.9" rx="4" ry="4"/>
</g>
</svg>
