<svg viewBox="0 0 128 128" xmlns="http://www.w3.org/2000/svg"><circle cx="64" cy="64" fill="#4B5F83" r="64"/><path d="M95 96H33c-2.2 0-4-1.8-4-4V37c0-2.2 1.8-4 4-4h62c2.2 0 4 1.8 4 4v55c0 2.2-1.8 4-4 4z" fill="#FFF"/><g fill="#E6E6E6"><path d="M56 57h33v4H56zM56 65h33v4H56zM39 73h50v4H39zM39 81h50v4H39z"/></g><path fill="#22A7F0" d="M39 57h12v12H39z"/><path d="M95 33H33c-2.2 0-4 1.8-4 4v9h70v-9c0-2.2-1.8-4-4-4z" fill="#E6E6E6"/><circle cx="36" cy="39.8" fill="#CF000F" r="2"/><circle cx="42" cy="39.8" fill="#E67E22" r="2"/><circle cx="48" cy="39.8" fill="#26A65B" r="2"/></svg>