<svg xmlns="http://www.w3.org/2000/svg" viewBox="0 0 609.156 609.156"><path d="M192.899 150.004l-11.513-28.783a76.169 76.169 0 00-28.488-35.108c-7.249-4.843-17.046-2.883-21.879 4.355-4.183 6.264-3.35 14.62 1.98 19.94a31.211 31.211 0 019.137 22.082v27.666l50.763-10.152z" fill="#e04e2d"/><path d="M10.153 366.254v104.572c0 7.848 6.366 14.214 14.214 14.214H584.79c7.848 0 14.214-6.366 14.214-14.214V363.209h-588.8c-.051 1.076-.051 2.132-.051 3.045z" fill="#4394cc"/><path d="M538.088 221.072H94.673c-26.214-.01-49.494 16.762-57.799 41.626l-22.549 67.698a148.309 148.309 0 00-4.122 32.813h588.8v-81.221c0-33.646-27.27-60.916-60.915-60.916z" fill="#ded7d3"/><path d="M314.731 180.462h203.052c-.01-11.757-8.417-21.828-19.98-23.94a1034.072 1034.072 0 00-184.899-16.671h3.655c-62.012 0-123.892 5.584-184.899 16.671-11.564 2.112-19.97 12.183-19.98 23.94h203.051z" fill="#ed5a2d"/><path d="M192.899 485.04H50.763l7.665-53.636c1.432-10 10-17.432 20.102-17.432h86.602c10.102 0 18.671 7.432 20.102 17.432l7.665 53.636zM527.935 485.04H385.799l7.665-53.636c1.432-10 10-17.432 20.102-17.432h86.602c10.102 0 18.671 7.432 20.102 17.432l7.665 53.636z" fill="#2a679c"/><path d="M204.23 261.683h109.323c6.254 0 11.33 5.076 11.33 11.33v38.255c0 6.254-5.076 11.33-11.33 11.33H204.23c-6.254 0-11.33-5.076-11.33-11.33v-38.255c-.001-6.254 5.076-11.33 11.33-11.33zM376.824 261.683h109.323c6.254 0 11.33 5.076 11.33 11.33v38.255c0 6.254-5.076 11.33-11.33 11.33H376.824c-6.254 0-11.33-5.076-11.33-11.33v-38.255c0-6.254 5.076-11.33 11.33-11.33zM152.289 311.268v-38.255c0-6.254-5.076-11.33-11.33-11.33H37.321c-.132.355-.325.68-.447 1.015l-19.95 59.9h124.034c6.255 0 11.331-5.076 11.331-11.33z" fill="#4394cc"/><path d="M140.959 261.683h-19.127l-60.916 60.916h80.043c6.254 0 11.33-5.076 11.33-11.33v-38.255c0-6.255-5.076-11.331-11.33-11.331zM313.553 261.683h-19.128l-60.916 60.916h80.043c6.254 0 11.33-5.076 11.33-11.33v-38.255c.001-6.255-5.075-11.331-11.329-11.331zM486.147 261.683H467.02l-60.916 60.916h80.043c6.254 0 11.33-5.076 11.33-11.33v-38.255c0-6.255-5.076-11.331-11.33-11.331z" fill="#3e89bd"/><path d="M10.153 434.277v36.549c0 7.848 6.366 14.214 14.214 14.214h26.397l7.249-50.763h-47.86zM520.686 434.277l7.249 50.763h56.855c7.848 0 14.214-6.366 14.214-14.214v-36.549h-78.318z" fill="#ded7d3"/><circle cx="121.831" cy="485.04" r="50.763" fill="#798da1"/><circle cx="121.831" cy="485.04" r="10.153" fill="#ded7d3"/><circle cx="456.867" cy="485.04" r="50.763" fill="#798da1"/><circle cx="456.867" cy="485.04" r="10.153" fill="#ded7d3"/><path d="M538.088 210.92H395.951v-20.305h121.831c5.604 0 10.153-4.548 10.153-10.153.01-16.671-11.909-30.955-28.316-33.92a1045.693 1045.693 0 00-182.655-16.843h-4.467a1043.385 1043.385 0 00-114.004 6.955l-7.686-19.209a86.009 86.009 0 00-32.275-39.788c-11.909-7.949-28.011-4.741-35.961 7.178-6.863 10.285-5.513 23.991 3.239 32.732a20.932 20.932 0 016.173 14.914v13.716c-.711.122-1.432.213-2.142.335-16.386 2.995-28.305 17.27-28.316 33.93 0 5.604 4.548 10.153 10.153 10.153h101.526v20.305H94.673c-29.818.01-56.448 18.671-66.621 46.702a2.08 2.08 0 00-.142.264 20.09 20.09 0 00-.66 1.624l-19.96 59.9-2.589 7.777A164.398 164.398 0 000 366.254v104.572c0 13.452 10.914 24.366 24.366 24.366h47.717c5.584 27.473 32.377 45.23 59.85 39.646a50.767 50.767 0 0039.646-39.646h235.54c5.584 27.473 32.377 45.23 59.85 39.646a50.767 50.767 0 0039.646-39.646h78.175c13.452 0 24.366-10.914 24.366-24.366V281.988c-.041-39.23-31.839-71.028-71.068-71.068zM140.167 103.221a5.616 5.616 0 01-.061-7.949 5.625 5.625 0 017.168-.711 65.835 65.835 0 0124.681 30.458l5.635 14.061c-8.467 1.137-16.874 2.569-25.3 3.919v-10.518a41.106 41.106 0 00-12.123-29.26zm-6.701 63.291a1026.8 1026.8 0 01181.264-16.508 1025.85 1025.85 0 01181.264 16.518 14.206 14.206 0 017.361 3.787h-377.24a14.199 14.199 0 017.351-3.797zm100.044 24.102h142.136v20.305H233.51v-20.305zM44.539 271.835h96.45c.65 0 1.178.528 1.178 1.178v38.255c0 .65-.528 1.178-1.178 1.178H31.006l13.533-40.611zm544.312 152.898l-60.012-.609a30.59 30.59 0 00-28.661-20.305h-86.622c-15.127.061-27.94 11.178-30.143 26.143l-6.416 44.925H201.702l-6.416-44.925c-2.203-14.965-15.016-26.082-30.143-26.143H78.52c-12.955.051-24.478 8.234-28.772 20.458l-29.443.416v-51.332h568.546v51.372zM20.305 470.826v-25.828l25.981-.366-4.325 30.255H24.366a4.06 4.06 0 01-4.061-4.061zm101.526 44.672c-16.823 0-30.458-13.635-30.458-30.458s13.635-30.458 30.458-30.458 30.458 13.635 30.458 30.458-13.635 30.458-30.458 30.458zm49.748-40.611c-5.584-27.473-32.377-45.23-59.85-39.646a50.767 50.767 0 00-39.646 39.646h-9.615l6.01-42.052c.721-4.995 4.995-8.711 10.041-8.711h86.622c5.046 0 9.32 3.716 10.041 8.711l6.01 42.052h-9.613zm285.288 40.611c-16.823 0-30.458-13.635-30.458-30.458s13.635-30.458 30.458-30.458 30.458 13.635 30.458 30.458-13.635 30.458-30.458 30.458zm49.748-40.611c-5.584-27.473-32.377-45.23-59.85-39.646a50.767 50.767 0 00-39.646 39.646h-9.625l6.01-42.052a10.164 10.164 0 0110.051-8.711h86.622c5.046 0 9.32 3.716 10.041 8.711l6.01 42.052h-9.613zm78.175 0h-48.052l-4.345-30.407 56.459.558v25.788a4.062 4.062 0 01-4.062 4.061zm4.061-121.831H20.955a103.306 103.306 0 012.995-19.442l.294-.863h116.755c11.848-.03 21.432-9.635 21.442-21.483v-38.255c-.01-11.858-9.625-21.473-21.483-21.483H54.073a50.7 50.7 0 0140.61-20.305h443.405c28.021.03 50.733 22.742 50.763 50.763v71.068z"/><path d="M313.553 251.53H204.23c-11.858.01-21.473 9.625-21.483 21.483v38.255c.01 11.858 9.625 21.473 21.483 21.483h109.323c11.858-.01 21.473-9.625 21.483-21.483v-38.255c-.01-11.858-9.625-21.473-21.483-21.483zm1.178 59.738c0 .65-.528 1.178-1.178 1.178H204.23c-.65 0-1.178-.528-1.178-1.178v-38.255c0-.65.528-1.178 1.178-1.178h109.323c.65 0 1.178.528 1.178 1.178v38.255zM486.147 251.53H376.824c-11.858.01-21.473 9.625-21.483 21.483v38.255c.01 11.858 9.625 21.473 21.483 21.483h109.323c11.858-.01 21.473-9.625 21.483-21.483v-38.255c-.01-11.858-9.625-21.473-21.483-21.483zm1.178 59.738c0 .65-.528 1.178-1.178 1.178H376.824c-.65 0-1.178-.528-1.178-1.178v-38.255c0-.65.528-1.178 1.178-1.178h109.323c.65 0 1.178.528 1.178 1.178v38.255zM527.935 271.835h40.61v20.305h-40.61zM527.935 312.446h40.61v20.305h-40.61z"/></svg>