<?xml version="1.0" encoding="utf-8"?>
<!-- Generator: Adobe Illustrator 21.1.0, SVG Export Plug-In . SVG Version: 6.00 Build 0)  -->
<svg version="1.1" xmlns="http://www.w3.org/2000/svg" xmlns:xlink="http://www.w3.org/1999/xlink" x="0px" y="0px"
	 viewBox="0 0 512 512" style="enable-background:new 0 0 512 512;" xml:space="preserve">
<style type="text/css">
	.st0{fill:none;stroke:#ECF0F1;stroke-width:4;stroke-miterlimit:10;}
	.st1{fill:#FC2E85;stroke:#ECF0F1;stroke-width:4;stroke-miterlimit:10;}
	.st2{fill:#EF3D55;stroke:#ECF0F1;stroke-width:4;stroke-miterlimit:10;}
</style>
<g id="phone">
	<g>
		<g>
			<g>
				<path class="st0" d="M359.8,507H143.3c-19.2,0-34.8-15.7-34.8-34.9V389c-24.9-3.8-47.8-15.3-64.5-32.6
					c-17.3-17.9-26.9-40.7-26.9-64.3c0-23.2,9.5-45.7,26.9-63.3c16.7-16.9,39.5-28.3,64.5-32v-22.7c-4.7-0.9-8.3-5.1-8.3-10.1v-8.3
					c0-5,3.6-9.2,8.3-10.1v-4.8c-4.7-0.9-8.3-5.1-8.3-10.1v-8.3c0-5,3.6-9.2,8.3-10.1v-4.8c-4.7-0.9-8.3-5.1-8.3-10.1v-8.3
					c0-5,3.6-9.2,8.3-10.1V38.9C108.4,19.7,124,4,143.3,4h216.5c19.2,0,34.8,15.7,34.8,34.9V97c24.9,3.8,47.8,15.1,64.5,32
					c17.3,17.6,26.9,40,26.9,63.3c0,23.6-9.5,46.5-26.9,64.3c-16.7,17.2-39.6,28.7-64.5,32.6v182.9C394.7,491.3,379,507,359.8,507z
					 M110.4,149.3c-3.5,0-6.4,2.9-6.4,6.4v8.3c0,3.5,2.9,6.4,6.4,6.4h1.9v29.8l-1.7,0.2c-24.7,3.4-47.4,14.4-63.9,31.1
					C30.1,248.4,21,269.9,21,292.1c0,22.6,9.1,44.5,25.8,61.6c16.5,17,39.2,28.2,63.9,31.7l1.7,0.2v86.5c0,17.1,13.9,31,31,31h216.5
					c17.1,0,31-13.9,31-31V285.8l1.7-0.2c24.7-3.4,47.4-14.7,63.9-31.7c16.6-17.1,25.8-39,25.8-61.6c0-22.2-9.1-43.7-25.7-60.5
					c-16.5-16.7-39.2-27.8-63.9-31.1l-1.7-0.2V38.9c0-17.1-13.9-31-31-31H143.3c-17.1,0-31,13.9-31,31v43.9h-1.9
					c-3.5,0-6.4,2.9-6.4,6.4v8.3c0,3.5,2.9,6.4,6.4,6.4h1.9V116h-1.9c-3.5,0-6.4,2.9-6.4,6.4v8.3c0,3.5,2.9,6.4,6.4,6.4h1.9v12.2
					H110.4z M251.5,482c-10.2,0-18.6-8.3-18.6-18.6c0-10.2,8.3-18.6,18.6-18.6c10.2,0,18.6,8.3,18.6,18.6
					C270.1,473.7,261.8,482,251.5,482z M251.5,448.8c-8.1,0-14.7,6.6-14.7,14.7s6.6,14.7,14.7,14.7c8.1,0,14.7-6.6,14.7-14.7
					S259.6,448.8,251.5,448.8z M378,423.8H125v-37.2h1.9c13.8,0,27-2.4,40.2-7.4l0.8-0.3l0.8,0.4c10.6,5.5,22.9,9.6,38.6,12.7
					c1.5,0.3,3,0.7,4.5,1c4.4,1,9,2.1,13.4,1.8c3.4-0.2,6.6-2.4,7.6-5.1c0.7-1.9,0.1-3.9-1.8-5.8c-7.1-6.9-12.2-22.1-14.4-42.8
					l-0.1-0.7l0.4-0.6c10.6-14.9,16-31,16-47.8c0-51.2-47.6-92.9-106-92.9H125V70.5h253v28.9h-1.9c-58.5,0-106,41.7-106,92.9
					c0,16.9,5.4,32.9,16,47.8l0.4,0.6l-0.1,0.7c-2.1,20.7-7.3,35.8-14.4,42.8c-1.6,1.5-2.2,3.8-1.6,6c0.6,2.3,2.4,4.1,4.6,4.7
					c2.6,0.7,6.2,0,9.3-0.6c1-0.2,1.9-0.4,2.7-0.5c17.7-2.8,32.3-7,44.5-12.9c0.9-0.4,1.8-0.9,2.7-1.4l0.8-0.4l0.8,0.3
					c13.2,5,26.4,7.4,40.2,7.4h1.9V423.8z M128.9,419.9h245.2l0-129.2c-13.3-0.2-26.1-2.6-38.8-7.3c-0.7,0.4-1.4,0.7-2.1,1
					c-12.6,6.1-27.5,10.4-45.6,13.2c-0.8,0.1-1.7,0.3-2.6,0.5c-3.6,0.7-7.6,1.5-11,0.6c-3.6-0.9-6.4-3.8-7.3-7.5
					c-0.9-3.6,0-7.3,2.6-9.8c6.3-6.1,11.1-20.5,13.2-39.6c-10.8-15.4-16.3-32-16.3-49.5c0-52.8,48.3-95.8,108-96.8V74.4H128.9v120.9
					c59.7,0.9,108,44,108,96.8c0,17.5-5.5,34.1-16.3,49.5c2.1,19.1,6.8,33.5,13.1,39.6c4.1,4,3.5,7.9,2.8,9.9
					c-1.5,4.1-6,7.2-10.9,7.6c-5,0.4-9.9-0.8-14.6-1.8c-1.4-0.3-2.9-0.7-4.4-1c-15.7-3.1-28.1-7.2-38.9-12.7
					c-12.8,4.7-25.5,7.1-38.8,7.3V419.9z"/>
			</g>
		</g>
	</g>
</g>
<g id="text">
	<g>
		<path class="st1" d="M173.5,336.7h-83c-5.7,0-10.3-4.6-10.3-10.3c0-5.7,4.6-10.3,10.3-10.3h83c5.7,0,10.3,4.6,10.3,10.3
			C183.7,332.1,179.1,336.7,173.5,336.7z"/>
		<path class="st1" d="M90.4,320c-3.5,0-6.4,2.9-6.4,6.4c0,3.5,2.9,6.4,6.4,6.4h83c3.5,0,6.4-2.9,6.4-6.4c0-3.5-2.9-6.4-6.4-6.4
			H90.4z"/>
		<path class="st1" d="M190.1,303.4H90.4c-5.7,0-10.3-4.6-10.3-10.3c0-5.7,4.6-10.3,10.3-10.3h99.7c5.7,0,10.3,4.6,10.3,10.3
			C200.3,298.8,195.8,303.4,190.1,303.4z"/>
		<path class="st1" d="M90.4,286.8c-3.5,0-6.4,2.9-6.4,6.4s2.9,6.4,6.4,6.4h99.7c3.5,0,6.4-2.9,6.4-6.4s-2.9-6.4-6.4-6.4H90.4z"/>
		<path class="st1" d="M148.6,270.1H90.4c-5.7,0-10.3-4.6-10.3-10.3c0-5.7,4.6-10.3,10.3-10.3h58.1c5.7,0,10.3,4.6,10.3,10.3
			C158.8,265.5,154.2,270.1,148.6,270.1z"/>
		<path class="st1" d="M90.4,253.5c-3.5,0-6.4,2.9-6.4,6.4s2.9,6.4,6.4,6.4h58.1c3.5,0,6.4-2.9,6.4-6.4s-2.9-6.4-6.4-6.4H90.4z"/>
	</g>
</g>
<g id="heart">
	<g>
		<path class="st2" d="M380.1,259.4c-2.4,0-4.7-0.9-6.6-2.4l-40.9-34.4c-9.7-8.2-16.4-18.7-19.4-30.3c-2-7.8-1.5-13.1-1.2-15
			c2.2-21.8,19.7-38.3,40.6-38.3c10,0,19.7,4.4,27.5,12.4c7.8-8,17.5-12.4,27.5-12.4c20.9,0,38.4,16.5,40.6,38.4
			c0.3,1.8,0.7,7.1-1.2,14.9v0c-2.9,11.6-9.6,22.1-19.4,30.3L386.7,257C384.9,258.5,382.5,259.4,380.1,259.4z"/>
		<path class="st2" d="M352.6,142.9c-18.9,0-34.7,15-36.7,34.9c-0.3,1.8-0.7,6.5,1.1,13.6c2.7,10.8,9,20.6,18.1,28.3L376,254
			c1.1,1,2.6,1.5,4.1,1.5c1.5,0,2.9-0.5,4.1-1.5l40.9-34.4c9.1-7.7,15.4-17.5,18.1-28.3l0,0c1.8-7.1,1.4-11.8,1.1-13.5
			c-2-20-17.8-35-36.7-35c-12.9,0-21.9,7.9-26.1,12.7l-1.4,1.6l-1.5-1.6C374.4,150.9,365.4,142.9,352.6,142.9z"/>
	</g>
</g>
</svg>
