<svg width="338.67mm" height="853.342" viewBox="0 0 1200 800" xmlns="http://www.w3.org/2000/svg"><path fill="#81d4fa" fill-rule="evenodd" d="M0 0h1200v800H0z"/><g transform="matrix(1.05937 0 0 1.05937 -49.231 -290.505)" fill-rule="evenodd"><path d="M443.87 957.62h337.97c1.834 0 3.994-1.609 3.31-3.31l-16.541-41.075c-.685-1.701-7.68-3.31-9.513-3.31h-292.49c-1.833 0-8.827 1.61-9.512 3.31l-16.541 41.076c-.685 1.7 1.476 3.309 3.31 3.309z" fill="#1a1a1a"/><path d="M585.51 813.27h54.704v105.32c-17.146 7.13-34.973 8.216-54.704 0z" fill="#333"/><path d="M635.12 813.27h5.09v104.64c-1.008 1.251-3.023 2.896-5.137 2.916z" fill="#212121"/><rect transform="scale(1 -1)" x="230.77" y="-858.37" width="764.17" height="472.28" ry="32.75" fill="#fff"/><path fill="#ff8a65" d="M244.56 358.98h736.1v438.7h-736.1z"/><path fill="#f9f9f9" d="M309.27 372.49h607.18v425.18H309.27z"/><path fill="#ccc" d="M471.37 372.49h6.928v425.18h-6.928z"/><rect x="523.19" y="649.14" width="297.91" height="156.28" ry="2.123" fill="#c8e6c9"/><path d="M230.66 346.02v471.85h764.4V346.02h-764.4zm18.018 24.384h725.04v421.12h-725.04v-421.12z" fill="#4d4d4d"/><path d="M443.87 957.62h337.97c1.834 0 3.994-.336 3.31-.69l-16.541-8.575c-.685-.355-7.68-.691-9.513-.691h-292.49c-1.833 0-8.827.336-9.512.69l-16.541 8.575c-.685.355 1.476.691 3.31.691z" fill="#424242"/><rect x="523.19" y="474.41" width="297.91" height="156.28" ry="2.123" fill="#c8e6c9"/><path fill="#66bb6a" d="M309.27 370.61h607.18v79.175H309.27z"/><path fill="#c8e6c9" d="M330.71 475.17h117.01v42.185H330.71z"/><path fill="#66bb6a" d="M330.71 475.17h117.01v17.719H330.71z"/><path fill="#c8e6c9" d="M330.71 530.48h117.01v51.227H330.71z"/><path fill="#66bb6a" d="M330.71 527.82h117.01v17.719H330.71z"/><path fill="#c8e6c9" d="M330.71 600.16h117.01v73.034H330.71z"/><path fill="#66bb6a" d="M330.71 592.88h117.01v17.719H330.71z"/><path fill="#c8e6c9" d="M330.71 693.77h117.01v73.034H330.71z"/><path fill="#66bb6a" d="M330.71 684.27h117.01v17.719H330.71zM510.47 487.95h284.04v26.745H510.47z"/><rect x="826.98" y="477.76" width="13.539" height="13.539" ry="2.821" fill="#5c6bc0"/><rect x="826.98" y="494.87" width="13.539" height="13.539" ry="2.821" fill="#4dd0e1"/><rect x="826.98" y="511.42" width="13.539" height="13.539" ry="2.821" fill="#ff7043"/><rect x="826.98" y="655.94" width="13.539" height="13.539" ry="2.821" fill="#5c6bc0"/><rect x="826.98" y="673.05" width="13.539" height="13.539" ry="2.821" fill="#4dd0e1"/><rect x="826.98" y="689.6" width="13.539" height="13.539" ry="2.821" fill="#ff7043"/><path fill="#e8f5e9" d="M540.34 530.36h91.237v69.672H540.34z"/><path d="M613.33 550.29l-37.326 20.321-17.418-11.612-18.248 13.608v27.424h91.24V563.78l-18.248-13.49zM643.43 531.28h151.28v8.688H643.43zM643.43 546.49h151.28v8.688H643.43zM643.43 560.74h151.28v8.688H643.43zM643.43 575.95h111.36v8.688H643.43zM510.47 662.68h284.04v26.745H510.47z" fill="#66bb6a"/><path fill="#e8f5e9" d="M540.34 705.08h91.237v69.672H540.34z"/><path d="M613.33 725.01l-37.326 20.321-17.418-11.612-18.248 13.608v27.424h91.24V738.5l-18.248-13.49zM643.43 706h151.28v8.688H643.43zM643.43 721.21h151.28v8.688H643.43zM643.43 735.47h151.28v8.688H643.43zM643.43 750.67h111.36v8.688H643.43z" fill="#66bb6a"/></g></svg>