<?xml version="1.0" encoding="utf-8"?>
<!-- Generator: Adobe Illustrator 21.1.0, SVG Export Plug-In . SVG Version: 6.00 Build 0)  -->
<svg version="1.1"
	 id="svg2" xmlns:cc="http://creativecommons.org/ns#" xmlns:dc="http://purl.org/dc/elements/1.1/" xmlns:rdf="http://www.w3.org/1999/02/22-rdf-syntax-ns#" xmlns:svg="http://www.w3.org/2000/svg"
	 xmlns="http://www.w3.org/2000/svg" xmlns:xlink="http://www.w3.org/1999/xlink" x="0px" y="0px" viewBox="0 0 915 580"
	 style="enable-background:new 0 0 915 580;" xml:space="preserve">
<style type="text/css">
	.st0{fill:none;}
	.st1{enable-background:new    ;}
	.st2{fill:#EF3D55;}
	.st3{fill:none;stroke:#EF3D55;stroke-miterlimit:10;}
	.st4{fill:none;stroke:#EF3D55;stroke-width:2.6667;}
	.st5{fill:none;stroke:#000000;stroke-width:2.6667;}
</style>
<path id="path2782" class="st0" d="M0,0"/>
<text transform="matrix(1.0004 0 0 1 196.4102 -166.3423)" style="font-family:'TimesNewRomanPSMT'; font-size:13.3211px;">constructed startin with 1x1mm square; last square is 144x144</text>
<path id="path1873" class="st2" d="M18.9,563.1c0-300.3,243.5-543.8,543.9-543.8"/>
<path id="path1875" class="st2" d="M899,355.5c0-185.6-150.5-336.1-336.2-336.1"/>
<path id="path2762" class="st2" d="M691.3,563.1c114.7,0,207.8-93,207.8-207.7"/>
<path id="path2764" class="st2" d="M562.8,434.8c0,70.9,57.5,128.4,128.4,128.4"/>
<path id="path2766" class="st2" d="M562.8,434.8c0-43.8,35.5-79.3,79.3-79.3"/>
<path id="path2768" class="st3" d="M691.3,404.6c0-27.1-22-49.1-49.1-49.1l0,0"/>
<path id="path2770" class="st3" d="M691.3,404.6c0,16.7-13.5,30.2-30.2,30.2l0,0"/>
<path id="path2772" class="st4" d="M642.2,415.9c0,10.4,8.5,18.9,18.9,18.9l0,0"/>
<path id="path2774" class="st4" d="M642.2,415.9c0-6.3,5.1-11.3,11.3-11.3l0,0"/>
<path id="rect2784" class="st4" d="M653.5,415.9v-11.3"/>
<path id="rect2786" class="st4" d="M661.1,415.9h-18.9"/>
<path id="rect2788" class="st4" d="M653.5,412.1h7.6"/>
<path id="rect2790" class="st4" d="M657.3,412.1v3.8"/>
<path id="rect2794" class="st4" d="M661.1,404.6v30.2"/>
<path id="rect2796" class="st4" d="M642.2,404.6h49.1"/>
<path id="rect2798" class="st4" d="M642.2,434.8v-79.3"/>
<path id="rect2800" class="st4" d="M691.3,434.8H562.8"/>
<path id="rect2802" class="st4" d="M691.3,355.5v207.7"/>
<path id="rect2804" class="st2" d="M562.8,355.3h336.4"/>
<path id="rect2806" class="st2" d="M562.8,563.1V19.4"/>
<path id="path922" class="st5" d="M18.9,563.1"/>
<path id="path924" class="st5" d="M899,18.9"/>
<path id="path928" class="st5" d="M18.9,563.1"/>
<path id="path1028" class="st4" d="M661.1,412.1c0-4.2-3.4-7.6-7.6-7.6"/>
<path id="path1030" class="st4" d="M661.1,412.1c0,2.1-1.7,3.8-3.8,3.8"/>
<path id="path1034" class="st4" d="M653.5,412.1c0,2.1,1.7,3.8,3.8,3.8h0"/>
</svg>
