<svg id="Capa_1" enable-background="new 0 0 512 512" height="512" viewBox="0 0 512 512" width="512" xmlns="http://www.w3.org/2000/svg"><path d="m325.783 94.601 35.013-36.53c4.292-4.478 11.825-2.594 13.504 3.377l13.697 48.711-42.775 38.881z" fill="#ff9a9f"/><path d="m343.816 214.792c22.248 5.564 44.794-7.962 50.357-30.21l20.052-80.187c1.445-5.779-3.658-11.089-9.472-9.79-18.153 4.057-53.082 16.448-83.328 53.943-18.983 23.533-6.94 58.909 22.391 66.244z" fill="#ff8086"/><path d="m315.511 207.714c-22.248-5.564-35.774-28.109-30.21-50.357l20.052-80.187c1.445-5.779 8.448-8.062 12.966-4.179 14.107 12.124 39.092 39.498 48.129 86.816 5.671 29.698-21.606 55.242-50.937 47.907z" fill="#e5646e"/><path d="m186.217 94.601-35.013-36.53c-4.292-4.478-11.825-2.594-13.504 3.377l-13.697 48.711 42.775 38.881z" fill="#ff9a9f"/><path d="m168.184 214.792c-22.248 5.564-44.794-7.962-50.357-30.21l-20.052-80.187c-1.445-5.779 3.658-11.089 9.472-9.79 18.153 4.057 53.082 16.448 83.328 53.943 18.983 23.533 6.94 58.909-22.391 66.244z" fill="#e5646e"/><path d="m196.489 207.714c22.248-5.564 35.774-28.109 30.21-50.357l-20.052-80.187c-1.445-5.779-8.448-8.062-12.966-4.179-14.107 12.124-39.092 39.498-48.129 86.816-5.671 29.698 21.606 55.242 50.937 47.907z" fill="#ff8086"/><path d="m288.065 55.597-25.105-43.933c-3.077-5.385-10.843-5.385-13.92 0l-25.105 43.933 32.065 48.097z" fill="#ff9a9f"/><path d="m241.411 167.823c-22.933 0-41.524-18.591-41.524-41.524v-82.656c0-5.957 6.239-9.87 11.564-7.2 16.626 8.339 47.506 28.835 67.753 72.547 12.707 27.435-7.558 58.833-37.793 58.833z" fill="#e5646e"/><path d="m270.589 167.823c22.933 0 41.524-18.591 41.524-41.524v-82.656c0-5.957-6.239-9.87-11.564-7.2-16.626 8.339-47.506 28.835-67.753 72.547-12.707 27.435 7.558 58.833 37.793 58.833z" fill="#ff8086"/><path d="m256 384.258s-43.302 43.034-65.658 51.896c-12.347 4.894-26.324-1.147-31.218-13.494s1.147-26.324 13.494-31.218c22.356-8.862 83.382-7.184 83.382-7.184z" fill="#ffe07d"/><path d="m256 384.258s43.302-43.034 65.658-51.896c12.347-4.894 26.324 1.147 31.218 13.494s-1.147 26.324-13.494 31.218c-22.356 8.862-83.382 7.184-83.382 7.184z" fill="#ffe07d"/><path d="m422.125 87.785c-1.502-1.834-3.776-2.85-6.151-2.74-.764.036-11.737.643-27.62 6.036l-13.574-38.007c-.843-2.362-2.811-4.146-5.244-4.754-2.43-.607-5.008.04-6.864 1.727l-29.86 27.146c-4.938-5.254-9.509-9.326-13.2-12.305v-33.34c0-2.371-1.121-4.602-3.023-6.017s-4.361-1.849-6.632-1.167c-.958.287-11.403 3.543-25.358 12.515l-22.359-33.539c-1.39-2.087-3.732-3.34-6.24-3.34s-4.85 1.253-6.24 3.34l-22.386 33.58c-14.1-9.084-24.598-12.335-25.331-12.555-2.271-.682-4.73-.249-6.632 1.167-1.902 1.415-3.023 3.646-3.023 6.017v33.343c-3.601 2.911-8.178 6.986-13.179 12.32l-29.881-27.165c-1.855-1.687-4.432-2.336-6.864-1.727-2.433.608-4.401 2.392-5.244 4.754l-13.574 38.007c-15.883-5.393-26.855-6-27.62-6.036-2.375-.114-4.649.906-6.151 2.74s-2.048 4.271-1.473 6.571l22.98 91.921c3.176 12.704 11.109 23.41 22.337 30.148 7.72 4.632 16.36 7.006 25.136 7.006 3.989 0 8.007-.491 11.978-1.483 2.317-.579 4.565-1.324 6.743-2.211l39.115 157.552c-21.814 1.097-37.565 3.506-46.835 7.181-7.834 3.105-13.99 9.075-17.333 16.811-3.343 7.735-3.475 16.309-.369 24.143 4.903 12.369 16.804 19.923 29.366 19.923 3.861 0 7.785-.713 11.587-2.221 8.364-3.315 19.867-10.999 34.256-22.856l21.36 86.037.007-.002c.809 3.268 3.753 5.695 7.272 5.695s6.463-2.426 7.272-5.695l.007.002 28.53-114.918c23.635-1.008 40.578-3.474 50.336-7.342 7.834-3.105 13.99-9.075 17.333-16.811 3.343-7.735 3.475-16.31.369-24.143-3.105-7.834-9.075-13.99-16.81-17.333-7.736-3.343-16.311-3.475-24.144-.369-10.064 3.989-24.658 14.281-43.375 30.588-4.394 3.828-8.479 7.521-12.019 10.789v-191.973c2.327.336 4.692.527 7.089.527 1.938 0 3.847-.126 5.728-.346 3.001 19.197 17.164 35.048 36.545 39.894 2.331.583 4.676.97 7.021 1.208l-22.476 90.789c-.995 4.021 1.457 8.087 5.478 9.083.605.15 1.211.221 1.808.221 3.367 0 6.429-2.284 7.274-5.699l22.463-90.734c2.177.886 4.423 1.63 6.739 2.209 3.971.993 7.987 1.483 11.977 1.483 8.775 0 17.417-2.375 25.136-7.006 11.229-6.737 19.162-17.444 22.337-30.148l22.98-91.921c.574-2.299.027-4.736-1.475-6.57zm-57.687-19.071 9.971 27.917c-6.208 2.841-12.82 6.379-19.63 10.777-3.937-7.084-8.111-13.323-12.267-18.761zm-108.438-47.693 16.413 24.619c-5.343 4.266-10.907 9.308-16.449 15.239-5.533-5.907-11.082-10.936-16.408-15.192zm-48.613 21.805c9.371 4.631 24.257 13.681 38.796 29.56-7.23 9.362-14.157 20.421-20.193 33.451-7.021 15.16-5.824 32.648 3.205 46.779 1.618 2.532 3.446 4.873 5.441 7.026-15.526-3.15-27.249-16.903-27.249-33.345zm-15 42.295v41.177c0 27.032 21.992 49.024 49.024 49.024 2.392 0 4.757-.177 7.089-.51v201.832c-4.247-.031-9.97-.024-16.488.109l-39.89-160.675c2.343-.238 4.687-.625 7.016-1.208 9.462-2.365 17.912-7.425 24.434-14.63 2.78-3.071 2.543-7.814-.528-10.594s-7.814-2.543-10.593.528c-4.521 4.994-10.382 8.502-16.95 10.144-11.343 2.836-23.201-.281-31.722-8.336-8.447-7.985-12.195-19.533-10.026-30.89 7.253-37.969 25.201-62.376 38.634-75.971zm56.113 316.628v41.416l-8.395-33.815c3.022-2.682 5.849-5.252 8.395-7.601zm-100.938-333.035 21.954 19.958c-4.144 5.429-8.321 11.669-12.265 18.755-6.82-4.406-13.443-7.951-19.66-10.796zm-6.125 134.848c-7.793-4.676-13.298-12.107-15.503-20.924l-20.254-81.015c10.177 2.194 26.777 7.346 44.855 19.327-4.767 10.842-8.825 23.243-11.516 37.327-3.135 16.411 2.269 33.085 14.455 44.605 2.185 2.066 4.528 3.897 6.988 5.503-6.629.311-13.205-1.331-19.025-4.823zm46.141 225.62c-8.482 3.362-18.12-.803-21.482-9.286-1.629-4.109-1.56-8.607.194-12.665 1.753-4.057 4.982-7.189 9.092-8.818 12.593-4.992 41.113-6.487 61.938-6.75-15.345 14.075-37.141 32.524-49.742 37.519zm136.844-89.847c1.975-.783 4.04-1.174 6.102-1.174 2.229 0 4.455.457 6.563 1.367 4.057 1.754 7.188 4.983 8.817 9.092s1.56 8.607-.194 12.664c-1.753 4.057-4.982 7.189-9.092 8.818-12.592 4.991-41.113 6.487-61.938 6.75 15.345-14.074 37.141-32.522 49.742-37.517zm-56.681 52.552c2.541 0 5.414-.018 8.504-.061l-12.745 51.339v-51.293c1.287.009 2.701.015 4.241.015zm-25.906-247.345c-6.258-9.796-7.094-21.908-2.234-32.399 14.083-30.406 33.596-48.726 47.484-58.74 6.721-4.846 12.818-8.277 17.527-10.595v83.491c0 18.761-15.263 34.024-34.024 34.024-11.691 0-22.439-5.9-28.753-15.781zm49.074 26.353c16.916-7.739 28.704-24.812 28.704-44.597v-41.208c13.589 13.701 31.381 38.034 38.635 76.002 2.169 11.357-1.579 22.905-10.026 30.89-8.521 8.055-20.38 11.171-31.722 8.336-14.036-3.509-24.126-15.329-25.591-29.423zm95.157 11.744c-2.205 8.817-7.71 16.248-15.503 20.923-5.821 3.492-12.397 5.134-19.026 4.824 2.46-1.606 4.803-3.438 6.989-5.503 12.187-11.52 17.59-28.195 14.455-44.605-2.693-14.094-6.733-26.501-11.488-37.343 17.964-11.887 34.608-17.056 44.818-19.276z"/></svg>