<svg id="Layer_1" data-name="Layer 1" xmlns="http://www.w3.org/2000/svg" viewBox="0 0 210 174"><defs><style>.cls-1{fill:#fff}</style></defs><path class="cls-1" d="M0 106h43v14H16v14h25v14H16v24H0v-66z"/><path class="cls-1" d="M67 117h16v41c.05 9 4.23 12.08 10 12 6 .08 9.84-3 10-12v-41h16v44c0 15.23-11.65 24-26 24-15.23 0-26-9.21-26-24z" transform="translate(-15 -11)"/><path class="cls-1" d="M113 106h44v14h-28v12h26v14h-26v12h29v14h-45v-66zM165 106h16v52h29v14h-45v-66zM33 89l26-26 27 26h28L73 49l21-21 61 61h27L92 0 3 89h30z"/></svg>