<svg xmlns="http://www.w3.org/2000/svg" width="310" height="310" viewBox="0 0 310 310">
  <defs>
    <linearGradient id="a" x1="75.482%" x2="23.959%" y1="0%" y2="100%">
      <stop stop-color="#CA4A4C" offset="0%"/>
      <stop stop-color="#FD5F61" offset="100%"/>
    </linearGradient>
  </defs>
  <g fill="none" fill-rule="evenodd">
    <polygon fill="url(#a)" points="0 310 310 310 310 0 0 0"/>
    <polygon fill="#FFFFFF" points="56 165 99 165 99 179 72 179 72 193 97 193 97 207 72 207 72 231 56 231"/>
    <path fill="#FFFFFF" d="M107,165 L123,165 L123,206 C123.050488,215.012678 127.228223,218.08446 133,218 C138.9909,218.08446 142.839437,215.012678 143,206 L143,165 L159,165 L159,209 C159,224.225972 147.346371,233 133,233 C117.774052,233 107,223.786706 107,209 L107,165 Z"/>
    <polygon fill="#FFFFFF" points="167 165 211 165 211 179 183 179 183 191 209 191 209 205 183 205 183 217 212 217 212 231 167 231"/>
    <polygon fill="#FFFFFF" points="219 165 235 165 235 217 264 217 264 231 219 231"/>
    <polygon fill="#FFFFFF" points="86 149 112 123 139 149 167 149 126 109 147 88 208 149 235 149 145 60 56 149"/>
  </g>
</svg>
