<svg id="Layer_1" data-name="Layer 1" xmlns="http://www.w3.org/2000/svg" viewBox="0 0 210 174"><defs><style>.cls-1{fill:#fff;}</style></defs><title>fuel-logo-trans</title><polygon class="cls-1" points="0 106 43 106 43 120 16 120 16 134 41 134 41 148 16 148 16 172 0 172 0 106"/><path class="cls-1" d="M67,117H83v41c.05,9,4.23,12.08,10,12,6,.08,9.84-3,10-12V117h16v44c0,15.23-11.65,24-26,24-15.23,0-26-9.21-26-24Z" transform="translate(-15 -11)"/><polygon class="cls-1" points="113 106 157 106 157 120 129 120 129 132 155 132 155 146 129 146 129 158 158 158 158 172 113 172 113 106"/><polygon class="cls-1" points="165 106 181 106 181 158 210 158 210 172 165 172 165 106"/><polygon class="cls-1" points="33 89 59 63 86 89 114 89 73 49 94 28 155 89 182 89 92 0 3 89 33 89"/></svg>