<svg xmlns="http://www.w3.org/2000/svg" width="310" height="310"><defs><linearGradient id="a" x1="75.482%" x2="23.959%" y1="0%" y2="100%"><stop stop-color="#CA4A4C" offset="0%"/><stop stop-color="#FD5F61" offset="100%"/></linearGradient></defs><g fill="none" fill-rule="evenodd"><path fill="url(#a)" d="M0 310h310V0H0z"/><path fill="#000" d="M56 165h43v14H72v14h25v14H72v24H56zM107 165h16v41c.05 9.013 4.228 12.084 10 12 5.99.084 9.84-2.987 10-12v-41h16v44c0 15.226-11.654 24-26 24-15.226 0-26-9.213-26-24v-44zM167 165h44v14h-28v12h26v14h-26v12h29v14h-45zM219 165h16v52h29v14h-45zM86 149l26-26 27 26h28l-41-40 21-21 61 61h27l-90-89-89 89z"/></g></svg>