<svg id="Layer_2" data-name="Layer 2" xmlns="http://www.w3.org/2000/svg" viewBox="0 0 49.34 50.03"><defs><style>.cls-1{fill:#fff;stroke:#000;stroke-miterlimit:10}</style></defs><path fill="#2929cc" d="M47.48 23.62L27.79 3.81 23.41 48.5 1.52 40.21 27.79 1.5l19.69 22.12z"/><path d="M48.52 22.06L28.82 2.24a1.52 1.52 0 00-2.56 1.06L21.89 48l1.9-1.45L1.9 38.26l.9 2.2 26.26-38.7-2.36.3 19.7 22.12c1.29 1.44 3.4-.68 2.12-2.12L28.82-.06a1.52 1.52 0 00-2.36.3L.2 38.95a1.52 1.52 0 00.9 2.2l21.9 8.3c1 .38 1.81-.57 1.9-1.45l4.36-44.7-2.56 1.06 19.7 19.82a1.5 1.5 0 002.12-2.12z" transform="translate(.02 .5)"/><path fill="#2929cc" stroke="#000" stroke-miterlimit="10" d="M23.13 48.06l25.89-20.9"/></svg>