<svg id="Layer_2" data-name="Layer 2" xmlns="http://www.w3.org/2000/svg" viewBox="0 0 49.34 50.03"><defs><style>.cls-1{fill:#fff;}.cls-1,.cls-2,.cls-4{stroke:#000;stroke-miterlimit:10;}.cls-2,.cls-3,.cls-4{fill:#2929cc;}.cls-2{stroke-width:3px;}</style></defs><title>fund-icon</title><path class="cls-1" d="M41.75,4.15" transform="translate(0.02 0.5)"/><path class="cls-1" d="M47.62,10.12" transform="translate(0.02 0.5)"/><path class="cls-2" d="M-23.5-10.5" transform="translate(0.02 0.5)"/><polygon class="cls-3" points="47.48 23.62 27.79 3.81 23.41 48.5 1.52 40.21 27.79 1.5 47.48 23.62"/><path d="M48.52,22.06,28.82,2.24A1.52,1.52,0,0,0,26.26,3.3L21.89,48l1.9-1.45L1.9,38.26l.9,2.2L29.06,1.76l-2.36.3L46.4,24.18c1.29,1.44,3.4-.68,2.12-2.12L28.82-.06a1.52,1.52,0,0,0-2.36.3L.2,38.95a1.52,1.52,0,0,0,.9,2.2L23,49.45c1,.38,1.81-.57,1.9-1.45L29.26,3.3,26.7,4.36,46.4,24.18A1.5,1.5,0,0,0,48.52,22.06Z" transform="translate(0.02 0.5)"/><line class="cls-4" x1="23.13" y1="48.06" x2="49.02" y2="27.16"/></svg>