<svg xmlns="http://www.w3.org/2000/svg" width="1200" height="1200"><path fill="#4285F4" d="M1163.5 612.777c0-47.277-3.837-81.777-12.139-117.556H611.5v213.388h316.886C922 761.638 887.5 841.5 810.832 895.164l-1.074 7.144 170.693 132.234 11.826 1.181c108.61-100.307 171.223-247.891 171.223-422.946"/><path fill="#34A853" d="M611.5 1175c155.247 0 285.58-51.113 380.777-139.277L810.832 895.164c-48.555 33.861-113.723 57.5-199.332 57.5-152.054 0-281.109-100.303-327.114-238.941l-6.743.572-177.49 137.361-2.321 6.453C192.387 1045.941 386.609 1175 611.5 1175"/><path fill="#FBBC05" d="M284.386 713.723C272.247 677.946 265.222 639.61 265.222 600c0-39.613 7.025-77.945 18.525-113.723l-.322-7.62L103.712 339.09l-5.88 2.797C58.861 419.832 36.5 507.361 36.5 600s22.361 180.164 61.332 258.109l186.554-144.386"/><path fill="#EB4335" d="M611.5 247.332c107.97 0 180.802 46.639 222.331 85.613L996.109 174.5C896.445 81.861 766.747 25 611.5 25 386.609 25 192.387 154.055 97.832 341.887l185.916 144.392c46.643-138.64 175.698-238.947 327.752-238.947"/></svg>