<?xml version="1.0" encoding="utf-8"?>
<!-- Generator: Adobe Illustrator 21.1.0, SVG Export Plug-In . SVG Version: 6.00 Build 0)  -->
<svg version="1.1" id="Layer_1" xmlns="http://www.w3.org/2000/svg" xmlns:xlink="http://www.w3.org/1999/xlink" x="0px" y="0px"
	 viewBox="0 0 75 75" style="enable-background:new 0 0 75 75;" xml:space="preserve">
<style type="text/css">
	.st0{fill:url(#SVGID_1_);}
</style>
<g id="Layer_5">
	
		<radialGradient id="SVGID_1_" cx="37.4926" cy="55.7" r="28.6232" gradientTransform="matrix(1 0 0 -1 0 76)" gradientUnits="userSpaceOnUse">
		<stop  offset="1.000000e-02" style="stop-color:#FD5561"/>
		<stop  offset="0.191" style="stop-color:#F9455F"/>
		<stop  offset="1" style="stop-color:#E90054"/>
	</radialGradient>
	<path class="st0" d="M13,38.3l10.1-10.1c0.3-0.3,0.8-0.3,1.2,0l10.5,10.1c0.2,0.2,0.4,0.2,0.6,0.2h9.3c0.8,0,1.1-0.9,0.6-1.4
		L30.1,22.4c-0.3-0.3-0.3-0.9,0-1.2l7.6-7.6c0.3-0.3,0.9-0.3,1.2,0l24.6,24.6c0.2,0.2,0.5,0.3,0.7,0.3h8.3c0.9,0,1.4-1.1,0.7-1.8
		l-34.4-34c-0.8-0.8-2-0.8-2.8,0L1.7,37.1c-0.5,0.5-0.2,1.4,0.6,1.4h10.2C12.7,38.5,12.9,38.4,13,38.3z"/>
</g>
</svg>
