<svg id="Layer_5" data-name="Layer 5" xmlns="http://www.w3.org/2000/svg" xmlns:xlink="http://www.w3.org/1999/xlink" viewBox="0 0 69.95 35.34"><defs><style>.cls-1{fill:url(#radial-gradient);}</style><radialGradient id="radial-gradient" cx="34.97" cy="17.67" r="27.71" gradientUnits="userSpaceOnUse"><stop offset="0.01" stop-color="#fd5561"/><stop offset="0.19" stop-color="#f9455f"/><stop offset="1" stop-color="#e90054"/></radialGradient></defs><title>logo-wip</title><path class="cls-1" d="M11,35.1l9.54-9.54a.79.79,0,0,1,1.11,0l9.93,9.56a.79.79,0,0,0,.55.22H41A.79.79,0,0,0,41.55,34L27.25,20a.79.79,0,0,1,0-1.13l7.21-7.21a.79.79,0,0,1,1.12,0L59,35.1a.79.79,0,0,0,.56.23H69.95L34.21,0,.23,34A.79.79,0,0,0,.8,35.34h9.67A.79.79,0,0,0,11,35.1Z"/></svg>