<svg xmlns="http://www.w3.org/2000/svg" viewBox="0 0 75 75"><style>.st3{fill:#fff}</style><g id="Layer_2"><radialGradient id="SVGID_1_" cx="97.269" cy="72.297" r="27.212" gradientTransform="matrix(1.419 0 0 1.1882 -15.755 -2.808)" gradientUnits="userSpaceOnUse"><stop offset=".02" stop-color="#233091"/><stop offset="1" stop-color="#372b8b"/><stop offset="1" stop-color="#e90054"/></radialGradient><ellipse cx="122.3" cy="83.1" rx="36.2" ry="34.2" fill="url(#SVGID_1_)"/></g><g id="Layer_5"><radialGradient id="SVGID_2_" cx="37.528" cy="20.288" r="28.597" gradientUnits="userSpaceOnUse"><stop offset=".01" stop-color="#fd5561"/><stop offset=".191" stop-color="#f9455f"/><stop offset="1" stop-color="#e90054"/></radialGradient><path d="M13 38.3l10.1-10.1c.3-.3.8-.3 1.2 0l10.5 10.1c.2.2.4.2.6.2h9.3c.8 0 1.1-.9.6-1.4L30.1 22.4c-.3-.3-.3-.9 0-1.2l7.6-7.6c.3-.3.9-.3 1.2 0l24.6 24.6c.2.2.5.3.7.3h8.3c.9 0 1.4-1.1.7-1.8l-34.4-34c-.8-.8-2-.8-2.8 0L1.7 37.1c-.5.5-.2 1.4.6 1.4h10.2c.2 0 .4-.1.5-.2z" fill="url(#SVGID_2_)"/><linearGradient id="SVGID_3_" gradientUnits="userSpaceOnUse" x1="-205.946" y1="396.099" x2="-206.05" y2="395.896" gradientTransform="matrix(310 0 0 -310 64055.195 122790.656)"><stop offset="0" stop-color="#ca4a4c"/><stop offset="1" stop-color="#fd5f61"/></linearGradient><path fill="url(#SVGID_3_)" d="M164.4 62.9h62.9V0h-62.9z"/><path class="st3" d="M175.7 33.5h8.8v2.8H179v2.9h5.1V42H179v4.9h-3.3zM186.1 33.5h3.2v8.3c0 1.8.9 2.5 2 2.4 1.2 0 2-.6 2-2.4v-8.3h3.2v8.9c0 3.1-2.4 4.9-5.3 4.9-3.1 0-5.3-1.9-5.3-4.9v-8.9zM198.3 33.5h8.9v2.8h-5.7v2.5h5.3v2.8h-5.3V44h5.9v2.9h-9.1zM208.8 33.5h3.3V44h5.9v2.9h-9.2zM181.8 30.2l5.3-5.2 5.5 5.2h5.7l-8.3-8.1 4.2-4.2 12.4 12.3h5.5l-18.3-18-18.1 18z"/></g></svg>