<svg enable-background="new 0 0 75 75" viewBox="0 0 75 75" xmlns="http://www.w3.org/2000/svg" xmlns:xlink="http://www.w3.org/1999/xlink"><radialGradient id="a" cx="97.2688" cy="72.2969" gradientTransform="matrix(1.419 0 0 1.1882 -15.7555 -2.808)" gradientUnits="userSpaceOnUse" r="27.2119"><stop offset=".02049309" stop-color="#233091"/><stop offset="1" stop-color="#372b8b"/><stop offset="1" stop-color="#e90054"/></radialGradient><radialGradient id="b" cx="37.5277" cy="20.2875" gradientUnits="userSpaceOnUse" r="28.597"><stop offset=".009559517" stop-color="#fd5561"/><stop offset=".1913" stop-color="#f9455f"/><stop offset="1" stop-color="#e90054"/></radialGradient><linearGradient id="c" gradientTransform="matrix(310 0 0 -310 64055.1953 122790.6562)" gradientUnits="userSpaceOnUse" x1="-205.9458" x2="-206.0503" y1="396.0987" y2="395.8957"><stop offset="0" stop-color="#ca4a4c"/><stop offset="1" stop-color="#fd5f61"/></linearGradient><ellipse cx="122.3" cy="83.1" fill="url(#a)" rx="36.2" ry="34.2"/><path d="m13 38.3 10.1-10.1c.3-.3.8-.3 1.2 0l10.5 10.1c.2.2.4.2.6.2h9.3c.8 0 1.1-.9.6-1.4l-15.2-14.7c-.3-.3-.3-.9 0-1.2l7.6-7.6c.3-.3.9-.3 1.2 0l24.6 24.6c.2.2.5.3.7.3h8.3c.9 0 1.4-1.1.7-1.8l-34.4-34c-.8-.8-2-.8-2.8 0l-34.3 34.4c-.5.5-.2 1.4.6 1.4h10.2c.2 0 .4-.1.5-.2z" fill="url(#b)"/><path d="m164.4 62.9h62.9v-62.9h-62.9z" fill="url(#c)"/><g fill="#fff"><path d="m175.7 33.5h8.8v2.8h-5.5v2.9h5.1v2.8h-5.1v4.9h-3.3z"/><path d="m186.1 33.5h3.2v8.3c0 1.8.9 2.5 2 2.4 1.2 0 2-.6 2-2.4v-8.3h3.2v8.9c0 3.1-2.4 4.9-5.3 4.9-3.1 0-5.3-1.9-5.3-4.9v-8.9z"/><path d="m198.3 33.5h8.9v2.8h-5.7v2.5h5.3v2.8h-5.3v2.4h5.9v2.9h-9.1z"/><path d="m208.8 33.5h3.3v10.5h5.9v2.9h-9.2z"/><path d="m181.8 30.2 5.3-5.2 5.5 5.2h5.7l-8.3-8.1 4.2-4.2 12.4 12.3h5.5l-18.3-18-18.1 18z"/></g></svg>