<svg xmlns="http://www.w3.org/2000/svg" viewBox="0 0 64 80" x="0px" y="0px"><g><rect x="32" y="54" width="2" height="2"/><rect x="32" y="54" width="2" height="2"/><path d="M28,48.86V43.38a1.012,1.012,0,0,0-.56-.9l-4.81-2.34-3.8-5.69a1.03,1.03,0,0,0-1.66,0l-3.8,5.69-1.42.69-8.46-4.7A1,1,0,0,0,2.2,37.6L8,45.33v7.29a1.012,1.012,0,0,0,.56.9l9,4.38a1.018,1.018,0,0,0,.88,0l3.81-1.86,6.61.95a1,1,0,0,0,1.1-1.26ZM18,54a6,6,0,1,1,6-6A6.006,6.006,0,0,1,18,54Z"/><path d="M28,48.86V43.38a1.012,1.012,0,0,0-.56-.9l-4.81-2.34-3.8-5.69a1.03,1.03,0,0,0-1.66,0l-3.8,5.69-1.42.69-8.46-4.7A1,1,0,0,0,2.2,37.6L8,45.33v7.29a1.012,1.012,0,0,0,.56.9l9,4.38a1.018,1.018,0,0,0,.88,0l3.81-1.86,6.61.95a1,1,0,0,0,1.1-1.26ZM18,54a6,6,0,1,1,6-6A6.006,6.006,0,0,1,18,54Z"/><circle cx="18" cy="48" r="4"/><circle cx="18" cy="48" r="4"/><path d="M61.75,25.34a.99.99,0,0,0-.89-.33l-6.59.94-3.42-5.48a1.022,1.022,0,0,0-.82-.47,1.037,1.037,0,0,0-.84.42l-4.24,5.92-4.39,2.14a1.012,1.012,0,0,0-.56.9V36.7l-3.83,5.75a1,1,0,0,0,1.22,1.47l6.5-2.78,1.48.72,3.8,5.69a.99.99,0,0,0,1.66,0l3.8-5.69,4.81-2.34a1.012,1.012,0,0,0,.56-.9V33.14l1.96-6.87A.992.992,0,0,0,61.75,25.34ZM50,40a6,6,0,1,1,6-6A6.006,6.006,0,0,1,50,40Z"/><path d="M61.75,25.34a.99.99,0,0,0-.89-.33l-6.59.94-3.42-5.48a1.022,1.022,0,0,0-.82-.47,1.037,1.037,0,0,0-.84.42l-4.24,5.92-4.39,2.14a1.012,1.012,0,0,0-.56.9V36.7l-3.83,5.75a1,1,0,0,0,1.22,1.47l6.5-2.78,1.48.72,3.8,5.69a.99.99,0,0,0,1.66,0l3.8-5.69,4.81-2.34a1.012,1.012,0,0,0,.56-.9V33.14l1.96-6.87A.992.992,0,0,0,61.75,25.34ZM50,40a6,6,0,1,1,6-6A6.006,6.006,0,0,1,50,40Z"/><circle cx="50" cy="34" r="4"/><circle cx="50" cy="34" r="4"/><path d="M37.77,25.64a.992.992,0,0,0,.06-1.19L34,18.7V11.38a1.012,1.012,0,0,0-.56-.9l-9-4.38a1.042,1.042,0,0,0-.88,0L19.75,7.96l-6.61-.95a1,1,0,0,0-1.1,1.26L14,15.14v5.48a1.012,1.012,0,0,0,.56.9l4.81,2.34,3.8,5.69a.99.99,0,0,0,1.66,0l3.8-5.69,1.48-.72,6.5,2.78A1,1,0,0,0,37.77,25.64ZM24,22a6,6,0,1,1,6-6A6.006,6.006,0,0,1,24,22Z"/><path d="M37.77,25.64a.992.992,0,0,0,.06-1.19L34,18.7V11.38a1.012,1.012,0,0,0-.56-.9l-9-4.38a1.042,1.042,0,0,0-.88,0L19.75,7.96l-6.61-.95a1,1,0,0,0-1.1,1.26L14,15.14v5.48a1.012,1.012,0,0,0,.56.9l4.81,2.34,3.8,5.69a.99.99,0,0,0,1.66,0l3.8-5.69,1.48-.72,6.5,2.78A1,1,0,0,0,37.77,25.64ZM24,22a6,6,0,1,1,6-6A6.006,6.006,0,0,1,24,22Z"/><circle cx="24" cy="16" r="4"/><circle cx="24" cy="16" r="4"/><rect x="34" y="52" width="2" height="2"/><rect x="34" y="52" width="2" height="2"/><rect x="28" y="34" width="2" height="2"/><rect x="28" y="34" width="2" height="2"/><rect x="34" y="38" width="2" height="2"/><rect x="34" y="38" width="2" height="2"/><rect x="48" y="8" width="2" height="2"/><rect x="48" y="8" width="2" height="2"/><rect x="46" y="12" width="2" height="2"/><rect x="46" y="12" width="2" height="2"/><rect x="8" y="30" width="2" height="2"/><rect x="8" y="30" width="2" height="2"/><rect x="14" y="26" width="2" height="2"/><rect x="14" y="26" width="2" height="2"/></g><text x="0" y="79" fill="#000000" font-size="5px" font-weight="bold" font-family="'Helvetica Neue', Helvetica, Arial-Unicode, Arial, Sans-serif">Created by Smalllike</text><text x="0" y="84" fill="#000000" font-size="5px" font-weight="bold" font-family="'Helvetica Neue', Helvetica, Arial-Unicode, Arial, Sans-serif">from the Noun Project</text></svg>