<svg id="Layer_5" data-name="Layer 5" xmlns="http://www.w3.org/2000/svg" viewBox="0 0 102.92 80.96"><defs><style>.cls-1{fill:#e6e9ed}.cls-2{fill:#6591e3}.cls-3{fill:#fc6e51}</style></defs><path class="cls-1" d="M24.11 36.89l8.84-5.11c1.48 3.44-.47 14.83-4.84 18.82l-6.75 1.94 2.63-11-1.65-3.63z"/><path class="cls-2" d="M21.36 52.55L19 62.31l-5 1.16-1.08-17 11-4.95z"/><path class="cls-2" d="M22.33 37.91L24 41.54l-11 4.95L2.14 34.94l4.19-3 8 3z"/><path class="cls-3" d="M24.11 36.89l-1.78 1-8-3L16 26.53l4.51.16zM72.79 29.49c1.52-.68 3.68.79 4.82 3.3s.83 5.09-.7 5.77-3.68-.79-4.82-3.3-.83-5.09.7-5.77z"/><path class="cls-1" d="M81.47 7.06L95 7.55a8.87 8.87 0 012.79.54c2.85 1.06 4.73 3.66 3.17 7.71-2 5.28-23.3 17-23.3 17-1.14-2.5-3.39-3.94-4.82-3.3L48 38.4l.44 6.33-11.6 3.34-.08-.27c3.33-4.74 4.73-16.1 1.37-19l4.4-2.53 20-11.56 10.72-6.16c2.58-1.47 5.26-1.55 8.22-1.49z"/><path class="cls-2" d="M52.52 12.38l6.7-3 3.4 5.3-20 11.56-.31-.54L28.37 2.45l9.52-1zM72.8 29.49c-1.44.64-1.84 3.27-.7 5.77s3.39 3.94 4.82 3.3l-11 4.95-.48-.07-4.89 29.75-9.71 5.44-2.36-33.9L48 38.4z"/><path d="M38.18 28.77c3.36 2.94 2 14.3-1.37 19l.08.27-8.78 2.53c4.37-4 6.32-15.37 4.84-18.82z" fill="#fcd770"/><path d="M102.26 16.29c1.26-3.27.48-5.5-.39-6.8A8.49 8.49 0 0095 6.15l-13.47-.5c-2.76-.1-6-.06-9 1.68l-9.44 5.44-3.33-5.19-7.05 3.16L38.3 0 26 1.28l14.62 24.45-15.73 9.07-3.3-9.48-6.7-.24-1.62 8-7.14-2.69L0 34.73l11.54 12.35 1.15 18.14 7.52-1.73 2.34-9.81 24.63-7.11L49.56 81l12.28-6.88 4.8-29.37 10.87-4.87c2-.88 2.69-3.6 1.87-6.42 4.7-2.64 20.93-12.06 22.88-17.13zm-43.59-5.13l1.95 3-1.85 1.06-3.47-2.55zM30.73 3.62l6.75-.7L56.1 16.81l-13 7.5zM35.66 47l-4 1.16c2.54-4.78 3.72-11.76 2.92-15.64l3.23-1.86c1.74 3.18.71 12.19-2.15 16.34zM17.2 28l2.32.08 2.85 8.19-.17.1L16 34zM4.29 35.15l2.25-1.6L21.27 39l.83 1.81-8.81 3.95zm11 26.57l-.91-14.36L21.93 44l-4.09 17.14zm10.19-20.33l-1.32-2.91L32 34a21.9 21.9 0 01-.46 5.89c-.81 4.14-2.4 7.73-4.16 9.49l-4 1.17zm13.95 4.48c2.13-5 3-12.73.85-16.68L74 9.77c2.14-1.23 4.44-1.4 7.45-1.29l4.66.17a11.11 11.11 0 01-.87 4.35 1.4 1.4 0 00.83 1.81 1.44 1.44 0 001.84-.81 14.57 14.57 0 001-5.24l6 .22a5.68 5.68 0 014.59 2.09 4.49 4.49 0 01.1 4.25c-1.28 3.32-13.33 11-21.43 15.57-1.59-2.34-4-3.52-5.85-2.71l-25.78 9.26.46 6.25zM59.25 72.3l-7.15 4-2.56-37 16-5.77zm7.94-30.92l1.45-8.9L70 32a8.22 8.22 0 00.75 3.87 8.32 8.32 0 002.25 2.9zm8-4.46a5.45 5.45 0 01-1.81-2.24 5.39 5.39 0 01-.5-2.83c.09-.67.34-1 .48-1.08.45-.2 2 .57 2.94 2.6a5.39 5.39 0 01.5 2.83c-.09.67-.34 1-.48 1.08s-.54.02-1.11-.36z"/><path d="M80.55 17.29a1.4 1.4 0 01.83 1.81 1.44 1.44 0 01-1.84.82 1.4 1.4 0 01-.83-1.81 1.44 1.44 0 011.84-.82zM75 19.76a1.4 1.4 0 01.83 1.81 1.44 1.44 0 01-1.83.83 1.4 1.4 0 01-.83-1.81 1.44 1.44 0 011.83-.83zM69.5 22.23a1.4 1.4 0 01.83 1.77 1.44 1.44 0 01-1.84.82 1.4 1.4 0 01-.83-1.81 1.44 1.44 0 011.84-.78z"/></svg>