<svg id="Layer_5" data-name="Layer 5" xmlns="http://www.w3.org/2000/svg" viewBox="0 0 102.92 80.96"><defs><style>.cls-1{fill:#e6e9ed;}.cls-2{fill:#6591e3;}.cls-3{fill:#fc6e51;}.cls-4{fill:#fcd770;}</style></defs><title>plane</title><path class="cls-1" d="M24.11,36.89l8.84-5.11c1.48,3.44-.47,14.83-4.84,18.82l-6.75,1.94,2.63-11-1.65-3.63Z"/><path class="cls-2" d="M21.36,52.55,19,62.31l-5,1.16-1.08-17,11-4.95Z"/><path class="cls-2" d="M22.33,37.91,24,41.54l-11,4.95L2.14,34.94l4.19-3,8,3Z"/><path class="cls-3" d="M24.11,36.89l-1.78,1-8-3L16,26.53l4.51.16Z"/><path class="cls-3" d="M72.79,29.49c1.52-.68,3.68.79,4.82,3.3s.83,5.09-.7,5.77-3.68-.79-4.82-3.3S71.26,30.17,72.79,29.49Z"/><path class="cls-1" d="M81.47,7.06,95,7.55a8.87,8.87,0,0,1,2.79.54c2.85,1.06,4.73,3.66,3.17,7.71-2,5.28-23.3,17-23.3,17-1.14-2.5-3.39-3.94-4.82-3.3L48,38.4l.44,6.33-11.6,3.34-.08-.27c3.33-4.74,4.73-16.1,1.37-19l4.4-2.53,20-11.56L73.25,8.55C75.83,7.08,78.51,7,81.47,7.06Z"/><path class="cls-2" d="M52.52,12.38l6.7-3,3.4,5.3-20,11.56-.31-.54L28.37,2.45l9.52-1Z"/><path class="cls-2" d="M72.8,29.49c-1.44.64-1.84,3.27-.7,5.77s3.39,3.94,4.82,3.3l-11,4.95-.48-.07L60.55,73.19l-9.71,5.44L48.48,44.73,48,38.4Z"/><path class="cls-4" d="M38.18,28.77c3.36,2.94,2,14.3-1.37,19l.08.27-8.78,2.53c4.37-4,6.32-15.37,4.84-18.82Z"/><path d="M102.26,16.29c1.26-3.27.48-5.5-.39-6.8A8.49,8.49,0,0,0,95,6.15L81.53,5.65c-2.76-.1-6-.06-9,1.68l-9.44,5.44L59.76,7.58l-7.05,3.16L38.3,0,26,1.28,40.62,25.73,24.89,34.8l-3.3-9.48-6.7-.24-1.62,8L6.13,30.39,0,34.73,11.54,47.08l1.15,18.14,7.52-1.73,2.34-9.81,24.63-7.11L49.56,81l12.28-6.88,4.8-29.37,10.87-4.87c2-.88,2.69-3.6,1.87-6.42,4.7-2.64,20.93-12.06,22.88-17.13ZM58.67,11.16l1.95,3-1.85,1.06L55.3,12.67ZM30.73,3.62l6.75-.7L56.1,16.81l-13,7.5ZM35.66,47l-4,1.16c2.54-4.78,3.72-11.76,2.92-15.64l3.23-1.86C39.55,33.84,38.52,42.85,35.66,47ZM17.2,28l2.32.08,2.85,8.19-.17.1L16,34ZM4.29,35.15l2.25-1.6L21.27,39l.83,1.81-8.81,3.95Zm11,26.57-.91-14.36L21.93,44,17.84,61.14ZM25.48,41.39l-1.32-2.91L32,34a21.9,21.9,0,0,1-.46,5.89c-.81,4.14-2.4,7.73-4.16,9.49l-4,1.17Zm13.95,4.48c2.13-5,3-12.73.85-16.68L74,9.77c2.14-1.23,4.44-1.4,7.45-1.29l4.66.17A11.11,11.11,0,0,1,85.24,13a1.4,1.4,0,0,0,.83,1.81h0A1.44,1.44,0,0,0,87.91,14a14.57,14.57,0,0,0,1-5.24l6,.22a5.68,5.68,0,0,1,4.59,2.09,4.49,4.49,0,0,1,.1,4.25c-1.28,3.32-13.33,11-21.43,15.57-1.59-2.34-4-3.52-5.85-2.71L46.54,37.44,47,43.69ZM59.25,72.3l-7.15,4-2.56-37,16-5.77Zm7.94-30.92,1.45-8.9L70,32a8.22,8.22,0,0,0,.75,3.87A8.32,8.32,0,0,0,73,38.77Zm8-4.46a5.45,5.45,0,0,1-1.81-2.24,5.39,5.39,0,0,1-.5-2.83c.09-.67.34-1,.48-1.08.45-.2,2,.57,2.94,2.6a5.39,5.39,0,0,1,.5,2.83c-.09.67-.34,1-.48,1.08S75.78,37.3,75.21,36.92Z"/><path d="M80.55,17.29a1.4,1.4,0,0,1,.83,1.81,1.44,1.44,0,0,1-1.84.82,1.4,1.4,0,0,1-.83-1.81A1.44,1.44,0,0,1,80.55,17.29Z"/><path d="M75,19.76a1.4,1.4,0,0,1,.83,1.81A1.44,1.44,0,0,1,74,22.4a1.4,1.4,0,0,1-.83-1.81A1.44,1.44,0,0,1,75,19.76Z"/><path d="M69.5,22.23A1.4,1.4,0,0,1,70.33,24a1.44,1.44,0,0,1-1.84.82,1.4,1.4,0,0,1-.83-1.81A1.44,1.44,0,0,1,69.5,22.23Z"/></svg>