<?xml version="1.0" encoding="utf-8"?>
<!-- Generator: Adobe Illustrator 21.1.0, SVG Export Plug-In . SVG Version: 6.00 Build 0)  -->
<svg version="1.1" id="Capa_1" xmlns="http://www.w3.org/2000/svg" xmlns:xlink="http://www.w3.org/1999/xlink" x="0px" y="0px"
	 viewBox="0 0 512 512" style="enable-background:new 0 0 512 512;" xml:space="preserve">
<g>
	<g>
		<path d="M142.5,191.8c-19.9,0-38.9-7.3-53.7-20.5c-9.9,7.8-22.2,12.1-34.9,12.1c-15.5,0-29.9-6.1-40.6-17.3
			C2.6,154.9-3,140.1-2.4,124.6c1.1-30.1,25.5-54,55.5-54.4c6.2-0.1,12.2,0.8,18,2.7c14-26.4,41.1-42.9,71.3-43.1
			c10.5-0.1,20.7,1.9,30.2,5.7c5.1,2.1,7.6,7.9,5.6,13c-2.1,5.1-7.9,7.6-13,5.6c-7.2-2.9-14.8-4.3-22.7-4.2
			c-23.8,0.1-44.8,13.5-55,34.8c-3.6,7.6-12.6,11.2-20.4,8.1c-4.4-1.7-9.1-2.6-13.9-2.5c-19,0.3-35.1,16-35.8,35.1
			c-0.4,10.1,3.2,19.6,10.2,26.9c6.9,7.2,16.2,11.1,26.2,11.1c9,0,17.6-3.3,24.3-9.3c6.3-5.6,15.9-5.4,21.9,0.5
			c11.4,11.1,26.5,17.3,42.4,17.3c15.9,0,31-6.1,42.4-17.3c6-5.9,15.7-6.1,21.9-0.5c6.7,6,15.3,9.3,24.3,9.3
			c15.9,0,30.2-10.6,34.8-25.9c0.1-0.3,0.2-0.6,0.3-0.9c1-3.6,1.4-7.4,1.3-11.2c-0.7-19.1-16.8-34.9-35.8-35.1
			c-4.8-0.1-9.5,0.8-13.9,2.5c-7.7,3.1-16.7-0.5-20.3-8c-2.7-5.5-6-10.5-10-14.9c-1.8-2-2.7-4.6-2.5-7.2c0.2-2.7,1.3-5.1,3.3-6.9
			c2-1.8,4.6-2.7,7.2-2.5c2.7,0.2,5.1,1.3,6.9,3.3c4.4,5,8.3,10.5,11.5,16.4c5.1-1.6,10.3-2.5,15.7-2.7c9-19.7,29.1-33,50.6-33.3
			c6.2-0.1,12.3,0.8,18,2.7C312,13.3,339.8-3.5,369.5-3.5c29.7,0,57.5,16.8,71.4,43.1c5.8-1.9,11.9-2.8,18-2.7
			c30,0.4,54.4,24.3,55.5,54.4c0.6,15.6-5,30.3-15.8,41.5c-10.7,11.1-25.1,17.3-40.6,17.3c-12.7,0-24.9-4.3-34.8-12.1
			c-14.8,13.3-33.8,20.5-53.7,20.5c-19.9,0-38.9-7.3-53.7-20.5c-9.5,7.5-21.1,11.7-33.2,12.1c-9.1,20.3-29.1,33.3-51.5,33.3
			c-12.7,0-24.9-4.3-34.9-12.1C181.4,184.5,162.5,191.8,142.5,191.8z M89,164.6l1.6,1.5c14.1,13.3,32.5,20.7,51.9,20.7
			c19.4,0,37.8-7.3,51.9-20.7l1.6-1.5l1.7,1.5c9.3,7.9,21.1,12.3,33.3,12.3c20.8,0,39.5-12.5,47.5-31.7l0.6-1.5h1.7
			c12.2,0,24-4.4,33.3-12.3l1.7-1.5l1.6,1.5c14.1,13.3,32.5,20.7,51.9,20.7c19.4,0,37.8-7.3,51.9-20.7l1.6-1.5l1.7,1.5
			c9.3,7.9,21.1,12.3,33.3,12.3c14.1,0,27.2-5.6,37-15.7c9.8-10.2,14.9-23.6,14.4-37.9c-1-27.4-23.3-49.2-50.6-49.6
			c-6.3-0.1-12.5,0.9-18.4,3.1l-2.1,0.8l-1-2C424.7,18.1,398,1.5,369.5,1.5c-28.5,0-55.2,16.6-67.9,42.3l-1,2l-2.1-0.8
			c-5.8-2.1-12-3.2-18.4-3.1c-20.1,0.3-38.8,13-46.7,31.7l-0.6,1.5l-1.7,0c0,0-0.1,0-0.1,0c-6,0-11.9,1-17.5,3.1l-2.1,0.8l-1-2
			c-3.2-6.3-7.1-12.1-11.7-17.3c-0.9-1-2.1-1.6-3.4-1.7c-1.3-0.1-2.6,0.4-3.6,1.3c-1,0.9-1.6,2.1-1.7,3.4c-0.1,1.3,0.4,2.6,1.3,3.6
			c4.3,4.8,7.9,10.2,10.7,16.1c2.5,5.2,8.7,7.6,14,5.5c5-2,10.3-3,15.8-2.9c21.7,0.3,39.9,18.2,40.8,40c0.2,4.4-0.3,8.7-1.5,12.8
			l-0.1,0.2c-0.1,0.2-0.1,0.4-0.2,0.5l0,0.2c-5.2,17.4-21.5,29.5-39.7,29.5c-10.2,0-20-3.8-27.6-10.6c-4.3-3.9-10.9-3.7-15.1,0.3
			c-12.3,12.1-28.6,18.7-45.9,18.7c-17.2,0-33.5-6.6-45.9-18.7c-4.2-4.1-10.8-4.2-15.1-0.3c-7.6,6.8-17.4,10.6-27.6,10.6
			c-11.3,0-21.9-4.5-29.8-12.7c-7.9-8.2-12-19.1-11.6-30.5c0.8-21.7,19.1-39.6,40.8-40c5.5-0.1,10.8,0.9,15.8,2.9
			c5.4,2.1,11.5-0.3,14-5.6c10.9-23.1,33.7-37.5,59.4-37.7c8.5,0,16.8,1.5,24.6,4.6c2.6,1,5.5-0.2,6.5-2.8c0.5-1.2,0.5-2.6,0-3.8
			c-0.5-1.2-1.5-2.2-2.7-2.7c-9-3.6-18.5-5.4-28.4-5.3C113.4,35,87.4,51.1,74.6,77l-1,2l-2.1-0.8c-5.9-2.1-12-3.2-18.4-3.1
			C25.8,75.6,3.6,97.3,2.6,124.7C2,139,7.1,152.4,16.9,162.6c9.8,10.1,22.9,15.7,37,15.7c12.2,0,24-4.4,33.3-12.3L89,164.6z
			 M369.5,143.5c-17.2,0-33.5-6.6-45.9-18.7c-4.2-4.1-10.8-4.2-15.1-0.3c-6.6,5.9-14.8,9.5-23.6,10.4l-3,0.3l0.3-3
			c0.2-2.4,0.3-4.9,0.2-7.4c-0.8-22-15.5-41.1-36.5-47.4l-2.9-0.9l1.5-2.7c7.2-13.3,20.9-21.7,35.8-21.9c5.5-0.1,10.8,0.9,15.8,2.9
			c5.4,2.1,11.5-0.3,14-5.6c10.9-22.9,34.2-37.7,59.4-37.7s48.6,14.8,59.4,37.7c2.5,5.2,8.6,7.7,14,5.6c5-2,10.3-2.9,15.8-2.9
			c21.7,0.3,40,18.2,40.8,39.9c0.4,11.5-3.7,22.3-11.6,30.5c-7.9,8.2-18.5,12.7-29.8,12.7c-10.2,0-20-3.8-27.6-10.6
			c-4.3-3.9-10.9-3.7-15.1,0.3C403,136.9,386.7,143.5,369.5,143.5z M315.9,116.6c4.1,0,8.1,1.5,11.2,4.6
			c11.4,11.1,26.4,17.3,42.4,17.3c15.9,0,31-6.1,42.4-17.3c6-5.9,15.7-6.1,21.9-0.5c6.7,6,15.3,9.3,24.3,9.3c10,0,19.3-4,26.2-11.2
			c7-7.2,10.6-16.8,10.2-26.9c-0.7-19.1-16.8-34.9-35.8-35.1c-4.8-0.1-9.5,0.8-13.9,2.5c-7.8,3.1-16.7-0.5-20.4-8.1
			c-10-21.2-31.6-34.8-54.9-34.8c-23.3,0-44.9,13.7-54.9,34.8c-3.6,7.6-12.6,11.2-20.4,8.1c-4.4-1.7-9-2.6-13.9-2.5
			c-12.1,0.2-23.3,6.5-29.9,16.7c21.4,7.8,36.2,27.9,37,51c0.1,1.6,0.1,3.3,0,4.9c6.6-1.2,12.7-4.2,17.7-8.7
			C308.2,118,312.1,116.6,315.9,116.6z"/>
		<path d="M142.5,194.3c-19.8,0-38.8-7-53.8-19.8c-10,7.3-22.3,11.4-34.7,11.4c-16.1,0-31.2-6.4-42.4-18
			C0.3,156.1-5.6,140.7-4.9,124.5c1.2-31.4,26.7-56.3,58-56.8c5.7-0.1,11.4,0.6,16.9,2.2c14.6-26.1,42.2-42.4,72.5-42.6
			c10.8-0.1,21.3,1.9,31.2,5.9c3.1,1.2,5.5,3.6,6.8,6.7c1.3,3.1,1.4,6.5,0.1,9.6c-1.2,3.1-3.6,5.5-6.7,6.8c-3.1,1.3-6.5,1.4-9.6,0.1
			c-6.8-2.7-14.2-4.1-21.7-4.1c-22.8,0.1-43,12.9-52.7,33.4c-4.2,8.8-14.5,12.9-23.5,9.3c-4.1-1.6-8.5-2.4-12.9-2.3
			c-17.7,0.3-32.7,14.9-33.4,32.7c-0.4,9.4,3,18.3,9.5,25c6.4,6.7,15.1,10.4,24.4,10.4c8.4,0,16.4-3.1,22.6-8.7
			c7.2-6.5,18.4-6.3,25.4,0.5c10.9,10.7,25.4,16.6,40.6,16.6c15.3,0,29.7-5.9,40.6-16.6c7-6.8,18.1-7.1,25.4-0.5
			c6.2,5.6,14.2,8.7,22.6,8.7c14.8,0,28.1-9.9,32.4-24c0.1-0.3,0.2-0.7,0.3-1c0.9-3.3,1.3-6.8,1.2-10.4
			c-0.7-17.8-15.6-32.5-33.4-32.7c-4.5-0.1-8.8,0.7-12.9,2.3c-9,3.5-19.3-0.5-23.5-9.3c-2.6-5.3-5.8-10.1-9.6-14.4
			c-2.2-2.5-3.3-5.7-3.2-9c0.2-3.3,1.7-6.4,4.2-8.6c2.5-2.2,5.7-3.3,9-3.2c3.3,0.2,6.4,1.7,8.6,4.2c4.1,4.6,7.7,9.7,10.8,15.1
			c4.2-1.2,8.5-1.9,12.8-2.1c9.6-19.7,30.4-33,52.1-33.3c5.8-0.1,11.4,0.7,16.9,2.2C311.5,10.7,339.8-6,369.5-6
			c29.7,0,58,16.7,72.6,42.6c5.5-1.6,11.1-2.3,16.9-2.2c31.3,0.4,56.8,25.4,58,56.8c0.6,16.3-5.2,31.7-16.5,43.3
			c-11.2,11.6-26.2,18-42.4,18c-12.4,0-24.7-4-34.7-11.4c-15,12.8-34.1,19.8-53.8,19.8s-38.8-7-53.8-19.8
			c-9.1,6.7-20.2,10.6-31.5,11.3c-9.8,20.3-30.5,33.4-53.1,33.4c-12.5,0-24.7-4-34.7-11.4C181.3,187.3,162.3,194.3,142.5,194.3z
			 M142.5,189.3c0,0,0.1,0,0.1,0C142.5,189.3,142.5,189.3,142.5,189.3z M142.4,189.3C142.4,189.3,142.4,189.3,142.4,189.3
			C142.4,189.3,142.4,189.3,142.4,189.3z M142.6,189.3C142.6,189.3,142.6,189.3,142.6,189.3C142.6,189.3,142.6,189.3,142.6,189.3z
			 M142.3,189.3C142.4,189.3,142.4,189.3,142.3,189.3C142.4,189.3,142.4,189.3,142.3,189.3z M142.7,189.3
			C142.7,189.3,142.7,189.3,142.7,189.3C142.7,189.3,142.7,189.3,142.7,189.3z M89.1,161.2l3.3,3.1c13.6,12.9,31.5,20,50.2,20
			c18.7,0,36.6-7.1,50.2-20l3.3-3.1l3.4,2.9c8.8,7.5,20.1,11.7,31.7,11.7c19.8,0,37.6-11.9,45.2-30.2l1.3-3.1h3.3
			c11.6,0,22.9-4.2,31.7-11.7l3.4-2.9l3.3,3.1c13.6,12.9,31.5,20,50.2,20c18.7,0,36.6-7.1,50.2-20l3.3-3.1l3.4,2.9
			c8.8,7.5,20.1,11.7,31.7,11.7c13.4,0,25.9-5.3,35.2-15c9.3-9.7,14.2-22.5,13.7-36c-1-26.1-22.1-46.8-48.2-47.2
			c-6-0.1-11.9,0.9-17.5,2.9l-4.2,1.5l-2-4C422.9,20,397.1,4,369.5,4c-27.6,0-53.4,16-65.6,40.9l-2,4l-4.2-1.5
			c-5.6-2-11.5-3-17.5-2.9c-19.1,0.3-36.9,12.4-44.4,30.2l-1.3,3.1l-3.4,0c-5.7,0-11.3,1-16.7,3l-4.2,1.5l-2-4
			c-3.1-6.1-6.9-11.8-11.4-16.8c-0.4-0.5-1.1-0.8-1.7-0.8c-0.7,0-1.3,0.2-1.8,0.6c-0.5,0.4-0.8,1.1-0.8,1.7c0,0.7,0.2,1.3,0.6,1.8
			c4.4,5,8.2,10.6,11.1,16.7c2,4,6.7,5.9,10.8,4.3c5.3-2.1,11-3.1,16.7-3c23,0.3,42.4,19.3,43.2,42.4c0.2,4.6-0.3,9.2-1.6,13.6
			l-0.1,0.3c-0.1,0.2-0.1,0.2-0.1,0.3l-0.1,0.3c-5.6,18.5-22.9,31.4-42.1,31.4c-10.8,0-21.2-4-29.3-11.2c-3.3-3-8.5-2.9-11.7,0.3
			c-12.8,12.5-29.7,19.4-47.6,19.4c-17.9,0-34.8-6.9-47.6-19.4c-3.2-3.1-8.3-3.3-11.7-0.3c-8.1,7.2-18.5,11.2-29.3,11.2
			c-12,0-23.2-4.8-31.6-13.4C14,148.7,9.6,137.2,10.1,125c0.9-23,20.3-42,43.2-42.4c5.8-0.1,11.4,0.9,16.7,3
			c4.1,1.6,8.9-0.3,10.8-4.3c11.4-24,35-39,61.7-39.1c8.9-0.1,17.5,1.6,25.5,4.8c1.3,0.5,2.7-0.1,3.3-1.4c0.3-0.6,0.2-1.3,0-1.9
			c-0.3-0.6-0.7-1.1-1.4-1.3c-8.7-3.5-17.9-5.2-27.4-5.2c-28.1,0.2-53.3,15.8-65.6,40.9l-2,4l-4.2-1.5c-5.6-2-11.4-3-17.5-2.9
			C27.2,78.1,6,98.8,5.1,124.8c-0.5,13.5,4.4,26.3,13.7,36c9.3,9.6,21.8,15,35.2,15c11.6,0,22.9-4.2,31.7-11.7L89.1,161.2z
			 M231.1,180.8C231.1,180.8,231.1,180.8,231.1,180.8C231.1,180.8,231.1,180.8,231.1,180.8z M10.8,159.2c1.3,1.8,2.8,3.5,4.3,5.1
			c10.2,10.6,24,16.5,38.8,16.5c0,0,0,0,0,0c0,0,0,0,0,0c-14.8,0-28.5-5.9-38.8-16.5C13.6,162.7,12.1,161,10.8,159.2z M54,180.8
			C54,180.8,54,180.8,54,180.8C54,180.8,54,180.8,54,180.8z M231,180.8C231,180.8,231,180.8,231,180.8
			C231,180.8,231,180.8,231,180.8z M54,180.8C54,180.8,54,180.8,54,180.8C54,180.8,54,180.8,54,180.8z M231,180.8
			C231,180.8,231,180.8,231,180.8C231,180.8,231,180.8,231,180.8z M88.9,168l1.6,1.4c0.3,0.3,0.7,0.6,1,0.9
			C90.6,169.5,89.7,168.7,88.9,168L88.9,168c-0.8,0.6-1.6,1.3-2.4,1.9c0.2-0.2,0.5-0.4,0.7-0.6L88.9,168z M196.1,168l1.6,1.3
			c0.3,0.2,0.6,0.4,0.8,0.6C197.8,169.3,197,168.6,196.1,168c-0.5,0.4-1,0.9-1.5,1.3L196.1,168z M86.5,169.9
			C86.5,169.9,86.5,169.9,86.5,169.9C86.5,169.9,86.5,169.9,86.5,169.9z M88.9,152.4c3.4,0,6.9,1.3,9.5,3.9
			c4.4,4.3,9.4,7.9,14.7,10.8c-5.3-2.8-10.3-6.4-14.7-10.8c-5.1-5-13.2-5.2-18.5-0.4c-6.9,6.2-15.7,9.7-24.9,9.9
			c9.2-0.2,18-3.8,24.9-9.9C82.5,153.6,85.7,152.4,88.9,152.4z M52.9,165.8c0.3,0,0.7,0,1,0C53.6,165.8,53.2,165.8,52.9,165.8z
			 M268.4,138C268.4,138,268.4,138,268.4,138l-0.1,0.2c-4.9,16.3-20.2,27.7-37.2,27.7c17,0,32.4-11.4,37.3-27.7L268.4,138
			C268.4,138,268.4,138,268.4,138z M230.3,165.8c0.3,0,0.5,0,0.8,0C230.8,165.8,230.6,165.8,230.3,165.8z M52.4,165.8
			c0.1,0,0.2,0,0.3,0C52.6,165.8,52.5,165.8,52.4,165.8z M229.6,165.8C229.6,165.8,229.6,165.8,229.6,165.8
			C229.6,165.8,229.6,165.8,229.6,165.8z M51.8,165.8c0.1,0,0.3,0,0.4,0C52,165.8,51.9,165.8,51.8,165.8z M51.6,165.8
			c0.1,0,0.1,0,0.2,0C51.7,165.8,51.6,165.8,51.6,165.8z M51.2,165.7c0.1,0,0.2,0,0.3,0C51.4,165.7,51.3,165.7,51.2,165.7z
			 M51,165.7c0.1,0,0.1,0,0.2,0C51.1,165.7,51.1,165.7,51,165.7z M50.8,165.7c0.1,0,0.1,0,0.2,0C50.9,165.7,50.8,165.7,50.8,165.7z
			 M50.5,165.7C50.5,165.7,50.5,165.7,50.5,165.7C50.5,165.7,50.5,165.7,50.5,165.7z M50.2,165.7C50.2,165.7,50.2,165.7,50.2,165.7
			C50.2,165.7,50.2,165.7,50.2,165.7z M49.9,165.6C49.9,165.6,49.9,165.6,49.9,165.6C49.9,165.6,49.9,165.6,49.9,165.6z M49.5,165.6
			C49.5,165.6,49.6,165.6,49.5,165.6C49.6,165.6,49.5,165.6,49.5,165.6z M49.4,165.6C49.4,165.6,49.4,165.6,49.4,165.6
			C49.4,165.6,49.4,165.6,49.4,165.6z M49.1,165.5c0,0,0.1,0,0.1,0C49.2,165.5,49.2,165.5,49.1,165.5z M49.1,165.5
			C49.1,165.5,49.1,165.5,49.1,165.5C49.1,165.5,49.1,165.5,49.1,165.5z M48.7,165.5C48.8,165.5,48.8,165.5,48.7,165.5
			C48.8,165.5,48.8,165.5,48.7,165.5z M48.6,165.5C48.6,165.5,48.7,165.5,48.6,165.5C48.7,165.5,48.6,165.5,48.6,165.5z M48.4,165.4
			c0.1,0,0.1,0,0.2,0C48.5,165.5,48.4,165.4,48.4,165.4z M48.3,165.4C48.3,165.4,48.3,165.4,48.3,165.4
			C48.3,165.4,48.3,165.4,48.3,165.4z M17.9,141.5c1.8,4.6,4.6,8.8,8.1,12.4c6.1,6.3,13.8,10.3,22.3,11.5
			c-8.5-1.2-16.2-5.2-22.3-11.5C22.4,150.3,19.7,146.1,17.9,141.5z M369.4,156c0,0,0.1,0,0.1,0C369.5,156,369.5,156,369.4,156z
			 M369.6,156C369.6,156,369.6,156,369.6,156C369.6,156,369.6,156,369.6,156z M369.4,156C369.4,156,369.4,156,369.4,156
			C369.4,156,369.4,156,369.4,156z M369.7,156C369.7,156,369.7,156,369.7,156C369.7,156,369.7,156,369.7,156z M369.3,156
			C369.3,156,369.3,156,369.3,156C369.3,156,369.3,156,369.3,156z M196.1,152.4c2.7,0,5.5,0.8,7.8,2.5c-4.5-3.2-10.5-3.3-15.1-0.3
			C191,153.1,193.6,152.4,196.1,152.4z M280.9,147.5c-0.2,0.4-0.4,0.8-0.5,1.2L280.9,147.5l1.6,0c0.5,0,1,0,1.5-0.1
			C283,147.5,282,147.5,280.9,147.5L280.9,147.5z M458,147.5C458.1,147.5,458.1,147.5,458,147.5c8.5,0,16.6-1.9,23.9-5.5
			C474.6,145.6,466.5,147.5,458,147.5C458.1,147.5,458.1,147.5,458,147.5z M458,147.5C458,147.5,458,147.5,458,147.5
			C458,147.5,458,147.5,458,147.5z M458,147.5C458,147.5,458,147.5,458,147.5C458,147.5,458,147.5,458,147.5z M270,127.9
			c-0.1,3.2-0.5,6.3-1.4,9.3l0,0.2c0,0,0,0.1,0,0.1c0-0.1,0-0.1,0.1-0.2l0-0.1C269.5,134.2,269.9,131.1,270,127.9z M423.1,134.7
			l1.6,1.3c0.4,0.3,0.8,0.7,1.3,1C425.1,136.2,424.1,135.5,423.1,134.7c-0.5,0.4-0.9,0.8-1.4,1.2L423.1,134.7z M315.9,134.7
			c-0.8,0.7-1.6,1.3-2.4,2c0.3-0.2,0.5-0.4,0.8-0.6L315.9,134.7l1.5,1.4C316.8,135.6,316.3,135.1,315.9,134.7L315.9,134.7z
			 M270,127.9C270,127.9,270,127.9,270,127.9C270,127.9,270,127.9,270,127.9z M268.5,116.2C268.6,116.2,268.6,116.2,268.5,116.2
			C268.6,116.2,268.6,116.2,268.5,116.2z M237.3,88.2c14.8,2.5,27.2,13.7,31.3,28C264.4,101.9,252.1,90.6,237.3,88.2z M32.2,94.5
			C32.2,94.5,32.2,94.5,32.2,94.5C32.2,94.5,32.2,94.5,32.2,94.5z M44.5,88.9c-4.4,1.1-8.6,3.1-12.3,5.6
			C35.9,91.9,40.1,90,44.5,88.9z M69.6,90.8c5.6,1.5,11.7-0.8,14.9-5.7C81.3,90,75.3,92.4,69.6,90.8z M231.1,87.7
			c-4.3,0-8.5,0.7-12.6,2.1c4.1-1.4,8.5-2.1,13-2.1C231.3,87.7,231.2,87.7,231.1,87.7z M44.5,88.9C44.5,88.9,44.5,88.9,44.5,88.9
			C44.5,88.9,44.5,88.9,44.5,88.9z M44.5,88.9C44.5,88.9,44.5,88.9,44.5,88.9C44.5,88.9,44.5,88.9,44.5,88.9z M464.6,39.8
			c22.7,2.8,41.1,19.6,46,41.7C505.7,59.4,487.3,42.5,464.6,39.8z M87.7,79C87.7,79,87.7,79,87.7,79C87.7,79,87.7,79,87.7,79z
			 M142.7,47.3c-0.1,0-0.1,0-0.2,0C119.5,47.4,99,59.4,87.7,79c11.2-19.6,31.8-31.6,54.8-31.7C142.6,47.3,142.7,47.3,142.7,47.3z
			 M211.7,74.2c0.3,0.6,0.6,1.2,0.9,1.8c0.6-0.2,1.3-0.5,1.9-0.7l-1.9,0.6L211.7,74.2z M53.9,72.7c6.4,0,12.6,1.1,18.5,3.3
			c0.3-0.6,0.6-1.2,0.9-1.8l-0.9,1.8l-2-0.6c-5.5-1.8-11.2-2.6-17.1-2.6C53.5,72.7,53.7,72.7,53.9,72.7z M228.1,72.7
			C228.1,72.7,228.1,72.7,228.1,72.7C228.1,72.7,228.1,72.7,228.1,72.7z M231.8,71.3l-0.6,1.3l-1.6,0c-0.5,0-1,0-1.5,0.1
			c1-0.1,2-0.1,2.9-0.1h0.1C231.4,72.2,231.6,71.8,231.8,71.3z M189,58.5c-0.7,0.9-1.2,2-1.5,3.2C187.8,60.5,188.3,59.4,189,58.5z
			 M195.3,55.6C195.4,55.6,195.4,55.6,195.3,55.6c0.1,0,0.2,0,0.2,0C195.5,55.6,195.4,55.6,195.3,55.6
			C195.4,55.6,195.3,55.6,195.3,55.6z M166.4,51.8c1.8,0.7,3.7,0.6,5.5-0.1c1.7-0.7,3.1-2,3.9-3.7C174.1,51.4,170.1,53.1,166.4,51.8
			z M166.4,51.8C166.4,51.8,166.4,51.8,166.4,51.8C166.4,51.8,166.4,51.8,166.4,51.8z M175.8,47.9C175.8,47.9,175.8,47.9,175.8,47.9
			C175.8,47.9,175.8,47.9,175.8,47.9z M438.8,41c0.3,0.5,0.6,1.1,0.8,1.6c6.1-2.2,12.4-3.3,18.9-3.3c-5.7-0.1-11.5,0.8-16.9,2.6
			l-2,0.6L438.8,41z M297.5,42c0.6,0.2,1.2,0.4,1.9,0.6l0,0c0.5-1.1,1.1-2.1,1.7-3.2c-0.2,0.4-0.5,0.9-0.7,1.3l-1,1.9L297.5,42z
			 M280.5,39.4c-0.1,0-0.3,0-0.4,0c-0.5,0-0.9,0-1.4,0c0.5,0,0.9,0,1.4,0C280.2,39.4,280.4,39.4,280.5,39.4z M143,32.3
			c9.1,0,18,1.5,26.4,4.6c-8.6-3.1-17.6-4.7-26.9-4.6c-0.3,0-0.7,0-1,0c0.3,0,0.7,0,1,0C142.6,32.3,142.8,32.3,143,32.3z M369.5-1
			C369.5-1,369.5-1,369.5-1C369.5-1,369.5-1,369.5-1z M369.5-1C369.5-1,369.5-1,369.5-1C369.5-1,369.5-1,369.5-1z M369.5,146
			c-17.9,0-34.8-6.9-47.6-19.4c-3.2-3.2-8.3-3.3-11.7-0.3c-7,6.3-15.7,10.1-25,11l-6.1,0.6l0.6-6.1c0.2-2.3,0.3-4.7,0.2-7
			c-0.8-20.9-14.7-39.1-34.7-45.1l-5.9-1.8l2.9-5.4c7.6-14.1,22.2-23,38-23.2c5.9-0.1,11.5,1,16.7,3c4.1,1.6,8.9-0.3,10.8-4.3
			C319.1,24.4,343.3,9,369.5,9s50.4,15.4,61.7,39.1c1.9,4.1,6.7,5.9,10.8,4.3c5.3-2.1,10.9-3.1,16.7-3c23,0.3,42.4,19.3,43.2,42.4
			c0.5,12.2-3.9,23.6-12.3,32.3c-8.4,8.7-19.6,13.5-31.6,13.5c-10.8,0-21.2-4-29.3-11.2c-3.3-3-8.5-2.9-11.7,0.3
			C404.3,139.1,387.4,146,369.5,146z M368.9,141c0.2,0,0.4,0,0.6,0c15.4,0,30.1-5.5,41.6-15.6c-11.5,10.1-26.2,15.6-41.6,15.6
			C369.3,141,369.1,141,368.9,141z M315.9,114.1c4.9,0,9.5,1.9,13,5.3c10.9,10.7,25.4,16.6,40.6,16.6s29.7-5.9,40.6-16.6
			c7-6.8,18.1-7.1,25.4-0.5c6.2,5.6,14.2,8.7,22.6,8.7c9.3,0,17.9-3.7,24.4-10.4c6.5-6.7,9.9-15.6,9.5-25
			c-0.7-17.8-15.7-32.5-33.4-32.7c-4.5-0.1-8.9,0.7-12.9,2.3c-9,3.6-19.4-0.5-23.5-9.3C412.5,32.1,391.9,19,369.5,19
			s-43,13.1-52.6,33.4c-4.2,8.8-14.5,12.9-23.5,9.3c-4.1-1.6-8.5-2.4-12.9-2.3c-10.2,0.1-19.7,5-26.1,13c20.9,8.9,34.8,29,35.7,52
			c0,0.6,0,1.2,0,1.8c5-1.4,9.6-3.9,13.5-7.4C306.9,115.8,311.3,114.1,315.9,114.1z M317.2,119.2c3,0.3,5.9,1.6,8.2,3.8
			c4.4,4.3,9.3,7.9,14.6,10.7c-5.3-2.8-10.2-6.4-14.6-10.7C323.1,120.8,320.3,119.5,317.2,119.2z M458,132.5
			C458,132.5,458.1,132.5,458,132.5C458.1,132.5,458,132.5,458,132.5z M285,128c0,1.4-0.1,2.9-0.3,4.3l0,0c0,0,0.1,0,0.1,0l0.1-3
			C285,128.9,285,128.5,285,128z M306.8,122.6c-5.4,4.8-11.9,8-18.9,9.3l-0.1,0C294.9,130.7,301.4,127.5,306.8,122.6z M285,128
			C285,128,285,128,285,128C285,128,285,128,285,128z M250.7,76.4c19.4,7.6,32.8,25.8,34.2,46.8C283.5,102.1,270.3,84,250.7,76.4z
			 M307.1,122.4c-0.1,0.1-0.2,0.2-0.3,0.2C307,122.5,307.1,122.4,307.1,122.4z M423.1,119.1c-3.2,0-6.3,1.1-8.9,3.3
			c5.1-4.4,12.6-4.4,17.7,0C429.4,120.2,426.2,119.1,423.1,119.1z M307.2,122.3C307.2,122.3,307.2,122.3,307.2,122.3
			C307.2,122.3,307.2,122.3,307.2,122.3z M307.2,122.3C307.2,122.3,307.2,122.3,307.2,122.3C307.2,122.3,307.2,122.3,307.2,122.3z
			 M486.1,120.6C486.1,120.6,486.1,120.6,486.1,120.6C486.1,120.6,486.1,120.6,486.1,120.6z M486.2,120.5
			C486.2,120.5,486.2,120.5,486.2,120.5C486.2,120.5,486.2,120.5,486.2,120.5z M246.7,75c0.9,0.3,1.8,0.6,2.7,0.9L246.7,75
			C246.7,74.9,246.7,74.9,246.7,75L246.7,75z M249,71.2c-0.3,0.4-0.5,0.7-0.8,1.1l0.1-0.1C248.6,71.9,248.8,71.5,249,71.2z
			 M481.1,62.1C481.1,62.1,481.1,62.2,481.1,62.1C481.1,62.2,481.1,62.1,481.1,62.1z M459.2,54.4c8.1,0.2,15.7,3.1,21.9,7.7
			C474.9,57.5,467.3,54.6,459.2,54.4z M294.4,56.8c0.2,0.1,0.5,0.2,0.7,0.3c0.2,0.1,0.4,0.1,0.5,0.2c-0.2-0.1-0.4-0.1-0.5-0.2
			C294.9,57,294.7,56.9,294.4,56.8z M458.2,54.4c-4.8,0-9.5,0.8-13.9,2.5C448.7,55.2,453.3,54.4,458.2,54.4c0.1,0,0.2,0,0.2,0
			C458.3,54.4,458.3,54.4,458.2,54.4z M369.5,14c21.6,0,41.7,11.3,53.2,29.2C411.2,25.3,391.1,14,369.5,14z M369.5,14
			c-19.5,0-37.8,9.2-49.6,24.2C331.7,23.2,350,14,369.5,14z"/>
	</g>
</g>
<g>
	<g>
		<path d="M479.5,515h-442C15.2,515-3,496.8-3,474.5V435c0-5.8,4.7-10.5,10.5-10.5h24.2c5.8,0,10.5,4.7,10.5,10.5
			s-4.7,10.5-10.5,10.5H18v29c0,10.8,8.7,19.5,19.5,19.5h442c8,0,14.5-6.5,14.5-14.5v-34H64.2c-5.8,0-10.5-4.7-10.5-10.5
			s4.7-10.5,10.5-10.5h27.8v-5.4c-4.5-1.9-10.5-4.9-16.3-9.1c-13.6-9.9-20.7-22.8-20.7-37.2c0-43.7,33.7-68.8,40.5-73.4
			c4.3-2.9,9.8-2.9,14,0c6.8,4.6,40.5,29.7,40.5,73.4c0,14.4-7.2,27.3-20.7,37.2c-5.8,4.2-11.8,7.2-16.3,9.1v5.4h81.3v-5.4
			c-4.5-1.9-10.5-4.9-16.3-9.1c-13.6-9.9-20.7-22.8-20.7-37.2c0-43.8,33.7-68.8,40.5-73.4c4.3-2.9,9.8-2.9,14,0
			c6.8,4.6,40.5,29.7,40.5,73.4c0,14.4-7.2,27.3-20.7,37.2c-5.8,4.2-11.8,7.2-16.3,9.1v5.4h81.3v-5.4c-4.5-1.9-10.5-4.9-16.3-9.1
			c-13.6-9.9-20.7-22.8-20.7-37.2c0-43.7,33.7-68.8,40.5-73.4c4.3-2.9,9.8-2.9,14,0c6.8,4.6,40.5,29.7,40.5,73.4
			c0,14.4-7.2,27.3-20.7,37.2c-5.8,4.2-11.8,7.2-16.3,9.1v5.4h81.3v-5.4c-4.5-1.9-10.5-4.9-16.3-9.1c-13.6-9.9-20.7-22.8-20.7-37.2
			c0-43.7,33.7-68.8,40.5-73.4c4.3-2.9,9.8-2.9,14,0c2.7,1.8,9.7,6.9,17,14.9c3.9,4.3,3.6,10.9-0.7,14.8c-4.3,3.9-10.9,3.6-14.8-0.7
			c-3.1-3.4-6.1-6.1-8.4-8c-9.2,7.6-26.5,25.5-26.5,52.4c0,10.6,7.9,18,16,22.9v-51.7c0-5.8,4.7-10.5,10.5-10.5s10.5,4.7,10.5,10.5
			v51.7c8.1-4.8,16-12.3,16-22.9c0-7.1-1.2-14.1-3.6-20.7c-1.9-5.5,0.9-11.5,6.4-13.4c2.6-0.9,5.5-0.8,8,0.4c2.5,1.2,4.5,3.3,5.4,6
			c3.2,8.9,4.8,18.2,4.8,27.7c0,14.4-7.2,27.3-20.7,37.2c-5.8,4.2-11.8,7.2-16.3,9.1v5.4h84.6c5.8,0,10.5,4.7,10.5,10.5v44.5
			C515,499.1,499.1,515,479.5,515z M7.5,430.5c-2.5,0-4.5,2-4.5,4.5v39.5c0,19,15.5,34.5,34.5,34.5h442c16.3,0,29.5-13.2,29.5-29.5
			V435c0-2.5-2-4.5-4.5-4.5h-90.6V415l1.9-0.8c4.3-1.7,10.7-4.7,16.8-9.1c11.9-8.7,18.3-19.9,18.3-32.4c0-8.8-1.5-17.5-4.4-25.7
			c-0.4-1.1-1.2-2-2.3-2.6c-1.1-0.5-2.3-0.6-3.4-0.2c-2.3,0.8-3.6,3.4-2.7,5.8c2.6,7.3,3.9,14.9,3.9,22.7c0,12.1-8.4,23-23.7,30.6
			l-4.3,2.2v-61.6c0-2.5-2-4.5-4.5-4.5s-4.5,2-4.5,4.5v61.6l-4.3-2.2c-15.3-7.6-23.7-18.5-23.7-30.6c0-31.5,21.4-51.5,30.7-58.6
			l1.8-1.4l1.8,1.4c2.7,2.1,6.8,5.5,11,10.2c1.7,1.8,4.5,2,6.4,0.3c1.8-1.7,2-4.5,0.3-6.4c-6.9-7.6-13.4-12.3-15.9-14
			c-2.2-1.5-5.1-1.5-7.3,0c-6.3,4.3-37.9,27.7-37.9,68.5c0,12.5,6.3,23.7,18.3,32.4c6.1,4.5,12.5,7.4,16.8,9.1l1.9,0.7v15.5h-93.3
			V415l1.9-0.8c4.3-1.7,10.7-4.7,16.8-9.1c11.9-8.7,18.3-19.9,18.3-32.4c0-40.7-31.5-64.2-37.9-68.5c-2.2-1.5-5.1-1.5-7.3,0
			c-6.3,4.3-37.9,27.7-37.9,68.5c0,12.5,6.3,23.7,18.3,32.4c6.1,4.5,12.5,7.4,16.8,9.1l1.9,0.7v15.5h-93.3V415l1.9-0.8
			c4.3-1.7,10.7-4.7,16.8-9.1c11.9-8.7,18.3-19.9,18.3-32.4c0-40.7-31.5-64.2-37.9-68.5c-2.2-1.5-5.1-1.5-7.3,0
			c-6.3,4.3-37.9,27.7-37.9,68.5c0,12.5,6.3,23.7,18.3,32.4c6.1,4.5,12.5,7.4,16.8,9.1l1.9,0.8v15.5h-93.3V415l1.9-0.7
			c4.3-1.7,10.7-4.7,16.8-9.1c11.9-8.7,18.3-19.9,18.3-32.4c0-40.7-31.5-64.2-37.9-68.5c-2.2-1.5-5.1-1.5-7.3,0
			c-6.3,4.3-37.9,27.7-37.9,68.5c0,12.5,6.3,23.7,18.3,32.4c6.1,4.5,12.5,7.4,16.8,9.1l1.9,0.7v15.5H64.2c-2.5,0-4.5,2-4.5,4.5
			s2,4.5,4.5,4.5H500v40c0,11.3-9.2,20.5-20.5,20.5h-442C23.4,500,12,488.6,12,474.5v-35h19.7c2.5,0,4.5-2,4.5-4.5s-2-4.5-4.5-4.5
			H7.5z"/>
		<path d="M479.5,517.5h-442c-23.7,0-43-19.3-43-43V435c0-7.2,5.8-13,13-13h24.2c7.2,0,13,5.8,13,13s-5.8,13-13,13H20.5v26.5
			c0,9.4,7.6,17,17,17h442c6.6,0,12-5.4,12-12V448H64.2c-7.2,0-13-5.8-13-13s5.8-13,13-13h25.3v-1.3c-4.2-1.9-9.8-4.7-15.3-8.7
			c-14.2-10.4-21.7-24-21.7-39.3c0-45,34.7-70.8,41.6-75.5c5.1-3.5,11.7-3.5,16.8,0c6.9,4.7,41.6,30.5,41.6,75.5
			c0,15.3-7.5,28.8-21.7,39.3c-5.5,4-11.1,6.9-15.3,8.7v1.3h76.3v-1.3c-4.2-1.9-9.8-4.7-15.3-8.7c-14.2-10.4-21.7-24-21.7-39.3
			c0-45,34.7-70.8,41.6-75.5c5.1-3.5,11.7-3.5,16.8,0c6.9,4.7,41.6,30.5,41.6,75.5c0,15.3-7.5,28.8-21.7,39.3
			c-5.5,4-11.1,6.9-15.3,8.7v1.3h76.3v-1.3c-4.2-1.9-9.8-4.7-15.3-8.7c-14.2-10.4-21.7-24-21.7-39.3c0-45,34.7-70.8,41.6-75.5
			c5.1-3.5,11.7-3.5,16.8,0c6.9,4.7,41.6,30.5,41.6,75.5c0,15.3-7.5,28.8-21.7,39.3c-5.5,4-11.1,6.9-15.3,8.7v1.3h76.3v-1.3
			c-4.2-1.9-9.8-4.7-15.3-8.7c-14.2-10.4-21.7-24-21.7-39.3c0-45,34.7-70.8,41.6-75.5c5.1-3.5,11.7-3.5,16.8,0
			c2.7,1.9,9.9,7.1,17.4,15.3c4.8,5.3,4.4,13.5-0.9,18.4c-5.3,4.8-13.5,4.4-18.4-0.9c-2.1-2.3-4.3-4.4-6.6-6.5
			c-9.6,8.4-24,25-24,49.1c0,6.8,3.7,12.9,11,18.2v-47c0-7.2,5.8-13,13-13s13,5.8,13,13V391c7.3-5.3,11-11.4,11-18.2
			c0-6.8-1.2-13.5-3.4-19.8c-2.4-6.8,1.1-14.2,7.9-16.6c3.3-1.2,6.8-1,9.9,0.5c3.1,1.5,5.5,4.1,6.7,7.4c3.3,9.2,4.9,18.8,4.9,28.6
			c0,15.3-7.5,28.8-21.7,39.3c-5.5,4-11.1,6.9-15.3,8.7v1.3h82.1c7.2,0,13,5.8,13,13v44.5C517.5,500.5,500.5,517.5,479.5,517.5z
			 M7.5,427c-4.4,0-8,3.6-8,8v39.5c0,21,17,38,38,38h442c18.2,0,33-14.8,33-33V435c0-4.4-3.6-8-8-8h-87.1v-9.6l1.5-0.6
			c4-1.7,10-4.6,15.8-8.8c12.9-9.4,19.7-21.6,19.7-35.2c0-9.2-1.6-18.3-4.6-26.9c-0.7-2-2.2-3.6-4.1-4.5c-1.9-0.9-4.1-1-6.1-0.3
			c-4.2,1.5-6.3,6.1-4.8,10.2c2.5,6.9,3.7,14.1,3.7,21.5c0,9.6-6,18.3-17.2,25l-3.8,2.3v-56.1c0-4.4-3.6-8-8-8s-8,3.6-8,8V400
			l-3.8-2.3c-11.3-6.8-17.2-15.4-17.2-25c0-27.6,17.2-45.9,27.4-54.4l1.6-1.3l1.6,1.3c3.1,2.5,6,5.3,8.7,8.3c3,3.3,8,3.5,11.3,0.5
			c3.3-3,3.5-8,0.5-11.3c-7.1-7.8-13.9-12.8-16.5-14.5c-3.4-2.3-7.8-2.3-11.2,0c-6.6,4.5-39.4,28.9-39.4,71.4
			c0,13.6,6.8,25.8,19.7,35.2c5.8,4.2,11.8,7.1,15.8,8.8l1.5,0.6v9.6h-86.3v-9.6l1.5-0.6c4-1.7,10-4.6,15.8-8.8
			c12.9-9.4,19.7-21.6,19.7-35.2c0-42.5-32.8-66.9-39.4-71.4c-3.4-2.3-7.8-2.3-11.2,0c-6.6,4.5-39.4,28.9-39.4,71.4
			c0,13.6,6.8,25.8,19.7,35.2c5.8,4.2,11.8,7.1,15.8,8.8l1.5,0.6v9.6h-86.3v-9.6l1.5-0.6c4-1.7,10-4.6,15.8-8.8
			c12.9-9.4,19.7-21.6,19.7-35.2c0-42.5-32.8-66.9-39.4-71.4c-3.4-2.3-7.8-2.3-11.2,0c-6.6,4.5-39.4,28.9-39.4,71.4
			c0,13.6,6.8,25.8,19.7,35.2c5.8,4.2,11.8,7.1,15.8,8.8l1.5,0.6v9.6h-86.3v-9.6l1.5-0.6c4-1.7,10-4.6,15.8-8.8
			c12.9-9.4,19.7-21.6,19.7-35.2c0-42.5-32.8-66.9-39.4-71.4c-3.4-2.3-7.8-2.3-11.2,0c-6.6,4.5-39.4,28.9-39.4,71.4
			c0,13.6,6.8,25.8,19.7,35.2c5.8,4.2,11.8,7.1,15.8,8.8l1.5,0.6v9.6H64.2c-4.4,0-8,3.6-8,8s3.6,8,8,8h432.3v36.5
			c0,9.4-7.6,17-17,17h-442c-12.1,0-22-9.9-22-22V443h16.2c4.4,0,8-3.6,8-8s-3.6-8-8-8H7.5z M479.5,511.5h-442
			c-20.4,0-37-16.6-37-37V435c0-3.9,3.1-7,7-7h24.2c3.9,0,7,3.1,7,7s-3.1,7-7,7H14.5v32.5c0,12.7,10.3,23,23,23h442
			c9.9,0,18-8.1,18-18V442H64.2c-3.9,0-7-3.1-7-7s3.1-7,7-7h31.3v-11.3l-0.3-0.1c-4.4-1.8-11.1-4.8-17.4-9.5
			c-12.6-9.2-19.3-21.1-19.3-34.4c0-42,32.5-66.1,39-70.5c3.1-2.1,7-2.1,10.1,0c6.5,4.4,39,28.5,39,70.5c0,13.3-6.7,25.2-19.3,34.4
			c-6.3,4.6-13,7.7-17.4,9.5l-0.3,0.1V428h88.3v-11.3l-0.3-0.1c-4.4-1.8-11.1-4.8-17.4-9.5c-12.6-9.2-19.3-21.1-19.3-34.4
			c0-42,32.5-66.1,39-70.5c3.1-2.1,7-2.1,10.1,0c6.5,4.4,39,28.5,39,70.5c0,13.3-6.7,25.2-19.3,34.4c-6.3,4.6-13,7.7-17.4,9.5
			l-0.3,0.1V428h88.3v-11.3l-0.3-0.1c-4.4-1.8-11.1-4.8-17.4-9.5c-12.6-9.2-19.3-21.1-19.3-34.4c0-42,32.5-66.1,39-70.5
			c3.1-2.1,7-2.1,10.1,0c6.5,4.4,39,28.5,39,70.5c0,13.3-6.7,25.2-19.3,34.4c-6.3,4.6-13,7.7-17.4,9.5l-0.3,0.1V428h88.3v-11.3
			l-0.3-0.1c-4.4-1.8-11.1-4.8-17.4-9.5c-12.6-9.2-19.3-21.1-19.3-34.4c0-42,32.5-66.1,39-70.5c3.1-2.1,7-2.1,10.1,0
			c2.6,1.7,9.3,6.6,16.3,14.4c2.6,2.9,2.4,7.3-0.5,9.9c-2.9,2.6-7.3,2.4-9.9-0.5c-4.2-4.6-8.1-7.9-10.7-9.9l-0.3-0.2l-0.3,0.2
			c-8.9,6.9-29.7,26.2-29.7,56.7c0,11.1,7.9,21.2,22.3,28.4l0.7,0.4v-57.6c0-3.9,3.1-7,7-7s7,3.1,7,7v57.6l0.7-0.4
			c14.4-7.1,22.3-17.2,22.3-28.4c0-7.5-1.3-14.9-3.8-21.9c-1.3-3.6,0.6-7.6,4.2-8.9c1.8-0.6,3.7-0.5,5.3,0.3c1.7,0.8,3,2.2,3.6,4
			c3,8.5,4.6,17.5,4.6,26.6c0,13.3-6.7,25.2-19.3,34.4c-6.3,4.6-13,7.7-17.4,9.5l-0.3,0.1V428h88.1c3.9,0,7,3.1,7,7v44.5
			C511.5,497.1,497.1,511.5,479.5,511.5z M7.5,433c-1.1,0-2,0.9-2,2v39.5c0,17.6,14.4,32,32,32h442c14.9,0,27-12.1,27-27V435
			c0-1.1-0.9-2-2-2h-93.1v-19.7l3.5-1.4c4.2-1.6,10.4-4.5,16.3-8.8c11.3-8.2,17.2-18.8,17.2-30.4c0-8.5-1.4-16.9-4.3-24.9
			c-0.2-0.5-0.5-0.9-1-1.1c-0.5-0.2-1-0.3-1.5-0.1c-1,0.4-1.6,1.5-1.2,2.6c2.7,7.5,4.1,15.5,4.1,23.5c0,13.1-8.9,24.8-25,32.8l-8,4
			v-65.6c0-1.1-0.9-2-2-2s-2,0.9-2,2v65.6l-8-4c-16.2-8-25-19.7-25-32.8c0-32.6,22.1-53.3,31.6-60.6l3.4-2.6l3.4,2.6
			c2.8,2.1,7,5.7,11.3,10.5c0.7,0.8,2,0.9,2.8,0.1c0.8-0.7,0.9-2,0.1-2.8c-6.7-7.4-13-12-15.4-13.6c-1.4-0.9-3.1-0.9-4.5,0
			c-6.1,4.2-36.8,26.9-36.8,66.4c0,11.6,6,22.1,17.2,30.4c5.9,4.3,12.1,7.2,16.3,8.8l3.5,1.4V433h-98.3v-19.7l3.5-1.4
			c4.2-1.6,10.4-4.5,16.3-8.8c11.3-8.2,17.2-18.8,17.2-30.4c0-39.5-30.6-62.2-36.8-66.4c-1.4-0.9-3.1-0.9-4.5,0
			c-6.1,4.2-36.8,26.9-36.8,66.4c0,11.6,6,22.1,17.2,30.4c5.9,4.3,12.1,7.2,16.3,8.8l3.5,1.4V433h-98.3v-19.7l3.5-1.4
			c4.2-1.6,10.4-4.5,16.3-8.8c11.3-8.2,17.2-18.7,17.2-30.4c0-39.5-30.6-62.2-36.8-66.4c-1.4-0.9-3.1-0.9-4.5,0
			c-6.1,4.2-36.8,26.9-36.8,66.4c0,11.6,6,22.1,17.2,30.4c5.9,4.3,12.1,7.2,16.3,8.8l3.5,1.4V433h-98.3v-19.7l3.5-1.4
			c4.2-1.6,10.4-4.5,16.3-8.8c11.3-8.2,17.2-18.8,17.2-30.4c0-39.5-30.6-62.2-36.8-66.4c-1.4-0.9-3.1-0.9-4.5,0
			c-6.1,4.2-36.8,26.9-36.8,66.4c0,11.6,6,22.1,17.2,30.4c5.9,4.3,12.1,7.2,16.3,8.8l3.5,1.4V433H64.2c-1.1,0-2,0.9-2,2s0.9,2,2,2
			h438.3v42.5c0,12.7-10.3,23-23,23h-442c-15.4,0-28-12.6-28-28V437h22.2c1.1,0,2-0.9,2-2s-0.9-2-2-2H7.5z"/>
	</g>
</g>
</svg>
