<?xml version="1.0" encoding="iso-8859-1"?>
<!-- Generator: Adobe Illustrator 19.0.0, SVG Export Plug-In . SVG Version: 6.00 Build 0)  -->
<svg version="1.1" id="Layer_1" xmlns="http://www.w3.org/2000/svg" xmlns:xlink="http://www.w3.org/1999/xlink" x="0px" y="0px"
	 viewBox="0 0 512 512" style="enable-background:new 0 0 512 512;" xml:space="preserve">
<polygon style="fill:#563939;" points="364.189,241.868 497.832,241.868 477.348,195.405 382.641,195.405 "/>
<path style="fill:#3C6F99;" d="M155.87,316.58v49.715l-146.814,1.87V316.58c0-31.125,19.372-57.727,46.715-68.405
	c8.276-3.234,17.276-5.005,26.688-5.005h0.007c9.356,0,18.299,1.749,26.525,4.941C136.418,258.746,155.87,285.392,155.87,316.58z"/>
<path style="fill:#6598CB;" d="M155.87,338.548v27.747l-146.814,1.87v-29.617c0-31.125,19.372-57.727,46.715-68.406
	c8.276-3.234,17.276-5.005,26.688-5.005h0.007c9.356,0,18.299,1.749,26.525,4.941C136.418,280.714,155.87,307.36,155.87,338.548z"/>
<path style="fill:#EAA96E;" d="M108.991,248.111l-9.157,10.579l-17.368,20.069l-17.496-20.041l-9.199-10.543
	c8.276-3.234,17.276-5.005,26.688-5.005h0.007C91.822,243.169,100.766,244.919,108.991,248.111z"/>
<g>
	<path style="fill:#FBCB99;" d="M99.834,258.689l-17.368,20.069l-17.496-20.041c5.602-1.372,11.46-2.097,17.489-2.097h0.007
		C88.452,256.62,94.267,257.339,99.834,258.689z"/>
	<path style="fill:#FBCB99;" d="M130.198,195.701c0,0.981-0.029,1.955-0.093,2.921c-0.114,1.877-0.334,3.718-0.662,5.531
		c-0.718,4.024-1.941,7.877-3.605,11.482c-7.543,16.409-24.129,27.805-43.373,27.805c-19.672,0-36.563-11.894-43.865-28.885
		c-1.422-3.298-2.481-6.789-3.121-10.422c-0.32-1.792-0.541-3.612-0.654-5.467c-0.071-0.981-0.099-1.969-0.099-2.965
		c0-26.361,21.37-47.739,47.739-47.739C108.828,147.962,130.198,169.34,130.198,195.701z"/>
</g>
<path style="fill:#EAA96E;" d="M129.444,204.154c-0.718,4.024-1.941,7.877-3.605,11.482c-39.898,0.214-57.351-17.517-57.351-17.517
	c-9.064,8.83-20.767,13.749-29.887,16.436c-1.422-3.298-2.481-6.789-3.121-10.422c4.002-22.309,23.518-39.243,46.986-39.243
	C105.934,164.89,125.449,181.838,129.444,204.154z"/>
<path style="fill:#694B4B;" d="M130.198,195.701c0,0.981-0.029,1.955-0.093,2.921c-42.918,1.557-61.616-17.432-61.616-17.432
	c-2.687,2.616-5.602,4.892-8.616,6.861c-8.623,5.652-18.036,8.851-25.046,10.614c-0.071-0.981-0.099-1.969-0.099-2.965
	c0-26.361,21.37-47.739,47.739-47.739c17.019,0,31.964,8.915,40.409,22.33C127.518,177.65,130.198,186.359,130.198,195.701z"/>
<path style="fill:#563939;" d="M130.198,195.701c0,0.981-0.029,1.955-0.093,2.921c-42.918,1.557-61.616-17.432-61.616-17.432
	c-2.687,2.616-5.602,4.892-8.616,6.861c8.353-13.877,23.56-23.162,40.935-23.162c7.963,0,15.469,1.948,22.067,5.404
	C127.518,177.65,130.198,186.359,130.198,195.701z"/>
<path style="fill:#C62E1E;" d="M503.782,316.58v49.715l-146.814,1.87V316.58c0-31.125,19.373-57.727,46.715-68.405
	c8.276-3.234,17.276-5.005,26.688-5.005h0.007c9.356,0,18.299,1.749,26.525,4.941C484.331,258.746,503.782,285.392,503.782,316.58z"
	/>
<path style="fill:#EF4C35;" d="M503.782,338.548v27.747l-146.814,1.87v-29.617c0-31.125,19.373-57.727,46.715-68.406
	c8.276-3.234,17.276-5.005,26.688-5.005h0.007c9.356,0,18.299,1.749,26.525,4.941C484.331,280.714,503.782,307.36,503.782,338.548z"
	/>
<path style="fill:#EAA96E;" d="M456.903,248.111l-9.157,10.579l-17.368,20.069l-17.496-20.041l-9.199-10.543
	c8.276-3.234,17.276-5.005,26.688-5.005h0.007C439.734,243.169,448.677,244.919,456.903,248.111z"/>
<g>
	<path style="fill:#FBCB99;" d="M447.747,258.689l-17.368,20.069l-17.496-20.041c5.602-1.372,11.46-2.097,17.489-2.097h0.007
		C436.365,256.62,442.18,257.339,447.747,258.689z"/>
	<path style="fill:#FBCB99;" d="M478.111,195.701c0,0.981-0.029,1.955-0.093,2.921c-0.114,1.877-0.334,3.718-0.662,5.531
		c-0.718,4.024-1.941,7.877-3.605,11.482c-7.543,16.409-24.129,27.805-43.373,27.805c-19.672,0-36.563-11.894-43.865-28.885
		c-1.422-3.298-2.481-6.789-3.121-10.422c-0.32-1.792-0.541-3.612-0.654-5.467c-0.071-0.981-0.099-1.969-0.099-2.965
		c0-26.361,21.37-47.739,47.739-47.739C456.739,147.962,478.111,169.34,478.111,195.701z"/>
</g>
<path style="fill:#EAA96E;" d="M476.854,202.646c-0.718,4.024-2.008,5.804-3.672,9.408c-39.898,0.214-78.049-1.695-87.171,0.992
	c-1.422-3.298-2.481-6.789-3.121-10.422c4.002-22.309,23.518-39.243,46.986-39.243C453.344,163.381,472.859,180.33,476.854,202.646z
	"/>
<path style="fill:#563939;" d="M478.11,195.704c0,0.975-0.03,1.95-0.089,2.914c-15.212,0.551-30.73,0.502-44.731,0.276h-0.098
	c-24.862-0.394-44.948-1.319-50.097-0.305c-0.128,0.03-0.246,0.049-0.354,0.079v-0.089c-0.069-0.955-0.098-1.91-0.098-2.875
	c0-20.185,12.524-37.445,30.228-44.436c0.01-0.01,0.01,0,0.01,0c5.415-2.137,11.323-3.308,17.497-3.308
	c17.024,0,31.97,8.921,40.409,22.331C475.431,177.646,478.11,186.36,478.11,195.704z"/>
<path style="fill:#694B4B;" d="M443.156,195.704c0,0.975-0.03,1.95-0.089,2.914c-3.249,0.118-6.518,0.207-9.777,0.276h-0.098
	c-17.772,0.364-35.426,0.039-50.097-0.305c-0.118,0-0.236,0-0.354-0.01c-0.069-0.955-0.098-1.91-0.098-2.875
	c0-20.185,12.524-37.445,30.228-44.436c0.01-0.01,0.01,0,0.01,0c9.531,3.742,17.566,10.466,22.951,19.023
	C440.478,177.646,443.156,186.36,443.156,195.704z"/>
<path d="M165.499,317.299c0-34.977-21.824-64.932-52.561-77.023c14.983-9.856,24.901-26.811,24.901-46.048
	c0-30.377-24.714-55.09-55.09-55.09s-55.09,24.713-55.09,55.09c0,19.236,9.918,36.192,24.902,46.048
	C21.824,252.367,0,282.323,0,317.299v58.314h165.499V317.299z M82.749,267.688l-14.626-16.767c4.714-1.039,9.605-1.602,14.626-1.602
	s9.912,0.563,14.626,1.602L82.749,267.688z M82.749,153.908c21.148,0,38.534,16.369,40.181,37.101
	c-22.391-1.237-36.967-7.942-44.441-12.496c1.873-2.61,2.754-4.366,2.873-4.61l-13.288-6.446
	c-0.067,0.14-6.408,12.204-25.147,20.449C45.971,168.667,62.667,153.908,82.749,153.908z M43.534,203.578
	c10.837-3.966,18.873-9.15,24.685-14.081c8.402,5.646,25.772,14.581,53.175,16.216c-4.959,16.655-20.402,28.836-38.645,28.836
	C63.735,234.549,47.763,221.316,43.534,203.578z M150.73,360.843h-18.636v-41.151h-14.769v41.151H48.173v-41.151H33.404v41.151
	H14.769v-43.545c0-26.853,15.653-50.116,38.313-61.153l22.282,25.544v32.684h14.769v-32.684l22.282-25.544
	c22.66,11.038,38.314,34.299,38.314,61.153L150.73,360.843L150.73,360.843z"/>
<rect x="75.362" y="324.502" width="14.769" height="11.955"/>
<path d="M476.353,249.318h32.875L484.3,192.583c-0.875-29.617-25.223-53.445-55.049-53.445c-29.884,0-54.268,23.921-55.053,53.619
	l-21.807,56.561h29.758c-21.521,14.957-35.648,39.844-35.648,67.981v58.314H512v-58.314
	C512,289.163,497.874,264.277,476.353,249.318z M429.251,267.688l-14.626-16.767c4.714-1.039,9.605-1.602,14.626-1.602
	c5.022,0,9.912,0.563,14.626,1.602L429.251,267.688z M389.619,201.613h79.263c-3.481,18.718-19.922,32.936-39.632,32.936
	C409.541,234.549,393.1,220.33,389.619,201.613z M466.735,234.549c5.15-4.791,9.382-10.551,12.406-16.991l7.465,16.991H466.735z
	 M429.251,153.908c19.71,0,36.151,14.22,39.632,32.936h-16.649v-12.993h-14.769v12.993H389.62
	C393.1,168.127,409.541,153.908,429.251,153.908z M379.977,218.823c2.972,5.93,6.979,11.251,11.79,15.726h-17.853L379.977,218.823z
	 M497.231,360.843h-18.635v-41.151h-14.769v41.151h-69.152v-41.151h-14.769v41.151H361.27v-43.545
	c0-26.853,15.654-50.116,38.314-61.153l22.282,25.544v32.684h14.769v-32.684l22.282-25.544c22.66,11.039,38.313,34.3,38.313,61.154
	V360.843z"/>
<rect x="421.868" y="324.502" width="14.769" height="11.955"/>
<path d="M256,78.218c48.268,0,93.535,18.913,127.459,53.255l10.508-10.38C357.245,83.92,308.249,63.449,256,63.449
	c-50.059,0-97.574,19.016-133.792,53.544l10.191,10.689C165.857,95.784,209.753,78.218,256,78.218z"/>
<path d="M256,436.534c-45.666,0-89.16-17.186-122.466-48.392l-10.098,10.778C159.49,432.7,206.569,451.303,256,451.303
	c46.183,0,90.922-16.508,125.974-46.484l-9.598-11.225C339.997,421.284,298.666,436.534,256,436.534z"/>
<path d="M195.879,257.376c0,33.15,26.971,60.12,60.121,60.12s60.121-26.97,60.121-60.12s-26.971-60.12-60.121-60.12
	S195.879,224.225,195.879,257.376z M301.351,257.376c0,25.006-20.344,45.35-45.351,45.35s-45.351-20.344-45.351-45.35
	c0-25.006,20.344-45.35,45.351-45.35S301.351,232.369,301.351,257.376z"/>
<rect x="37.885" y="85.545" width="14.769" height="16.237"/>
<rect x="123.067" y="44.763" width="14.769" height="16.237"/>
<rect x="59.989" y="8.76" width="14.769" height="16.237"/>
<rect x="92.633" y="410.222" width="14.769" height="16.237"/>
<rect x="7.442" y="451.005" width="14.769" height="16.237"/>
<rect x="70.518" y="487.003" width="14.769" height="16.237"/>
<rect x="459.52" y="85.545" width="14.769" height="16.237"/>
<rect x="374.341" y="44.763" width="14.769" height="16.237"/>
<rect x="437.415" y="8.76" width="14.769" height="16.237"/>
<rect x="404.775" y="410.222" width="14.769" height="16.237"/>
<rect x="489.964" y="451.005" width="14.769" height="16.237"/>
<rect x="426.89" y="487.003" width="14.769" height="16.237"/>
<g>
</g>
<g>
</g>
<g>
</g>
<g>
</g>
<g>
</g>
<g>
</g>
<g>
</g>
<g>
</g>
<g>
</g>
<g>
</g>
<g>
</g>
<g>
</g>
<g>
</g>
<g>
</g>
<g>
</g>
</svg>
