<svg height="479pt" viewBox="0 -23 479.97216 479" width="479pt" xmlns="http://www.w3.org/2000/svg"><g fill="#4e4e4e"><path d="m416 376.484375h-24c-4.109375 0-7.550781-3.109375-7.960938-7.199219l-7.710937-77.160156-29.984375-29.984375 11.3125-11.308594 32 32c1.320312 1.296875 2.148438 3.011719 2.34375 4.855469l7.28125 72.796875h16.71875zm0 0"/><path d="m240 360.484375h-16v-24c0-3.667969 2.496094-6.867187 6.054688-7.757813l59.34375-14.839843 14.839843-59.34375 15.523438 3.886719-16 64c-.71875 2.863281-2.953125 5.097656-5.816407 5.816406l-57.945312 14.488281zm0 0"/><path d="m208 376.484375h-24c-3.535156 0-6.648438-2.316406-7.664062-5.703125l-23.414063-78.0625-30.578125-30.578125 11.3125-11.308594 32 32c.9375.933594 1.628906 2.089844 2.007812 3.359375l22.289063 74.292969h18.046875zm0 0"/><path d="m16 360.484375h-16v-24c0-3.667969 2.496094-6.867187 6.054688-7.757813l59.34375-14.839843 14.839843-59.34375 15.523438 3.886719-16 64c-.71875 2.863281-2.953125 5.097656-5.816407 5.816406l-57.945312 14.488281zm0 0"/></g><path d="m352 264.484375h-40c-2.320312.003906-4.527344-1.003906-6.046875-2.757813-1.519531-1.753906-2.203125-4.078124-1.875-6.375l8-56c.070313-.472656.179687-.941406.328125-1.394531l8-24c1.089844-3.265625 4.148438-5.472656 7.59375-5.472656h24c3.046875-.015625 5.839844 1.699219 7.199219 4.425781l8 16c.710937 1.410156.992187 3 .800781 4.566406l-8 64c-.503906 4.027344-3.941406 7.039063-8 7.007813zm0 0" fill="#ee3446"/><path d="m248 224.484375h-16v-16h13.191406l37.808594-30.246094c1-.800781 2.175781-1.351562 3.433594-1.601562l40-8 3.132812 15.679687-38.085937 7.625-38.480469 30.785156c-1.417969 1.136719-3.183594 1.757813-5 1.757813zm0 0" fill="#ee3446"/><path d="m416.839844 260.0625-6.640625-13.28125-37.175781-14.863281c-1.820313-.730469-3.308594-2.101563-4.183594-3.855469l-16-32 14.320312-7.152344 14.640625 29.28125 37.175781 14.863282c1.820313.730468 3.308594 2.101562 4.183594 3.855468l8 16zm0 0" fill="#ee3446"/><path d="m352 160.484375c-17.671875 0-32-14.324219-32-32 0-17.671875 14.328125-32 32-32s32 14.328125 32 32c0 17.675781-14.328125 32-32 32zm0 0" fill="#eecfb1"/><path d="m400 272.484375 56-32 16 40-56 32zm0 0" fill="#7d4739"/><path d="m128 264.484375h-40c-2.320312.003906-4.527344-1.003906-6.046875-2.757813-1.519531-1.753906-2.203125-4.078124-1.875-6.375l8-56c.070313-.472656.179687-.941406.328125-1.394531l8-24c1.089844-3.265625 4.148438-5.472656 7.59375-5.472656h24c3.03125 0 5.804688 1.714844 7.160156 4.425781l8 16c.710938 1.410156.988282 3 .800782 4.566406l-8 64c-.503907 4.011719-3.917969 7.019532-7.960938 7.007813zm0 0" fill="#168de2"/><path d="m24 224.484375h-16v-16h13.191406l37.808594-30.246094c1-.800781 2.175781-1.351562 3.433594-1.601562l40-8 3.132812 15.679687-38.085937 7.625-38.480469 30.785156c-1.417969 1.136719-3.183594 1.757813-5 1.757813zm0 0" fill="#168de2"/><path d="m224 232.484375h-56c-2.121094 0-4.15625-.84375-5.65625-2.34375l-32-32 11.3125-11.308594 29.65625 29.652344h52.6875zm0 0" fill="#168de2"/><path d="m128 160.484375c-17.671875 0-32-14.324219-32-32 0-17.671875 14.328125-32 32-32s32 14.328125 32 32c0 17.675781-14.328125 32-32 32zm0 0" fill="#eecfb1"/><path d="m208.640625 237.335938 24.011719-55.996094 14.703125 6.304687-24.011719 56zm0 0" fill="#fecf2c"/><path d="m352 160.484375c17.671875 0 32-14.324219 32-32 0-17.671875-14.328125-32-32-32s-32 14.328125-32 32c0 17.675781 14.328125 32 32 32zm0-48c8.835938 0 16 7.164063 16 16 0 8.839844-7.164062 16-16 16s-16-7.160156-16-16c0-8.835937 7.164062-16 16-16zm0 0"/><path d="m16 342.734375 57.945312-14.488281c2.863282-.71875 5.097657-2.953125 5.816407-5.816406l14.484375-57.945313h30.402344l28.230468 28.234375 23.417969 78.0625c1.019531 3.402344 4.152344 5.722656 7.703125 5.703125h24v-16h-18.046875l-22.289063-74.292969c-.378906-1.269531-1.070312-2.425781-2.007812-3.359375l-29.230469-29.234375 5.484375-43.886718 20.433594 20.429687c1.5 1.5 3.535156 2.34375 5.65625 2.34375h42.726562l-2.078124 4.851563 14.703124 6.300781 8.648438-20.175781v1.023437h16c1.816406.003906 3.582031-.617187 5-1.75l38.480469-30.785156 24.566406-4.910157-3.640625 10.917969c-.148438.453125-.257812.921875-.328125 1.394531l-7.933594 55.574219-14.746093 58.960938-59.34375 14.839843c-3.558594.890626-6.054688 4.089844-6.054688 7.757813v24h16v-17.75l57.945312-14.488281c2.863282-.71875 5.097657-2.953125 5.816407-5.816406l14.484375-57.945313h30.441406l27.640625 27.640625 7.710937 77.160156c.410157 4.089844 3.851563 7.199219 7.960938 7.199219h24v-16h-16.761719l-7.238281-72.796875c-.183594-1.835938-1-3.554688-2.304688-4.855469l-29.230468-29.234375 4.238281-33.902344 4.175781 8.367188c.875 1.753906 2.363282 3.125 4.183594 3.855469l37.175781 14.863281 4.152344 8.289062-18.390625 10.472657c-3.46875 1.976562-4.945312 6.210937-3.464844 9.917969l16 40c.855469 2.15625 2.601563 3.832031 4.789063 4.601562 2.1875.765625 4.597656.546875 6.613281-.601562l56-32c3.46875-1.976563 4.945312-6.210938 3.460938-9.917969l-16-40c-.851563-2.15625-2.597657-3.832031-4.785157-4.601563-2.1875-.765625-4.601562-.546875-6.613281.601563l-23.769531 13.597656-5.03125-10.230469c-.875-1.753906-2.363281-3.125-4.183594-3.855468l-37.175781-14.863282-22.640625-45.28125c-1.359375-2.726562-4.152344-4.441406-7.199219-4.425781h-24c-.523438.03125-1.042969.113281-1.550781.25v-.089844l-40 8c-1.257813.25-2.433594.800781-3.433594 1.601563l-37.824219 30.238281h-6.792968l8.9375-20.847656-14.703126-6.300781-15.03125 35.148437h-46.289062l-28.738281-28.734375-7.375-14.839844c-1.359375-2.726562-4.152344-4.441406-7.199219-4.425781h-24c-.523438.03125-1.042969.113281-1.550781.25v-.089844l-40 8c-1.257813.25-2.433594.800781-3.433594 1.601563l-37.824219 30.238281h-13.191406v16h16c1.816406.003906 3.582031-.617187 5-1.75l38.480469-30.785156 24.566406-4.910157-3.640625 10.917969c-.148438.453125-.257812.921875-.328125 1.394531l-7.933594 55.574219-14.746093 58.960938-59.34375 14.839843c-3.558594.890626-6.054688 4.089844-6.054688 7.757813v24h16zm445.992188-65.746094-41.984376 24-10-25 41.984376-24zm-114.9375-92.503906 4.707031 9.410156-6.824219 54.589844h-23.714844l6.59375-46.160156 5.953125-17.839844zm-224 0 4.707031 9.410156-6.824219 54.589844h-23.714844l6.59375-46.160156 5.953125-17.839844zm0 0"/><path d="m128 160.484375c17.671875 0 32-14.324219 32-32 0-17.671875-14.328125-32-32-32s-32 14.328125-32 32c0 17.675781 14.328125 32 32 32zm0-48c8.835938 0 16 7.164063 16 16 0 8.839844-7.164062 16-16 16s-16-7.160156-16-16c0-8.835937 7.164062-16 16-16zm0 0"/><path d="m160 400.484375h72v16h-72zm0 0"/><path d="m238 80.484375h48v16h-48zm0 0"/><path d="m128 400.484375h16v16h-16zm0 0"/><path d="m368 416.484375h48v16h-48zm0 0"/><path d="m328 416.484375h16v16h-16zm0 0"/><path d="m120 8.484375h16v16h-16zm0 0"/><path d="m40 120.484375h40v16h-40zm0 0"/><path d="m8 120.484375h16v16h-16zm0 0"/><path d="m96 400.484375h16v16h-16zm0 0"/><path d="m408 .484375h24v16h-24zm0 0"/></svg>