<svg version="1.1" id="svg2" xmlns="http://www.w3.org/2000/svg" x="0" y="0" viewBox="0 0 555.5 344.5" xml:space="preserve"><style>.st0,.st2{fill:none;stroke:#fff}.st0{stroke-miterlimit:10}.st2{stroke-width:2.6667}.st3{fill:#fff}</style><text transform="matrix(1.0004 0 0 1 -47.912 -271.098)" font-family="TimesNewRomanPSMT" font-size="13.321">constructed startin with 1x1mm square; last square is 144x144</text><text transform="matrix(1.0004 0 0 1 -47.912 -271.098)" class="st0" font-family="TimesNewRomanPSMT" font-size="13.321">constructed startin with 1x1mm square; last square is 144x144</text><path id="path2762" class="st2" d="M552.5 209c0-114.7-93-207.8-207.7-207.8"/><path class="st3" d="M343 0v2.7c-90.9 0-176.4 35.4-240.6 99.7C38.1 166.7 2.7 252.2 2.7 343.1H0c0-91.7 35.7-177.8 100.5-242.6C165.3 35.7 251.4 0 343 0z" id="path1875"/><path class="st3" d="M555.5 212.6c0 72.7-59.2 131.9-131.9 131.9v-2.7c71.2 0 129.2-57.9 129.2-129.2h2.7z" id="path2764"/><path class="st3" d="M423.6 341.8v2.7c-45.2 0-82-36.8-82-82h2.7c.1 43.7 35.6 79.3 79.3 79.3z" id="path2766"/><path class="st3" d="M392.9 211.1v2.7c-26.8 0-48.6 21.8-48.6 48.6h-2.7c.1-28.3 23.1-51.3 51.3-51.3z" id="path2768"/><path class="st3" d="M425 243.2h-2.7c0-16.2-13.2-29.3-29.3-29.3v-2.7c17.6-.1 32 14.3 32 32z" id="path2770"/><path class="st3" d="M425 243.2c0 11.3-9.2 20.6-20.6 20.6v-2.7c9.8 0 17.9-8 17.9-17.9h2.7z" id="path2772"/><path class="st3" d="M404.4 261.1v2.7c-7.1 0-12.8-5.8-12.8-12.8h2.7c0 5.5 4.5 10.1 10.1 10.1z" id="path2774"/><path class="st3" d="M392.9 249.6h11.5v2.7h-11.5z" id="rect2784"/><path class="st3" d="M403.1 243.2h2.7v19.2h-2.7z" id="rect2786"/><path class="st3" d="M399.2 243.2h2.7v7.7h-2.7z" id="rect2788"/><path class="st3" d="M400.6 245.7h3.9v2.7h-3.9z" id="rect2790"/><path class="st3" d="M392.9 241.8h30.7v2.7h-30.7z" id="rect2794"/><path class="st3" d="M391.6 212.5h2.7v49.9h-2.7z" id="rect2796"/><path class="st3" d="M343 261.1h80.6v2.7H343z" id="rect2798"/><path class="st3" d="M422.3 212.5h2.7v130.6h-2.7z" id="rect2800"/><path class="st3" d="M343 211.1h211.1v2.7H343z" id="rect2802"/><path class="st3" d="M341.5 1.2h2.7v342h-2.7z" id="rect2804"/><path class="st3" d="M1.3 341.8h422.4v2.7H1.3z" id="rect2806"/><path class="st3" d="M400.6 241.8v2.7c-3.5 0-6.4 2.9-6.4 6.4h-2.7c0-5 4.1-9.1 9.1-9.1z" id="path1028"/><path class="st3" d="M405.8 247.1h-2.7c0-1.4-1.1-2.5-2.5-2.5v-2.7c2.8-.1 5.2 2.3 5.2 5.2z" id="path1030"/><path class="st3" d="M405.8 247.1c0 2.9-2.3 5.2-5.2 5.2v-2.7c1.4 0 2.5-1.1 2.5-2.5h2.7z" id="path1034"/></svg>