<?xml version="1.0" encoding="utf-8"?>
<!-- Generator: Adobe Illustrator 21.1.0, SVG Export Plug-In . SVG Version: 6.00 Build 0)  -->
<svg version="1.1"
	 id="svg2" xmlns:cc="http://creativecommons.org/ns#" xmlns:dc="http://purl.org/dc/elements/1.1/" xmlns:rdf="http://www.w3.org/1999/02/22-rdf-syntax-ns#" xmlns:svg="http://www.w3.org/2000/svg"
	 xmlns="http://www.w3.org/2000/svg" xmlns:xlink="http://www.w3.org/1999/xlink" x="0px" y="0px" viewBox="0 0 555.5 344.5"
	 style="enable-background:new 0 0 555.5 344.5;" xml:space="preserve">
<style type="text/css">
	.st0{fill:none;stroke:#FFFFFF;stroke-miterlimit:10;}
	.st1{enable-background:new    ;}
	.st2{fill:none;stroke:#FFFFFF;stroke-width:2.6667;}
	.st3{fill:#FFFFFF;}
</style>
<path id="path2782" class="st0" d="M-244.3-104.8"/>
<text transform="matrix(1.0004 0 0 1 -47.9121 -271.0981)" style="font-family:'TimesNewRomanPSMT'; font-size:13.3211px;">constructed startin with 1x1mm square; last square is 144x144</text>
<text transform="matrix(1.0004 0 0 1 -47.9121 -271.0981)" class="st0" style="font-family:'TimesNewRomanPSMT'; font-size:13.3211px;">constructed startin with 1x1mm square; last square is 144x144</text>
<path id="path1873" class="st2" d="M318.5-85.5"/>
<path id="path924" class="st2" d="M654.7-85.9"/>
<g>
	<path id="path2762" class="st2" d="M552.5,209c0-114.7-93-207.8-207.7-207.8"/>
	<g>
		<g id="path1875">
			<path class="st3" d="M343,0v2.7c-90.9,0-176.4,35.4-240.6,99.7C38.1,166.7,2.7,252.2,2.7,343.1H0c0-91.7,35.7-177.8,100.5-242.6
				C165.3,35.7,251.4,0,343,0z"/>
		</g>
		<g id="path2764">
			<path class="st3" d="M555.5,212.6c0,72.7-59.2,131.9-131.9,131.9v-2.7c71.2,0,129.2-57.9,129.2-129.2H555.5z"/>
		</g>
		<g id="path2766">
			<path class="st3" d="M423.6,341.8v2.7c-45.2,0-82-36.8-82-82h2.7C344.4,306.2,379.9,341.8,423.6,341.8z"/>
		</g>
		<g id="path2768">
			<path class="st3" d="M392.9,211.1v2.7c-26.8,0-48.6,21.8-48.6,48.6h-2.7C341.7,234.1,364.7,211.1,392.9,211.1z"/>
		</g>
		<g id="path2770">
			<path class="st3" d="M425,243.2h-2.7c0-16.2-13.2-29.3-29.3-29.3v-2.7C410.6,211.1,425,225.5,425,243.2z"/>
		</g>
		<g id="path2772">
			<path class="st3" d="M425,243.2c0,11.3-9.2,20.6-20.6,20.6v-2.7c9.8,0,17.9-8,17.9-17.9H425z"/>
		</g>
		<g id="path2774">
			<path class="st3" d="M404.4,261.1v2.7c-7.1,0-12.8-5.8-12.8-12.8h2.7C394.3,256.5,398.8,261.1,404.4,261.1z"/>
		</g>
		<g id="rect2784">
			<rect x="392.9" y="249.6" class="st3" width="11.5" height="2.7"/>
		</g>
		<g id="rect2786">
			<rect x="403.1" y="243.2" class="st3" width="2.7" height="19.2"/>
		</g>
		<g id="rect2788">
			<rect x="399.2" y="243.2" class="st3" width="2.7" height="7.7"/>
		</g>
		<g id="rect2790">
			<rect x="400.6" y="245.7" class="st3" width="3.9" height="2.7"/>
		</g>
		<g id="rect2794">
			<rect x="392.9" y="241.8" class="st3" width="30.7" height="2.7"/>
		</g>
		<g id="rect2796">
			<rect x="391.6" y="212.5" class="st3" width="2.7" height="49.9"/>
		</g>
		<g id="rect2798">
			<rect x="343" y="261.1" class="st3" width="80.6" height="2.7"/>
		</g>
		<g id="rect2800">
			<rect x="422.3" y="212.5" class="st3" width="2.7" height="130.6"/>
		</g>
		<g id="rect2802">
			<rect x="343" y="211.1" class="st3" width="211.1" height="2.7"/>
		</g>
		<g id="rect2804">
			<rect x="341.5" y="1.2" class="st3" width="2.7" height="342"/>
		</g>
		<g id="rect2806">
			<rect x="1.3" y="341.8" class="st3" width="422.4" height="2.7"/>
		</g>
		<g id="path1028">
			<path class="st3" d="M400.6,241.8v2.7c-3.5,0-6.4,2.9-6.4,6.4h-2.7C391.5,245.9,395.6,241.8,400.6,241.8z"/>
		</g>
		<g id="path1030">
			<path class="st3" d="M405.8,247.1h-2.7c0-1.4-1.1-2.5-2.5-2.5v-2.7C403.4,241.8,405.8,244.2,405.8,247.1z"/>
		</g>
		<g id="path1034">
			<path class="st3" d="M405.8,247.1c0,2.9-2.3,5.2-5.2,5.2v-2.7c1.4,0,2.5-1.1,2.5-2.5H405.8z"/>
		</g>
	</g>
</g>
</svg>
