<?xml version="1.0" encoding="iso-8859-1"?>
<!-- Generator: Adobe Illustrator 19.0.0, SVG Export Plug-In . SVG Version: 6.00 Build 0)  -->
<svg xmlns="http://www.w3.org/2000/svg" xmlns:xlink="http://www.w3.org/1999/xlink" version="1.1" id="Capa_1" x="0px" y="0px" viewBox="0 0 512 512" style="enable-background:new 0 0 512 512;" xml:space="preserve" width="512" height="512">
<g>
	<g>
		<g>
			<path style="fill:#ECEAEC;" d="M488.468,376.241H23.532c-8.854,0-16.032-7.178-16.032-16.032V71.628     c0-8.854,7.178-16.032,16.032-16.032h464.935c8.854,0,16.032,7.178,16.032,16.032v288.581     C504.5,369.063,497.322,376.241,488.468,376.241z"/>
		</g>
		<path style="fill:#E5646E;" d="M344.177,151.789H167.823c-8.854,0-16.032-7.178-16.032-16.032v-16.032    c0-8.854,7.178-16.032,16.032-16.032h176.355c8.854,0,16.032,7.178,16.032,16.032v16.032    C360.21,144.611,353.032,151.789,344.177,151.789z"/>
		<path style="fill:#DAD8DB;" d="M31.548,320.128V55.596h-8.016c-8.854,0-16.032,7.178-16.032,16.032v288.581    c0,8.854,7.179,16.032,16.032,16.032h464.935c8.854,0,16.032-7.178,16.032-16.032v-8.016H63.613    C45.933,352.193,31.548,337.809,31.548,320.128z"/>
		<path style="fill:#FF8086;" d="M360.21,127.741H191.871c-8.854,0-16.032-7.178-16.032-16.032v-8.016h168.339    c8.854,0,16.032,7.178,16.032,16.032V127.741z"/>
	</g>
	<g>
		<path d="M488.468,48.096H263.5V23.531c0-4.142-3.358-7.5-7.5-7.5s-7.5,3.358-7.5,7.5v24.564H23.532    C10.557,48.096,0,58.652,0,71.628v288.581c0,12.976,10.557,23.532,23.532,23.532h84.819L64.735,485.512    c-1.632,3.808,0.132,8.216,3.939,9.848c0.964,0.413,1.965,0.608,2.951,0.608c2.91,0,5.678-1.704,6.897-4.547l28.971-67.6H248.5    v64.645c0,4.142,3.358,7.5,7.5,7.5s7.5-3.358,7.5-7.5v-64.645h141.006l28.971,67.6c1.219,2.844,3.987,4.547,6.897,4.547    c0.986,0,1.988-0.196,2.951-0.608c3.807-1.632,5.571-6.041,3.939-9.848l-43.616-101.771h84.819    c12.976,0,23.532-10.557,23.532-23.532V71.628C512,58.652,501.443,48.096,488.468,48.096z M113.922,408.822l10.749-25.081H248.5    v25.081H113.922z M497,360.208c0,4.705-3.828,8.532-8.532,8.532H376.244c-4.142,0-7.5,3.358-7.5,7.5s3.358,7.5,7.5,7.5h11.085    l10.749,25.081H263.5v-25.081h80.675c4.142,0,7.5-3.358,7.5-7.5s-3.358-7.5-7.5-7.5H23.532c-4.705,0-8.532-3.828-8.532-8.532    V71.628c0-4.705,3.828-8.532,8.532-8.532h464.936c4.705,0,8.532,3.828,8.532,8.532V360.208z"/>
		<path d="M223.936,248.499h-80.161c-4.142,0-7.5,3.358-7.5,7.5s3.358,7.5,7.5,7.5h80.161c4.142,0,7.5-3.358,7.5-7.5    S228.078,248.499,223.936,248.499z"/>
		<path d="M106.406,234.664l-26.761,26.761l-10.729-10.729c-2.929-2.929-7.678-2.929-10.606,0c-2.929,2.929-2.929,7.678,0,10.606    l16.032,16.032c1.464,1.464,3.384,2.197,5.303,2.197s3.839-0.732,5.303-2.197l32.064-32.064c2.929-2.929,2.929-7.678,0-10.606    C114.084,231.735,109.335,231.735,106.406,234.664z"/>
		<path d="M223.936,312.628h-80.161c-4.142,0-7.5,3.358-7.5,7.5s3.358,7.5,7.5,7.5h80.161c4.142,0,7.5-3.358,7.5-7.5    S228.078,312.628,223.936,312.628z"/>
		<path d="M440.371,248.499h-80.162c-4.142,0-7.5,3.358-7.5,7.5s3.358,7.5,7.5,7.5h80.162c4.142,0,7.5-3.358,7.5-7.5    S444.513,248.499,440.371,248.499z"/>
		<path d="M440.371,312.628h-80.162c-4.142,0-7.5,3.358-7.5,7.5s3.358,7.5,7.5,7.5h80.162c4.142,0,7.5-3.358,7.5-7.5    S444.513,312.628,440.371,312.628z"/>
		<path d="M322.842,298.792l-26.761,26.761l-10.729-10.729c-2.929-2.929-7.678-2.929-10.606,0c-2.929,2.929-2.929,7.678,0,10.606    l16.032,16.032c1.464,1.464,3.384,2.197,5.303,2.197s3.839-0.732,5.303-2.197l32.064-32.064c2.929-2.929,2.929-7.678,0-10.606    C330.52,295.864,325.771,295.864,322.842,298.792z"/>
		<path d="M367.709,207.902v-24.048c0-4.142-3.358-7.5-7.5-7.5s-7.5,3.358-7.5,7.5v5.942l-30.506-30.506h21.974    c12.976,0,23.532-10.557,23.532-23.532v-16.033c0-12.976-10.557-23.532-23.532-23.532H207.903c-4.142,0-7.5,3.358-7.5,7.5    s3.358,7.5,7.5,7.5h136.274c4.705,0,8.532,3.828,8.532,8.532v16.033c0,4.705-3.828,8.532-8.532,8.532H167.823    c-4.705,0-8.532-3.828-8.532-8.532v-16.033c0-4.705,3.828-8.532,8.532-8.532h8.014c4.142,0,7.5-3.358,7.5-7.5s-3.358-7.5-7.5-7.5    h-8.014c-12.976,0-23.532,10.557-23.532,23.532v16.033c0,12.976,10.557,23.532,23.532,23.532h21.974l-30.506,30.506v-5.942    c0-4.142-3.358-7.5-7.5-7.5s-7.5,3.358-7.5,7.5v24.048c0,4.142,3.358,7.5,7.5,7.5h24.048c4.142,0,7.5-3.358,7.5-7.5    s-3.358-7.5-7.5-7.5h-5.942l41.113-41.113h89.98l41.113,41.113h-5.942c-4.142,0-7.5,3.358-7.5,7.5s3.358,7.5,7.5,7.5h24.048    C364.352,215.402,367.709,212.044,367.709,207.902z"/>
		<path d="M282.761,277.334c1.464,1.464,3.384,2.197,5.303,2.197s3.839-0.732,5.303-2.197l10.729-10.729l10.729,10.729    c1.464,1.464,3.384,2.197,5.303,2.197s3.839-0.732,5.303-2.197c2.929-2.929,2.929-7.678,0-10.606l-10.729-10.729l10.729-10.729    c2.929-2.929,2.929-7.678,0-10.606c-2.929-2.929-7.678-2.929-10.606,0l-10.729,10.729l-10.729-10.729    c-2.929-2.929-7.678-2.929-10.606,0c-2.929,2.929-2.929,7.678,0,10.606l10.729,10.729l-10.729,10.729    C279.832,269.657,279.832,274.406,282.761,277.334z"/>
		<path d="M100.98,298.792c-2.929-2.929-7.678-2.929-10.606,0l-10.729,10.729l-10.729-10.729c-2.929-2.929-7.678-2.929-10.606,0    c-2.929,2.929-2.929,7.678,0,10.606l10.729,10.729L58.31,330.857c-2.929,2.929-2.929,7.678,0,10.606    c1.464,1.464,3.384,2.197,5.303,2.197s3.839-0.732,5.303-2.197l10.729-10.729l10.729,10.729c1.464,1.464,3.384,2.197,5.303,2.197    s3.839-0.732,5.303-2.197c2.929-2.929,2.929-7.678,0-10.606l-10.729-10.729l10.729-10.729    C103.91,306.47,103.91,301.721,100.98,298.792z"/>
	</g>
</g>















</svg>
