<svg xmlns="http://www.w3.org/2000/svg" viewBox="0 0 511.997 511.997"><g fill="#77533e"><path d="M142.226 462.879l.002-.005c-8.899 22.675-21.899 41.555-39.702 41.555 0 0 39.855 1.403 97.873-10.719-22.3-6.232-42.391-16.472-58.173-30.831zM369.787 462.879l-.002-.005c8.899 22.675 21.899 41.555 39.702 41.555 0 0-39.855 1.403-97.873-10.719 22.301-6.232 42.393-16.472 58.173-30.831z"/></g><path d="M102.527 357.387c46.181 0 58.004 30.295 51.354 64.285-6.817 34.843-22.991 82.758-51.354 82.758s-44.537-47.914-51.354-82.758c-6.65-33.99 5.173-64.285 51.354-64.285z" fill="#c6946a"/><path d="M102.527 383.352c26.364 0 33.113 18.445 29.317 39.139-3.892 21.214-13.125 50.386-29.317 50.386s-25.424-29.172-29.317-50.386c-3.795-20.693 2.953-39.139 29.317-39.139z" fill="#8c6348"/><path d="M409.488 357.387c-46.181 0-58.004 30.295-51.354 64.285 6.817 34.843 22.991 82.758 51.354 82.758s44.537-47.914 51.354-82.758c6.649-33.99-5.173-64.285-51.354-64.285z" fill="#c6946a"/><g fill="#8c6348"><path d="M142.97 219.247S9.951 304.792 64.753 368.335l.012.014c8.479-6.86 20.794-10.962 37.762-10.962 2.039 0 3.987.08 5.893.195 5.32-43.926 25.787-88.405 58.76-117.852.2.119.412.226.614.345-9.587-5.608-17.969-12.5-24.824-20.828zM369.045 219.247s133.019 85.545 78.217 149.088l-.012.014c-8.479-6.86-20.794-10.962-37.762-10.962-2.039 0-3.988.08-5.893.195-5.32-43.926-25.787-88.405-58.76-117.852-.2.119-.412.226-.614.345 9.586-5.608 17.968-12.5 24.824-20.828zM364.956 7.514c-18.413 0-33.723 13.2-37.031 30.65 17.392 11.195 31.841 26.409 42.38 44.39 18.294-2.598 32.365-18.314 32.365-37.326-.001-20.829-16.886-37.714-37.714-37.714zM184.09 38.165c-3.307-17.45-18.619-30.65-37.031-30.65-20.829 0-37.714 16.886-37.714 37.714 0 19.012 14.071 34.728 32.365 37.326 10.539-17.982 24.989-33.196 42.38-44.39z"/></g><g fill="#5e4132"><path d="M167.795 41.16c-1.866-9.841-10.5-17.286-20.884-17.286-11.747 0-21.27 9.522-21.27 21.27 0 10.723 7.936 19.586 18.253 21.051 5.943-10.141 14.092-18.721 23.901-25.035zM344.22 41.16c1.866-9.841 10.5-17.286 20.884-17.286 11.747 0 21.27 9.522 21.27 21.27 0 10.723-7.936 19.586-18.253 21.051-5.944-10.141-14.093-18.721-23.901-25.035z"/></g><path d="M256.007 501.028c43.704 0 85.607-12.516 113.78-38.149-5.279-13.45-9.116-28.234-11.653-41.207-6.356-32.489 4.188-61.582 45.46-64.09-5.32-43.926-25.787-88.405-58.76-117.852-23.614 14.019-54.725 20.077-88.826 20.077s-65.213-6.058-88.826-20.077c-32.974 29.447-53.44 73.927-58.76 117.852 41.272 2.508 51.817 31.6 45.46 64.09-2.538 12.973-6.375 27.758-11.653 41.207 28.171 25.633 70.074 38.149 113.778 38.149z" fill="#b27c57"/><path d="M256.007 468.787c-39.688 0-77.887-10.323-105.672-31.415-2.185 8.522-4.873 17.265-8.109 25.508 28.173 25.632 70.076 38.149 113.78 38.149s85.607-12.516 113.78-38.149c-3.235-8.244-5.923-16.986-8.109-25.508-27.782 21.091-65.983 31.415-105.67 31.415z" fill="#8c6348"/><path d="M256.007 17.399c76.898 0 133.657 61.739 133.657 137.898s-59.84 104.51-133.657 104.51-133.657-28.351-133.657-104.51S179.108 17.399 256.007 17.399z" fill="#c6946a"/><path d="M256.007 232.755c-69.399 0-126.438-25.064-133.017-91.35a151.024 151.024 0 00-.639 13.892c0 76.159 59.84 104.51 133.657 104.51s133.657-28.352 133.657-104.51c0-4.689-.217-9.323-.639-13.892-6.581 66.286-63.621 91.35-133.019 91.35z" fill="#b27c57"/><g fill="#77533e"><path d="M369.045 219.247c-6.855 8.328-15.237 15.22-24.825 20.829.201-.118.413-.225.614-.345 8.154 7.282 15.54 15.485 22.124 24.37 11.79-6.55 21.813-14.639 29.623-24.428-15.416-12.63-27.536-20.426-27.536-20.426zM142.97 219.247s-12.12 7.796-27.536 20.426c7.81 9.789 17.832 17.878 29.623 24.428 6.585-8.884 13.97-17.088 22.124-24.37.201.119.412.226.614.345-9.588-5.609-17.97-12.501-24.825-20.829z"/></g><path d="M344.834 239.73c-23.614 14.019-54.725 20.077-88.826 20.077s-65.213-6.057-88.826-20.077c-8.154 7.282-15.54 15.485-22.124 24.37 28.682 15.934 67.81 22.759 110.951 22.759s82.269-6.826 110.951-22.759c-6.587-8.884-13.972-17.088-22.126-24.37z" fill="#8c6348"/><path d="M282.266 142.303c0-13.552-52.519-13.552-52.519 0s11.757 24.538 26.26 24.538c14.503.001 26.259-10.986 26.259-24.538z" fill="#494949"/><path d="M409.488 383.352c-26.364 0-33.113 18.445-29.317 39.139 3.892 21.214 13.125 50.386 29.317 50.386s25.424-29.172 29.316-50.386c3.795-20.693-2.954-39.139-29.316-39.139z" fill="#8c6348"/><path d="M184.755 140.681c6.501 0 11.79-5.288 11.79-11.789s-5.288-11.79-11.79-11.79c-6.5 0-11.789 5.288-11.789 11.79.002 6.501 5.29 11.789 11.789 11.789zM327.258 140.681c6.501 0 11.79-5.288 11.79-11.789s-5.288-11.79-11.79-11.79c-6.5 0-11.789 5.288-11.789 11.79 0 6.501 5.288 11.789 11.789 11.789zM248.492 173.547v27.997a7.513 7.513 0 007.514 7.514 7.514 7.514 0 007.515-7.514v-27.997c15.016-3.252 26.26-16.021 26.26-31.243 0-13.034-17.447-17.678-33.774-17.678s-33.774 4.644-33.774 17.678c0 15.222 11.243 27.99 26.259 31.243zm7.515-33.893c10.221 0 16.795 2.152 18.719 3.566-.525 8.962-8.721 16.107-18.719 16.107-9.998 0-18.193-7.145-18.719-16.107 1.924-1.414 8.498-3.566 18.719-3.566z"/><path d="M364.866 416.549a94.589 94.589 0 01-.173-1.17c-.977-6.963-1.231-14.926.512-22.437l.002-.009c.094-.405.195-.808.302-1.209l.073-.273c.085-.315.174-.627.268-.94.041-.137.082-.276.124-.411.083-.268.169-.536.258-.803.051-.153.101-.309.154-.459.097-.281.199-.559.303-.837l.131-.357c.15-.39.307-.779.471-1.163.028-.067.058-.131.087-.197.147-.342.3-.681.458-1.019l.082-.173a32.117 32.117 0 013.578-5.837c6.568-8.489 17.52-13.256 32.555-14.169 1.075-.065 2.06-.111 3-.141a92.83 92.83 0 012.439-.041c.904 0 1.792.014 2.67.038 13.022.37 23.228 3.477 30.366 9.251.222.18.467.325.705.477 7.81 6.665 11.77 16.72 11.81 30.132a7.514 7.514 0 007.514 7.492h.022a7.515 7.515 0 007.492-7.537c-.044-15.061-4.436-27.849-12.724-37.158 8.868-12.67 12.24-26.84 10.013-42.218-6.921-47.791-67.014-93.549-87.53-107.906 11.527-16.863 17.351-37.654 17.351-62.177 0-24.209-5.452-47.394-15.721-67.974 16.919-6.674 28.726-23.275 28.726-42.094C410.183 20.289 389.894 0 364.956 0c-18.165 0-34.209 10.842-41.323 26.872-20.306-11.098-43.38-16.988-67.625-16.988-24.247 0-47.32 5.889-67.625 16.987C181.268 10.842 165.225 0 147.059 0 122.12 0 101.83 20.289 101.83 45.228c0 18.819 11.807 35.42 28.726 42.094-10.27 20.58-15.721 43.766-15.721 67.974 0 24.528 5.827 45.323 17.359 62.188-7.006 4.919-18.706 13.566-31.398 24.767a7.514 7.514 0 00-.661 10.606 7.513 7.513 0 0010.606.661c12.621-11.139 24.422-19.771 30.968-24.34 4.026 4.192 8.497 8.072 13.42 11.629-.404.406-.799.822-1.198 1.232-.346.355-.692.707-1.035 1.065-.644.674-1.28 1.358-1.916 2.044-.266.287-.534.569-.798.858a170.08 170.08 0 00-2.642 2.964c-.168.193-.332.392-.499.585-.7.812-1.397 1.628-2.084 2.455-.312.375-.617.756-.927 1.134-.536.656-1.071 1.314-1.599 1.978-.34.428-.675.861-1.011 1.292a170.254 170.254 0 00-3.877 5.163c-.334.462-.667.925-.998 1.39a197.84 197.84 0 00-1.377 1.972c-.315.456-.63.91-.941 1.369-.483.713-.958 1.435-1.432 2.156-.271.412-.545.821-.813 1.235-.636.986-1.262 1.98-1.883 2.98-.1.162-.204.322-.305.484a188.487 188.487 0 00-2.072 3.45c-.244.417-.483.84-.724 1.258-.442.766-.882 1.531-1.314 2.303-.274.489-.541.982-.811 1.474a177.804 177.804 0 00-3.076 5.841 180.091 180.091 0 00-1.855 3.771c-.249.52-.499 1.04-.744 1.563-.363.772-.716 1.55-1.07 2.328-.22.486-.444.97-.66 1.458-.414.932-.818 1.871-1.218 2.811-.144.339-.294.674-.437 1.014a201.822 201.822 0 00-1.567 3.842c-.148.375-.29.753-.437 1.13a207.54 207.54 0 00-1.067 2.785c-.188.504-.369 1.011-.553 1.517-.297.816-.592 1.631-.88 2.452-.189.541-.375 1.085-.56 1.629a216.555 216.555 0 00-1.339 4.057c-.256.807-.508 1.615-.755 2.426-.166.546-.334 1.093-.496 1.641-.25.846-.493 1.694-.733 2.544-.146.516-.294 1.03-.436 1.547-.266.967-.52 1.937-.771 2.909-.104.401-.212.8-.315 1.2a214.857 214.857 0 00-1.008 4.155c-.04.174-.076.351-.116.525a223.88 223.88 0 00-.805 3.652c-.096.458-.185.919-.279 1.378-.192.944-.382 1.888-.561 2.835-.1.527-.194 1.056-.29 1.584-.161.89-.32 1.779-.47 2.672-.092.549-.181 1.099-.27 1.649-.07.436-.146.87-.214 1.306-1.047.006-2.077.031-3.099.067-.314.011-.623.026-.935.04-.888.039-1.765.089-2.633.15-.336.023-.675.042-1.008.069a88.608 88.608 0 00-5.672.652c-8.459 1.238-15.85 3.669-22.137 7.276-14.898-22.443-7.078-50.685 23.317-84.063a7.515 7.515 0 00-11.111-10.118C34.44 312.451 39.86 346.417 54.678 367.609c-.395.444-.799.878-1.177 1.338-10.733 13.035-14.09 31.764-9.707 54.162 5.21 26.634 21.321 88.481 58.423 88.821l.042.003c.306.01 1.892.061 4.641.061 12.069 0 46.53-.978 93.102-10.538 17.285 4.656 36.132 7.082 56.002 7.082s38.717-2.426 56.002-7.082c46.576 9.561 81.035 10.538 93.101 10.538 2.748 0 4.335-.05 4.641-.061.044-.001.086-.009.129-.011 13.903-.163 26.185-8.908 36.506-26.025 9.325-15.466 15.343-35.11 18.748-48.864a7.516 7.516 0 00-14.589-3.612c-9.844 39.755-25.194 63.489-41.058 63.489-.302 0-.602-.011-.901-.027-.113-.006-.227-.016-.342-.025a17.384 17.384 0 01-.978-.102c-.16-.021-.32-.046-.479-.072-.151-.025-.303-.05-.456-.08-.156-.03-.312-.064-.468-.098-.149-.033-.298-.065-.448-.102a18.203 18.203 0 01-.555-.15c-.115-.033-.23-.063-.347-.098a18.405 18.405 0 01-.887-.294h-.002c-17.435-6.299-30.439-39.835-37.086-70.623l-.001-.007c-.109-.505-.215-1.008-.321-1.511l-.153-.741-.2-.972c-.123-.607-.242-1.204-.356-1.781-.119-.61-.228-1.209-.333-1.805l-.078-.441c-.078-.482-.154-.958-.227-1.432zm.09-401.52c16.651 0 30.199 13.547 30.199 30.199 0 13.313-8.843 24.963-21.219 28.828-4.89-7.646-10.508-14.832-16.825-21.454s-13.195-12.522-20.535-17.676c4.255-11.768 15.524-19.897 28.38-19.897zM116.86 45.228c0-16.652 13.548-30.199 30.199-30.199 12.856 0 24.124 8.129 28.38 19.897a137.793 137.793 0 00-20.535 17.676 141.689 141.689 0 00-16.824 21.454c-12.378-3.865-21.22-15.515-21.22-28.828zm31.187 41.344c.047-.074.103-.141.147-.217 9.907-16.905 23.667-31.339 39.798-41.761 19.865-12.817 43.246-19.681 68.016-19.681s48.15 6.864 68.016 19.681c16.131 10.421 29.891 24.855 39.798 41.761.045.076.1.143.147.217 11.842 20.277 18.181 43.887 18.181 68.725 0 24.565-6.632 44.704-19.744 60.143a83.194 83.194 0 01-1.904 2.162c-5.587 6.075-12.31 11.441-20.054 15.975l-.034.02a106.215 106.215 0 01-6.57 3.525c-17.781 8.714-40.351 13.792-66.46 14.923-1.487.062-2.976.121-4.488.158-.375.01-.754.014-1.13.022a280.15 280.15 0 01-5.759.066c-1.943 0-3.856-.027-5.759-.066-.376-.008-.755-.012-1.13-.022a259.558 259.558 0 01-4.488-.158c-26.109-1.132-48.679-6.209-66.46-14.923a112.661 112.661 0 01-3.472-1.779 100.8 100.8 0 01-3.098-1.746l-.033-.019c-7.744-4.534-14.467-9.9-20.054-15.975a73.16 73.16 0 01-1.904-2.163c-13.113-15.44-19.745-35.578-19.745-60.143.001-24.839 6.341-48.448 18.183-68.725zm-89.5 333.657c-4.41-22.543 1.133-35.133 6.561-41.724a30.427 30.427 0 014.34-4.285c.014-.011.029-.018.043-.029a32.813 32.813 0 013.007-2.16l.031-.02c2.617-1.663 5.563-3.036 8.827-4.117l.201-.067a49.187 49.187 0 011.822-.554c.112-.032.226-.062.34-.093a52.353 52.353 0 011.866-.483l.167-.037a61.672 61.672 0 015.814-1.055c.384-.051.765-.105 1.155-.151.446-.053.9-.098 1.354-.143a81.073 81.073 0 012.692-.221 79.133 79.133 0 011.798-.093c.341-.015.677-.033 1.022-.043.965-.03 1.941-.049 2.938-.049.828 0 1.633.02 2.439.041.939.03 1.925.076 3 .141 15.035.914 25.987 5.68 32.555 14.169 7.504 9.7 8.329 22.694 7.106 33.717a83.65 83.65 0 01-.315 2.492l-.038.257a69.23 69.23 0 01-.143.961l-.07.433c-.041.257-.082.516-.125.771-.038.223-.077.443-.117.664-.03.172-.06.346-.091.516-.072.393-.145.78-.22 1.164-.113.576-.232 1.173-.356 1.781l-.199.972-.153.741c-.105.503-.212 1.007-.321 1.511l-.001.007c-6.648 30.788-19.651 64.324-37.085 70.623h-.002c-.295.106-.59.203-.887.294-.117.035-.231.065-.347.098a17.45 17.45 0 01-.555.15c-.15.037-.3.069-.448.102-.155.034-.312.068-.468.098a19.878 19.878 0 01-1.357.204c-.184.02-.37.036-.556.05-.114.009-.229.019-.342.025-.3.016-.599.027-.901.027-21.388.001-37.059-41.31-43.981-76.685zm73.941 75.635c4.545-5.511 8.77-12.426 12.665-20.742.079.061.161.119.24.18.421.323.851.635 1.275.954.57.427 1.136.857 1.716 1.274.515.373 1.042.734 1.564 1.1.493.346.979.697 1.478 1.037 6.361 4.337 13.208 8.208 20.473 11.605-15.279 2.385-28.626 3.78-39.411 4.592zm19.163-34.792c-.182-.149-.367-.299-.548-.449 3.894-10.813 6.706-21.567 8.655-30.345l.144-.653.22-1.008.331-1.548.122-.588.249-1.213.111-.546c.104-.515.205-1.022.302-1.515l.018-.092c.27-1.376.508-2.737.718-4.086.098-.627.169-1.24.254-1.862.097-.707.206-1.421.287-2.12.095-.825.161-1.633.234-2.446.043-.476.098-.96.133-1.432.069-.932.107-1.848.146-2.763.014-.338.04-.681.05-1.017.03-.996.031-1.975.025-2.95-.002-.242.006-.491.002-.732a75.77 75.77 0 00-.117-3.045c-.01-.179-.013-.364-.025-.542a68.89 68.89 0 00-.27-3.072c-.015-.139-.025-.281-.041-.42a65.27 65.27 0 00-.426-3.05c-.019-.114-.033-.231-.052-.345a61.17 61.17 0 00-.582-2.988c-.023-.102-.041-.207-.065-.31a56.99 56.99 0 00-.732-2.889c-.029-.103-.055-.208-.084-.311a53.666 53.666 0 00-.876-2.765c-.038-.109-.072-.221-.111-.331a51.383 51.383 0 00-1.011-2.629c-.049-.119-.096-.24-.146-.359a49.575 49.575 0 00-1.137-2.486c-.064-.13-.125-.263-.19-.392a48.012 48.012 0 00-1.257-2.339c-.08-.14-.159-.283-.24-.422a46.755 46.755 0 00-1.374-2.198c-.097-.146-.192-.294-.291-.439a46.284 46.284 0 00-1.494-2.071c-.062-.081-.117-.168-.179-.249-.061-.078-.127-.152-.188-.23-.226-.289-.437-.59-.67-.873-.191-.232-.4-.448-.595-.676-.105-.123-.214-.242-.322-.365a46.024 46.024 0 00-4.921-4.844l-.042-.036a45.74 45.74 0 00-1.772-1.415l-.237-.18c-7.151-5.383-16.073-8.9-26.7-10.516l.035-.226c.088-.537.185-1.072.278-1.609.129-.749.257-1.499.396-2.247.105-.57.218-1.138.329-1.707.138-.712.277-1.425.423-2.136.119-.581.245-1.16.37-1.739.15-.697.302-1.395.46-2.091a209.711 209.711 0 011.89-7.612 187.097 187.097 0 011.06-3.782c.163-.561.327-1.123.494-1.682.21-.699.428-1.396.645-2.092.169-.543.338-1.086.512-1.627.232-.722.474-1.441.715-2.159.171-.511.339-1.023.514-1.532.272-.789.553-1.572.835-2.357.155-.432.305-.867.463-1.298.441-1.204.893-2.404 1.357-3.597.054-.139.112-.278.166-.417.417-1.063.84-2.123 1.274-3.177.174-.424.357-.843.534-1.264.321-.764.642-1.528.972-2.287.208-.479.424-.954.636-1.431.311-.696.62-1.394.938-2.085.228-.497.462-.99.694-1.484.313-.665.625-1.33.945-1.991.242-.502.49-1.001.736-1.499.321-.648.643-1.294.97-1.938.253-.498.51-.993.766-1.488a204.458 204.458 0 011.798-3.375 202.5 202.5 0 011.047-1.888c.269-.478.536-.955.809-1.429.364-.633.732-1.262 1.102-1.891.271-.459.54-.919.814-1.375.389-.646.784-1.285 1.178-1.925.265-.427.526-.857.794-1.28.43-.682.868-1.358 1.306-2.032.242-.374.482-.751.727-1.123a173.71 173.71 0 011.647-2.443c.147-.215.292-.435.44-.649.708-1.025 1.427-2.04 2.154-3.045.167-.231.34-.458.509-.688.56-.765 1.122-1.529 1.694-2.282.265-.35.535-.691.802-1.038.483-.626.965-1.252 1.455-1.87.304-.383.612-.759.919-1.138.462-.571.924-1.142 1.393-1.705.327-.393.656-.78.986-1.168.457-.539.916-1.077 1.38-1.609.342-.392.686-.78 1.031-1.168a146.061 146.061 0 013.864-4.186 142.725 142.725 0 013.619-3.649c.151-.147.306-.291.458-.438.242.128.496.246.739.374 6.878 3.597 14.338 6.658 22.363 9.179l.505.159c1.521.472 3.063.925 4.625 1.358l.709.194c1.56.426 3.135.837 4.734 1.223.174.042.353.081.528.123 6.491 1.55 13.307 2.785 20.438 3.706.768.099 1.532.204 2.308.297 1.205.143 2.427.27 3.649.395 1.012.104 2.028.204 3.052.297 1.112.099 2.231.191 3.358.277 1.2.091 2.412.17 3.628.245 1.015.062 2.028.125 3.054.175 1.457.072 2.932.125 4.411.174.833.028 1.657.064 2.498.084 2.349.057 4.718.091 7.121.091 2.403 0 4.773-.034 7.122-.091.839-.02 1.662-.057 2.494-.084 1.481-.049 2.957-.102 4.416-.174 1.025-.05 2.037-.113 3.05-.175a234.905 234.905 0 006.987-.522c1.024-.092 2.039-.192 3.052-.297 1.223-.125 2.444-.253 3.649-.395.776-.092 1.541-.197 2.309-.297 7.131-.921 13.947-2.156 20.437-3.706.175-.042.354-.081.529-.123 1.599-.388 3.173-.799 4.733-1.223.236-.065.475-.128.71-.194 1.562-.434 3.104-.886 4.626-1.359l.502-.158c8.036-2.525 15.505-5.59 22.391-9.194.229-.119.468-.23.696-.352.452.435.905.868 1.353 1.309.651.642 1.303 1.286 1.945 1.943.756.773 1.501 1.563 2.244 2.357.617.659 1.236 1.318 1.844 1.99.745.825 1.478 1.669 2.209 2.514.584.674 1.17 1.345 1.745 2.033.734.879 1.453 1.777 2.171 2.676.549.687 1.104 1.367 1.644 2.066.726.939 1.434 1.901 2.143 2.861.51.689 1.027 1.37 1.529 2.07.728 1.017 1.435 2.061 2.145 3.101.46.673.929 1.335 1.381 2.018.766 1.157 1.508 2.344 2.252 3.528.372.592.755 1.17 1.122 1.769a178.514 178.514 0 013.219 5.471 7.515 7.515 0 0013.086-7.391 198.703 198.703 0 00-2.831-4.834c-.178-.296-.355-.592-.534-.886a193.652 193.652 0 00-2.857-4.541c-.176-.273-.356-.541-.534-.813a184.947 184.947 0 00-3.021-4.473l-.08-.117a184.352 184.352 0 00-3.193-4.408c-.199-.268-.398-.536-.599-.803a177.35 177.35 0 00-3.221-4.147c-.183-.229-.37-.455-.554-.682a172.54 172.54 0 00-3.303-3.966c-.066-.077-.131-.156-.198-.233a169.717 169.717 0 00-3.514-3.935l-.684-.742a168.544 168.544 0 00-3.552-3.707c-.062-.063-.121-.129-.183-.191 4.921-3.556 9.392-7.435 13.417-11.625 18.049 12.624 76.093 56.203 82.185 98.363 1.623 11.23-.628 21.299-6.874 30.604-4.091-2.348-8.644-4.199-13.648-5.549-.113-.031-.226-.06-.34-.09-1.895-.5-3.852-.93-5.874-1.288a82.88 82.88 0 00-2.7-.434 82.567 82.567 0 00-1.792-.231 89.624 89.624 0 00-7.459-.591c-.268-.011-.532-.026-.802-.034-.951-.031-1.909-.052-2.881-.057a208.078 208.078 0 00-.934-5.525c-.069-.382-.151-.761-.223-1.143a208.425 208.425 0 00-.932-4.684c-.143-.675-.301-1.348-.45-2.021a216.76 216.76 0 00-.874-3.794c-.179-.742-.369-1.483-.556-2.223a212.741 212.741 0 00-1.567-5.843c-.34-1.194-.692-2.386-1.053-3.575-.22-.727-.44-1.456-.668-2.181a216.939 216.939 0 00-1.23-3.759c-.215-.642-.424-1.286-.645-1.927-.543-1.568-1.11-3.13-1.69-4.687-.105-.283-.199-.567-.307-.85l-.017-.04-.056-.154a7.514 7.514 0 10-14.054 5.323 200.758 200.758 0 011.888 5.221c.189.546.366 1.095.55 1.642.402 1.191.797 2.384 1.174 3.58.207.658.408 1.318.609 1.978a205.484 205.484 0 011.552 5.359c.317 1.156.618 2.315.914 3.477.156.614.318 1.226.467 1.842a194.41 194.41 0 011.037 4.491c.06.276.128.549.187.825.38 1.77.73 3.545 1.06 5.323.1.541.188 1.084.285 1.626.163.923.316 1.846.465 2.769-10.625 1.617-19.545 5.135-26.692 10.517l-.228.174c-.605.461-1.2.933-1.779 1.421l-.031.027a45.997 45.997 0 00-4.935 4.857c-.105.12-.212.237-.316.359-.196.229-.405.445-.597.678-.233.284-.444.584-.67.874-.061.078-.127.151-.188.23-.063.081-.117.168-.18.249a45.499 45.499 0 00-1.494 2.071c-.098.145-.194.293-.291.439-.476.718-.936 1.45-1.374 2.197-.082.14-.16.283-.241.424a46.673 46.673 0 00-1.256 2.338c-.065.13-.126.262-.19.393a48.66 48.66 0 00-1.137 2.485c-.05.118-.097.24-.146.36a52.332 52.332 0 00-1.011 2.629c-.038.109-.073.22-.111.331a55.646 55.646 0 00-.876 2.765c-.029.102-.055.207-.084.311a56.99 56.99 0 00-.732 2.889c-.023.102-.042.207-.065.311a60.898 60.898 0 00-.582 2.987c-.019.114-.033.231-.052.347a65.413 65.413 0 00-.426 3.049c-.016.139-.026.282-.041.421a70.239 70.239 0 00-.269 3.071c-.011.179-.015.364-.025.543a75.72 75.72 0 00-.117 3.044c-.004.242.004.491.002.734-.006.975-.005 1.954.025 2.949.01.334.036.676.05 1.012.039.918.078 1.836.147 2.768.034.469.09.949.132 1.422.073.817.139 1.629.235 2.457.079.687.186 1.389.282 2.084.087.633.159 1.258.26 1.898.21 1.348.449 2.708.718 4.084.103.527.212 1.073.324 1.627l.102.503c.085.417.172.841.262 1.271l.112.541a298.243 298.243 0 00.548 2.549l.152.687c1.948 8.775 4.76 19.524 8.651 30.329-.181.15-.366.3-.548.449-25.351 20.676-62.982 32.442-104.355 32.442s-79.012-11.783-104.363-32.459zm188.462 30.201c7.264-3.398 14.112-7.269 20.473-11.605.499-.34.985-.691 1.478-1.037.522-.366 1.049-.727 1.564-1.1.579-.419 1.145-.849 1.716-1.274.425-.318.856-.631 1.275-.954.079-.061.161-.119.241-.18 3.896 8.315 8.119 15.231 12.664 20.742-10.783-.813-24.13-2.208-39.411-4.592z"/></svg>