<?xml version="1.0" encoding="UTF-8"?>
<svg viewBox="0 0 640 480" xmlns="http://www.w3.org/2000/svg">
 <switch>
  <g fill-rule="evenodd" stroke="#000" stroke-miterlimit="10" stroke-width=".036">
   <path d="m161.75 34.501c-9.792-6.84-19.044-10.26-28.044-10.404-9.108-0.144-18.648 4.14-25.848 9.648-7.344 5.436-13.788 14.004-17.1 23.22-3.276 9.18-4.464 22.788-2.196 31.536 2.16 8.64 7.272 15.264 15.336 20.16-1.62 7.164-2.592 13.392-3.06 18.828-0.576 5.436-0.756 7.236 0.43201 13.572 1.224 6.228 3.564 13.968 7.02 23.652-16.308 19.656-29.412 37.44-40.284 54.324-10.908 16.775-19.404 29.016-24.12 46.008-4.716 17.028-8.424 43.2-3.924 55.188 4.536 11.736 18.324 15.553 30.672 15.337 12.348-0.324 26.136-5.977 42.48-17.101-5.832 6.948-9.828 15.804-12.276 27.396-2.484 11.556-5.58 28.476-2.196 41.184 3.312 12.528 8.676 23.544 22.356 33.732 13.86 10.115 41.868 24.479 59.58 26.712 17.496 2.016 35.82-6.265 45.108-14.004 9.071-7.885 9-19.944 9.647-32.005 0.576-12.096-1.512-24.911-6.12-39.42h12.276c-2.16 9.864-2.268 19.549-0.468 29.341 1.8 9.827 5.651 19.979 11.412 28.943 5.688 8.82 11.483 18.828 22.788 23.652 11.34 4.716 31.14 7.271 44.243 4.355 12.925-3.168 24.841-12.743 32.832-22.752 7.668-10.151 11.881-23.724 14.04-36.827 2.124-13.213 1.044-30.133-0.89899-41.185-2.052-11.016-5.652-17.388-10.8-24.264-5.221-6.948-11.736-12.349-19.944-16.776 10.836 2.664 21.563 4.608 32.724 5.977 11.053 1.296 25.416 5.58 33.517 2.016 8.027-3.78 13.68-11.196 14.472-23.904 0.54001-12.815-5.184-36.863-10.512-52.128-5.364-15.336-8.208-27.216-21.024-38.988-13.032-11.952-31.355-22.14-56.088-31.536 5.148-14.076 8.316-26.856 9.648-38.88 1.296-12.06 0.75601-22.824-1.765-32.832 12.924-3.564 20.772-9.648 24.084-18.396 3.168-8.928 1.836-24.444-4.824-34.2-6.911-9.792-22.896-22.068-35.46-23.652-12.6-1.584-25.271 3.24-38.987 14.472-8.676-5.616-19.152-9.612-32.004-12.276-13.032-2.7-30.061-5.58-44.676-3.492-14.58 2.089-28.368 7.201-42.048 15.769z"/>
   <path d="m184.25 57.865c-10.512-7.848-19.368-13.968-27.144-18.756-7.704-4.788-12.42-8.82-19.152-9.576-6.912-0.864-15.624 1.188-21.96 4.788-6.444 3.6-12.492 10.332-16.344 16.74-4.032 6.372-6.66 14.256-7.2 21.168-0.576 6.768 0.756 13.932 3.996 19.548 3.204 5.472 8.208 10.044 15.156 13.572-2.448 4.716-3.96 9.972-4.392 16.344-0.46801 6.264 0.25201 13.824 1.62 21.168 1.26 7.236 1.764 14.508 5.976 21.96 4.248 7.452 12.816 15.732 18.756 21.924 5.724 5.976 8.172 9.288 15.948 13.968 7.776 4.608 17.712 9.036 30.348 13.572-1.404-4.428-2.52-8.64-3.204-12.78-0.79201-4.212-3.132-9.072-1.188-11.952 1.872-2.952 4.284-2.556 12.78-5.184 8.568-2.736 27.684-9.792 37.908-10.764 9.9-1.008 13.788 1.512 22.355 4.788 8.568 3.24 25.129 9.648 29.124 14.364 3.744 4.68-3.672 9.108-5.579 13.14-1.872 3.924-3.564 7.128-5.221 10.008 5.904 1.512 12.061 0.17999 18.756-3.996 6.66-4.284 14.832-12.78 21.168-21.168 6.408-8.532 12.133-20.232 16.345-29.124 3.924-8.856 6.084-15.552 7.596-23.544 1.404-8.28 1.296-17.316 1.188-24.732-0.181-7.38-0.79199-13.716-1.98-19.152 6.012-1.8 11.196-4.644 15.552-8.388 4.356-3.852 9.108-8.46 10.368-14.364 1.044-6.012 0.036011-14.508-3.563-21.168-3.673-6.804-11.881-14.4-17.965-18.756-6.264-4.284-12.203-6.264-18.359-6.768-6.12-0.576-9.937-1.512-17.964 3.168-8.137 4.716-18.108 12.564-30.313 24.372l-6.804-3.204c1.728-1.26 3.996-2.988 6.408-5.184 2.376-2.196 5.292-4.86 8.352-7.992-7.596-4.176-16.056-7.056-25.523-9.18-9.648-2.16-20.952-3.312-31.141-3.168-10.332 0.18-20.772 1.368-29.52 3.96-8.64 2.448-15.912 6.048-21.96 10.8l19.944 14.364c-1.044 1.728-2.088 3.456-3.168 5.184z" fill="#fff"/>
   <path d="m167.08 68.233c-7.668-6.156-14.796-10.188-21.924-11.952-7.236-1.908-15.228-1.512-20.376 1.188-5.22 2.736-9.792 8.208-9.972 14.76-0.144 6.408 2.916 14.112 9.18 23.544 12.024-1.08 21.456-3.78 28.728-8.388 7.236-4.608 11.88-10.944 14.364-19.152z"/>
   <path d="m160.71 69.421c-3.528-3.312-8.1-5.616-13.572-6.768-5.616-1.296-15.228-1.62-19.548-0.396-4.356 1.188-6.444 3.384-6.408 7.956 0.036003 4.536 2.304 10.836 6.804 19.188 9.828-1.8 17.136-4.284 22.752-7.596 5.472-3.384 8.748-7.416 9.972-12.384z" fill="#fff"/>
   <path d="m280.41 57.433c8.172-5.508 15.696-8.748 23.004-9.864 7.236-1.152 15.192-0.108 20.124 3.132 4.716 3.096 9 9.144 8.568 15.624-0.504 6.408-4.248 13.788-11.376 22.572-11.916-2.196-20.988-5.832-27.792-11.052-6.732-5.256-10.908-12.06-12.528-20.412z"/>
   <path d="m286.67 59.233c3.889-2.988 8.425-4.86 14.148-5.472 5.652-0.792 15.191-0.18 19.476 1.44 4.177 1.62 6.048 3.996 5.616 8.532-0.504 4.5-3.348 10.548-8.532 18.432-9.647-2.7-16.775-5.832-21.96-9.684-5.148-3.888-8.064-8.208-8.748-13.248z" fill="#fff"/>
   <path d="m167.73 153.48c1.548 9.144 9.756 15.336 18.36 13.896 8.568-1.476 14.256-10.08 12.708-19.188-1.584-9.144-9.792-15.336-18.36-13.86-8.604 1.44-14.292 10.044-12.708 19.152z"/>
   <path d="m173.2 151.82c1.044 6.084 6.516 10.224 12.24 9.252s9.54-6.696 8.496-12.78-6.516-10.224-12.24-9.252-9.54 6.696-8.496 12.78z" fill="#fff"/>
   <path d="m177.56 154.92c0.756 4.32 4.644 7.308 8.748 6.588 4.068-0.68401 6.804-4.788 6.048-9.108-0.756-4.356-4.644-7.308-8.748-6.624-4.068 0.71999-6.804 4.788-6.048 9.144z"/>
   <path d="m246.14 151.79c-0.61099 9.252 5.94 17.208 14.616 17.784s16.236-6.444 16.849-15.696c0.61099-9.216-5.94-17.172-14.616-17.748-8.713-0.57599-16.237 6.444-16.849 15.66z"/>
   <path d="m251.86 151.46c-0.396 6.156 3.96 11.448 9.756 11.844 5.796 0.36 10.836-4.32 11.232-10.476 0.39603-6.156-3.96-11.448-9.757-11.844-5.795-0.39598-10.799 4.32-11.231 10.476z" fill="#fff"/>
   <path d="m255.39 155.46c-0.324 4.392 2.808 8.208 6.947 8.46 4.141 0.28799 7.74-3.06 8.028-7.452 0.28799-4.392-2.844-8.208-6.984-8.46-4.14-0.28801-7.704 3.06-7.991 7.452z"/>
   <path d="m110.42 169.18c-6.12 7.848-12.672 16.884-19.944 27.54-7.452 10.62-17.244 25.704-23.544 35.928-6.228 10.08-10.152 15.408-13.572 24.335-3.636 8.856-6.264 19.404-7.596 28.729-1.404 9.216-2.88 19.8-0.396 26.748 2.556 6.876 9.144 12.132 15.192 14.364 5.76 2.052 11.016 1.296 19.944-1.584 9-2.881 19.944-8.028 33.516-15.589 0.468-13.392 2.412-26.1 5.976-38.699 3.528-12.672 9.972-26.028 15.156-36.324 5.112-10.404 10.044-18.504 15.192-25.128-7.812-5.076-14.868-10.8-21.564-17.568-6.696-6.804-12.816-14.256-18.36-22.752z" fill="#fff"/>
   <path d="m119.2 312.96c5.832-3.168 12.888-5.256 21.564-6.408 8.604-1.188 21.492-1.044 29.916-0.396 8.352 0.54001 12.96 1.08 19.944 3.996 6.876 2.916 16.02 8.424 21.168 13.176 4.968 4.607 6.408 9.071 9.18 14.364 2.736 5.22 5.076 10.655 7.164 16.739l12.385 0.433c0.576-6.48 2.304-12.601 5.184-18.36 2.844-5.904 5.4-11.736 11.952-16.38 6.516-4.645 18.72-8.82 26.748-11.16 7.812-2.448 13.176-2.736 20.376-3.204 7.271-0.57599 14.652-0.57599 22.716 0-1.512-10.979-3.456-21.168-6.372-31.14-2.844-10.116-6.156-18.216-10.764-28.332-4.788-10.152-10.332-20.592-17.172-31.896-3.889 2.628-7.164 4.572-9.973 5.976-2.808 1.368-3.995 2.16-6.768 2.376-2.88 0.144-6.3-0.43201-10.404-1.584-2.88 5.04-6.947 9.036-12.348 11.988-5.616 2.988-12.096 4.896-19.98 5.58-7.884 0.504-18.864-0.53999-26.711-2.016-8.064-1.512-15.372-4.14-20.376-6.768-5.04-2.772-7.92-5.652-9.18-9.18-4.176-1.116-8.028-2.268-11.952-3.6s-7.524-2.844-11.196-4.392c-5.22 7.38-9.684 15.444-13.932 24.336-4.248 8.819-7.704 16.092-11.196 28.764-3.565 12.708-6.841 28.224-9.973 47.088z" fill="#fff"/>
   <path d="m325.91 171.66c-2.664 5.868-5.508 11.232-8.388 16.38-3.097 5.076-6.156 10.008-9.181 13.968-3.06 3.852-5.939 6.912-8.783 9.18 3.563 6.264 6.983 12.852 10.403 20.34 3.349 7.417 6.156 12.384 9.973 23.94 3.852 11.592 7.92 26.172 12.744 44.712 8.604 2.521 17.208 4.464 26.352 5.977 9.072 1.439 20.232 3.527 27.936 2.808 7.633-0.75601 13.86-3.24 17.568-7.596 3.564-4.5 4.248-11.017 3.996-19.152-0.396-8.316-3.42-19.764-6.012-29.916-2.628-10.26-5.04-21.852-9.576-30.744-4.716-8.892-10.98-15.84-17.964-21.96-7.021-6.228-15.336-10.08-23.544-14.76-8.316-4.681-16.596-9.073-25.524-13.177z" fill="#fff"/>
   <path d="m167.41 438.35c-6.264-2.016-13.536-4.788-20.988-8.604-7.56-3.96-17.172-9.973-23.4-14.544-6.12-4.645-10.044-7.416-13.428-12.889-3.564-5.688-6.732-11.916-7.56-20.195-0.828-8.316 0.36-20.088 2.448-29.053 2.016-9.071 5.652-18.611 9.396-24.731 3.636-6.12 6.372-9 12.096-11.844 5.652-2.988 12.924-4.824 21.276-5.652 8.28-0.86401 18.432-1.656 27.684 0.54001 9.108 2.124 19.296 6.948 26.388 12.096 6.876 5.221 11.052 11.412 15.048 18.288 3.924 6.624 6.192 13.104 8.604 21.528 2.376 8.496 4.5 19.62 5.4 28.8 0.72 9.072 0.576 18.432-0.828 25.021-1.584 6.3-3.06 9.252-7.776 13.176-4.752 3.815-13.752 7.956-20.196 9.936-6.588 1.872-12.816 1.908-18.54 1.62-5.832-0.36197-9.468-1.477-15.624-3.493z" fill="#fff"/>
   <path d="m189.19 377.83c-9.396-2.988-16.488-1.836-24.192 0.54001-7.812 2.268-18.684 7.308-21.78 13.176-3.168 5.868-3.204 15.588 3.492 21.528 6.804 5.76 25.848 11.952 36.864 13.176 10.944 1.08 21.924-1.44 28.224-6.444 6.156-5.111 12.312-16.668 8.604-23.688-3.996-7.128-21.852-15.3-31.212-18.288z"/>
   <path d="m173.6 380.24c-4.644 1.116-13.392 3.312-18.036 6.443-4.716 2.952-9.972 6.769-9.396 11.305 0.68401 4.536 5.184 11.592 12.924 15.624 7.704 3.852 23.22 8.063 32.256 7.775 8.784-0.35901 16.38-5.939 20.448-9.936 3.96-4.212 5.544-10.26 3.24-14.544-2.52-4.393-12.276-8.244-17.748-11.017-5.544-2.771-10.8-4.464-14.796-5.363-4.068-0.93497-4.392-1.403-8.892-0.28696z" fill="#fff"/>
   <path d="m120.86 348.78c-2.448 2.124-6.768 6.443-6.984 11.304-0.144 4.788 0.9 13.716 5.904 17.46 4.968 3.6 18.612 7.2 23.436 4.572 4.716-2.772 6.66-14.58 4.284-20.448-2.628-5.94-15.192-12.348-19.62-14.508-4.428-2.232-4.824-0.57599-7.02 1.62z"/>
   <path d="m126.26 352.52c-2.16 0.612-4.644 2.916-5.652 5.94-1.116 3.06-2.916 8.532-0.54 11.844 2.484 3.24 10.8 6.265 14.796 6.984 3.816 0.504 6.552-1.08 7.812-3.78 1.08-2.808 0.396-9.792-1.08-12.888-1.728-3.204-5.76-4.68-8.352-5.94-2.628-1.439-4.824-2.807-6.984-2.16z" fill="#fff"/>
   <path d="m150.99 335.86c-3.06 0.79199-2.196 2.521-1.872 6.984 0.28801 4.428 1.548 14.4 3.492 19.368 1.8 4.932 3.852 8.388 7.524 9.684 3.6 1.152 11.592 0.071991 14.256-2.952 2.592-3.312 2.448-10.26 1.368-15.588-1.296-5.328-4.176-12.708-8.352-15.624-4.212-2.915-13.392-2.843-16.416-1.872z"/>
   <path d="m153.44 344.46c-0.468 3.456 2.628 11.124 4.284 15.084 1.476 3.96 2.628 7.524 5.112 8.064 2.448 0.323 8.82-2.305 9.684-5.94 0.756-3.853-2.844-12.6-4.824-16.38-2.052-3.853-4.932-6.048-7.272-6.192-2.52-0.10797-6.516 1.872-6.984 5.364z" fill="#fff"/>
   <path d="m186.77 364.12c2.412 3.779 5.328 4.788 8.604 5.363 3.348 0.504 8.928 0.75699 11.052-2.159 1.908-3.097 2.448-10.656 0.79201-15.876-1.872-5.4-6.984-12.313-11.016-15.301-4.104-2.951-10.26-3.996-12.924-2.16-2.664 1.801-3.6 7.488-2.952 12.637 0.57599 5.004 3.888 13.572 6.444 17.496z"/>
   <path d="m202.94 356.56c-0.612-2.952-0.864-7.523-3.528-10.224-2.844-2.844-10.296-7.164-12.636-6.156-2.304 1.044-2.376 7.992-1.332 12.096 0.972 4.032 3.996 9.828 6.984 11.845 2.844 1.728 8.424 0.75601 10.224-0.54001 1.656-1.333 0.828-4.178 0.28801-7.021z" fill="#fff"/>
   <path d="m312.2 312.1c-5.976-0.28799-13.428-0.57599-20.269 0.685-7.02 1.188-14.147 3.239-20.556 6.84-6.444 3.527-13.032 7.452-16.992 14.688s-5.615 18.792-6.516 28.44c-1.116 9.54-0.89999 20.088 0.647 28.728 1.513 8.568 4.032 15.013 8.82 22.536 4.788 7.488 11.844 17.101 19.908 21.888 7.92 4.536 19.116 5.688 27.756 5.545 8.532-0.21701 15.769-2.269 23.508-6.553 7.704-4.283 16.885-10.332 22.536-19.26 5.472-9.18 8.964-23.364 10.477-34.92 1.367-11.736 0.936-24.66-1.98-34.308-3.024-9.757-10.188-17.677-15.66-23.185-5.58-5.399-11.664-7.344-16.992-9.144-5.291-1.98-8.891-1.764-14.687-1.98z" fill="#fff"/>
   <path d="m298.55 381.04c8.568-0.43301 14.473 2.231 20.629 6.048 6.119 3.744 14.256 10.512 15.659 16.271 1.261 5.58-0.936 14.185-7.956 17.641-7.235 3.42-25.02 4.319-34.596 2.844-9.684-1.584-18.504-6.372-22.716-12.024-4.14-5.832-6.876-17.136-1.944-22.247 4.824-5.257 22.212-8.101 30.924-8.533z"/>
   <path d="m311.37 386.72c3.6 1.944 10.656 5.94 13.968 9.648 3.313 3.563 6.805 8.027 5.473 11.844-1.656 3.78-7.236 8.64-14.652 10.404-7.524 1.62-21.924 1.512-29.448-0.72101-7.487-2.483-12.888-8.783-15.228-13.212-2.484-4.571-2.484-10.079 0.57602-13.212 3.096-3.204 12.348-4.248 17.748-5.363 5.327-1.08 10.151-1.44 13.896-1.225 3.564 0.001038 3.995-0.034973 7.667 1.837z" fill="#fff"/>
   <path d="m349.93 348.46c2.305 2.124 6.769 6.443 7.021 11.304 0.107 4.788-1.08 13.716-5.94 17.46-4.968 3.601-18.792 7.2-23.399 4.572-4.752-2.772-6.84-14.58-4.32-20.448 2.592-5.939 15.12-12.348 19.656-14.508 4.354-2.233 4.642-0.57599 6.982 1.62z"/>
   <path d="m344.56 352.2c2.088 0.61099 4.571 2.916 5.651 5.939 1.009 3.061 2.809 8.532 0.54001 11.844-2.592 3.24-10.908 6.265-14.796 6.984-3.924 0.504-6.624-1.08-7.812-3.78-1.188-2.88-0.504-9.827 1.08-12.924 1.548-3.132 5.615-4.644 8.315-5.903 2.522-1.44 4.861-2.808 7.022-2.16z" fill="#fff"/>
   <path d="m320.77 331.93c2.951 0.86401 2.159 2.557 1.907 7.021-0.35901 4.428-1.655 14.399-3.491 19.368-1.908 4.932-3.925 8.388-7.561 9.684-3.815 1.044-11.628 0.14401-14.256-2.988-2.556-3.312-2.628-10.26-1.332-15.588 1.152-5.364 4.212-12.636 8.352-15.588 4.14-2.881 13.213-2.917 16.381-1.909z"/>
   <path d="m318.35 340.54c0.396 3.456-2.7 11.124-4.284 15.084-1.548 3.96-2.736 7.523-5.112 8.063-2.556 0.28799-8.892-2.231-9.684-5.903-0.828-3.889 2.771-12.601 4.824-16.416 1.979-3.853 4.823-6.049 7.271-6.192 2.413-0.10895 6.409 1.8721 6.985 5.364z" fill="#fff"/>
   <path d="m285.02 365.02c-1.765 4.248-4.356 5.688-7.381 6.948-3.168 1.08-8.712 2.628-11.231 0.071991-2.556-2.736-4.645-9.864-3.924-15.408 0.61099-5.472 4.355-13.608 7.775-17.208 3.313-3.78 9.288-5.832 12.24-4.644 2.916 1.26 4.86 6.623 5.4 11.808 0.32501 5.112-1.188 14.04-2.879 18.432z"/>
   <path d="m267.7 360.8c-0.14401-2.988-0.68399-7.488 1.44-10.728 2.124-3.313 8.567-9.072 11.159-8.532 2.448 0.504 3.816 7.38 3.708 11.592-0.25198 4.104-2.088 10.477-4.535 12.996-2.593 2.304-8.101 2.376-10.116 1.477-1.98-1.009-1.656-3.925-1.656-6.805z" fill="#fff"/>
   <path d="m212.62 234.44c-4.932-1.188-14.76-5.76-21.06-7.992-6.264-2.232-12.996-5.544-18.936-7.38-5.94-1.8-9.54-3.6-13.284-4.932-2.268 1.152-4.068 4.5-4.464 8.46-0.39601 3.996 1.944 10.692 1.656 16.056-0.324 5.292-4.788 11.556-3.42 15.624 1.404 4.031 4.932 6.804 11.592 8.424s18.9 2.412 27.972 1.188c9.072-1.26 17.568-4.067 25.92-8.567 1.656 1.836 3.744 3.096 6.408 3.852 2.664 0.75598 6.839 1.08 9.468 0.72 2.628-0.35901 4.607-1.296 6.084-2.844 9.144 1.584 17.172 2.628 24.479 3.168 7.272 0.54001 13.536 0.79202 18.972 0.036011 5.437-0.75601 8.856-0.612 11.053-3.888 2.124-3.313-3.816-11.592-3.204-16.488 0.61096-4.932 5.688-8.748 5.399-13.068-0.323-4.284-7.739-11.196-7.739-11.196s-3.96 1.26-10.477 4.68c-6.516 3.456-18.684 9.252-25.56 11.34-8.641 2.592-17.604 4.464-25.236 4.428-5.039-0.036972-10.583-0.39697-15.623-1.621z"/>
   <path d="m218.38 236.78c-0.144 2.699-0.216 4.788-0.216 6.264-0.035995 1.44 0.144 0.72 0.252 2.304 0.035995 1.513 0 3.708 0.035995 6.732-4.032 2.628-8.388 4.536-13.356 6.12-5.112 1.439-11.232 2.376-16.272 2.808-5.04 0.28799-8.964 0.072021-13.428-0.35898-4.572-0.43301-10.224-0.79202-13.356-2.196-3.24-1.656-4.86-4.212-5.4-6.84-0.504-2.628 2.16-5.688 2.556-8.496 0.32399-2.844-0.28801-5.437-0.46802-8.604-0.32399-3.349-1.584-8.101-0.864-10.909 0.756-2.916 2.304-4.86 5.04-6.12 3.888 1.08 7.812 2.304 12.06 3.816 4.212 1.44 8.46 3.024 13.032 4.896 3.78 3.276 7.992 5.868 13.176 7.632 5.076 1.764 10.764 2.7 17.208 2.952z" fill="#fff"/>
   <path d="m221.73 237.29c3.204 0.468 6.228 0.72 9.216 0.61099 2.916-0.144 5.652-0.504 8.352-1.224 0.46899 2.052 0.828 4.645 0.685 7.632-0.035995 3.061-0.576 6.336-1.225 10.368-1.836 1.008-3.744 1.656-5.58 1.944-2.016 0.28799-3.995 0.107-5.795-0.396-1.836-0.53999-3.456-1.548-5.004-2.88-0.89999-3.06-1.404-5.688-1.512-8.424-0.10901-2.663 0.179-5.255 0.86299-7.631z" fill="#fff"/>
   <path d="m243.51 236.53c4.681-0.937 8.893-2.772 12.78-5.508 3.888-2.808 7.164-6.372 10.224-10.98 6.049-1.44 10.837-2.268 14.509-2.34 3.6-0.252 5.472-0.035995 7.271 1.62 1.692 1.692 3.313 5.22 3.313 8.352-0.036011 3.096-2.809 6.841-3.313 9.864-0.57602 2.808-0.54001 4.752 0.10797 7.488 0.57602 2.699 4.824 6.983 3.708 9.107-1.26 2.052-7.236 2.736-10.729 3.313-3.563 0.53998-5.688 0.14398-10.26-0.072021-4.788-0.35998-12.528-1.477-17.532-1.836-5.04-0.504-8.855-0.72-12.023-0.79201 0.144-5.58 0.504-9.937 0.79201-12.924 0.36-3.132 0.648-4.752 1.152-5.292z" fill="#fff"/>
   <path d="m206.61 182.86c-4.464 1.26-8.856 2.412-13.176 3.996-4.428 1.368-10.764 2.088-12.78 4.788-2.088 2.736 0.072006 7.416 0.79201 11.556 0.612 3.96 0.43201 8.136 3.204 12.384 2.592 4.32 6.804 10.152 13.176 13.176 6.372 2.772 20.124 5.724 25.128 3.996 4.968-1.836 6.3-6.48 4.392-14.364-4.14-4.176-7.2-7.776-9.576-10.8-2.412-3.096-5.04-5.292-4.392-7.56 0.648-2.484 4.284-5.22 7.992-6.408 3.636-1.116 8.856-1.152 13.572-0.396 4.536 0.68401 12.527 1.08 13.968 4.392 1.296 3.24-3.168 11.124-5.616 14.76-2.483 3.528-5.544 5.616-9.18 6.408-2.196 5.22-2.592 9.072-1.188 11.556 1.404 2.448 5.616 4.212 9.576 3.204 3.853-1.296 10.044-6.516 13.572-9.972 3.312-3.42 4.932-6.408 7.2-10.368 2.304-4.176 6.048-10.584 6.768-13.968 0.72-3.276 0.72-3.708-2.771-6.012-3.816-2.628-13.5-6.336-19.188-8.748-5.688-2.484-9.828-4.86-14.364-5.616-4.607-0.72-8.711-0.035995-13.14 0.79201-4.573 0.612-9.181 1.728-13.969 3.204z" fill="#fff"/>
  </g>
 </switch>
</svg>
