<svg xmlns="http://www.w3.org/2000/svg" xmlns:xlink="http://www.w3.org/1999/xlink" xmlns:fi="http://pattern.flaticon.com/" x="0" y="0" width="250" height="125" viewBox="0 0 250 125"><rect x="0px" y="0px" width="100%" height="100%" opacity="1" fill="#ffffff"/><defs><g transform="matrix(0.1388888955116272 0 0 0.1388888955116272 140 162)" id="L1_0"><rect x="227px" y="350px" width="47px" height="29px" fill="#f8a805"/><rect x="208px" y="379px" width="85px" height="45px" fill="#a18671"/><path d="M316.596,22.909L279.647,5.023l27.528,30.451c3.467,3.835,6.761,8.039,9.792,12.498   C334.722,74.047,344.5,109.571,344.5,148c0,38.074-9.923,87.382-27.225,135.282L313.404,294h33.961l2.313-3.983   C378.799,239.869,395.5,188.105,395.5,148C395.5,94.4,365.266,46.468,316.596,22.909z" fill="#3e81c8"/><path d="M275.673,12.851l-18.238-7.215l7.989,17.913c2.828,6.339,5.419,14.554,7.703,24.418   C279.171,74.043,282.5,109.569,282.5,148c0,38.585-3.455,88.524-9.479,137.014L271.904,294h41.406l1.943-5.199   C333.84,239.066,344.5,187.746,344.5,148C344.5,83.449,316.841,29.137,275.673,12.851z" fill="#f8a805"/><path d="M273.517,49.683C270.216,34.932,263,9.916,251.765,8.102L251.111,8h-1.299l-0.649,0.107   c-11.191,1.853-18.388,26.838-21.68,41.566c-5.793,25.9-8.983,60.819-8.983,98.327c0,39.187,3.548,89.85,9.732,138.999l0.881,7.001   h42.772l0.882-7.001C278.952,237.86,282.5,187.197,282.5,148C282.5,110.489,279.31,75.572,273.517,49.683z" fill="#3e81c8"/><path d="M235.576,23.549l7.989-17.913l-18.238,7.215C184.159,29.137,156.5,83.449,156.5,148   c0,39.745,10.66,91.064,29.247,140.8l1.943,5.2h41.406l-1.117-8.986c-6.024-48.49-9.479-98.429-9.479-137.014   c0-38.433,3.329-73.958,9.374-100.036C230.157,38.103,232.748,29.888,235.576,23.549z" fill="#f8a805"/><path d="M193.824,35.475L221.36,5.021L184.404,22.91C135.734,46.468,105.5,94.4,105.5,148   c0,40.104,16.702,91.868,45.822,142.017l2.313,3.983h33.961l-3.871-10.718C166.423,235.384,156.5,186.075,156.5,148   c0-38.429,9.778-73.953,27.536-100.033C187.064,43.512,190.357,39.309,193.824,35.475z" fill="#3e81c8"/><g><path d="M124.5,327h-8c-4.419,0-8,3.582-8,8c0,4.419,3.581,8,8,8h8c4.418,0,8-3.581,8-8C132.5,330.582,128.918,327,124.5,327z"/><path d="M76.5,343h8c4.418,0,8-3.581,8-8c0-4.418-3.582-8-8-8h-8c-4.419,0-8,3.582-8,8C68.5,339.419,72.081,343,76.5,343z"/><path d="M72.5,370c0-4.418-3.582-8-8-8h-8c-4.419,0-8,3.582-8,8s3.581,8,8,8h8C68.918,378,72.5,374.418,72.5,370z"/><path d="M104.5,362h-8c-4.419,0-8,3.582-8,8s3.581,8,8,8h8c4.418,0,8-3.582,8-8S108.918,362,104.5,362z"/><path d="M44.5,397h-8c-4.419,0-8,3.582-8,8s3.581,8,8,8h8c4.418,0,8-3.582,8-8S48.918,397,44.5,397z"/><path d="M84.5,397h-8c-4.419,0-8,3.582-8,8s3.581,8,8,8h8c4.418,0,8-3.582,8-8S88.918,397,84.5,397z"/><path d="M294.6,6c-13.92-3.91-28.71-6-44.1-6s-30.18,2.09-44.1,6C142.76,23.9,97.5,79.9,97.5,148    c0,42.71,17.96,97.42,49.29,150.09c0.02,0.03,0.04,0.06,0.06,0.09c0.02,0.04,0.05,0.09,0.07,0.13L200,381.34V424    c0,4.42,3.58,8,8,8h85c4.42,0,8-3.58,8-8v-42.66l53.08-83.03c0.02-0.04,0.05-0.09,0.07-0.13c0.02-0.03,0.04-0.06,0.06-0.09    C385.54,245.42,403.5,190.71,403.5,148C403.5,79.9,358.24,23.9,294.6,6z M336.5,148c0,39.01-10.44,89.03-28.74,138h-26.8    c6.08-48.94,9.54-98.77,9.54-138c0-39.01-3.4-75.18-9.58-101.84c-2.41-10.41-5.13-19.01-8.19-25.87    C309.84,34.97,336.5,85.83,336.5,148z M274.5,148c0,39.13-3.51,89.06-9.67,138h-28.66c-6.16-48.95-9.67-98.87-9.67-138    c0-36.94,3.12-71.23,8.79-96.58c6.35-28.4,13.61-35.16,15.18-35.42c0.01,0,0.01,0,0.02,0c1.61,0.26,8.86,7.01,15.22,35.43    C271.38,76.77,274.5,111.07,274.5,148z M228.27,20.29c-3.06,6.86-5.78,15.46-8.19,25.87c-6.18,26.66-9.58,62.83-9.58,101.84    c0,39.23,3.46,89.06,9.54,138h-26.8c-18.3-48.97-28.74-98.99-28.74-138C164.5,85.83,191.16,34.97,228.27,20.29z M113.5,148    c0-52.15,29.87-96.34,74.39-117.89c-3.68,4.07-7.18,8.52-10.47,13.36C158.77,70.86,148.5,107.99,148.5,148    c0,39.34,10.03,89.08,27.7,138h-17.96C129.77,236.97,113.5,186.88,113.5,148z M285,416h-69v-29h69V416z M235,371v-13h31v13H235z     M288.62,371H282v-21c0-4.42-3.58-8-8-8h-47c-4.42,0-8,3.58-8,8v21h-6.62l-44.11-69h164.46L288.62,371z M342.76,286H324.8    c17.67-48.92,27.7-98.66,27.7-138c0-40.01-10.27-77.14-28.92-104.53c-3.29-4.84-6.79-9.29-10.47-13.36    C357.63,51.66,387.5,95.85,387.5,148C387.5,186.88,371.23,236.97,342.76,286z"/></g></g><g transform="matrix(0.12866950035095215 0 0 0.12866950035095215 257 262.99999919895697)" id="L1_1"><path d="M389.151,389.349l-32.441-32.111c-4.419-4.419-10.228-6.953-15.937-6.953l-237.683,0.003   l-56.53-56.53c-5.621-5.621-13.241-9.113-19.887-9.113c-4.653,0-8.781,1.667-11.937,4.823c-4.452,4.452-6.67,8.957-6.78,13.771   c-0.111,4.887,2.042,9.575,6.4,13.933l63.12,63.12c4.251,4.252,9.904,6.594,15.917,6.594l237.673-0.003l25.91,25.91   c4.251,4.252,9.904,6.594,15.917,6.594c5.683,0,9.453-0.319,13.877-4.743c3.893-3.894,7.878-8.641,7.92-14.335   C394.73,394.928,391.39,391.588,389.151,389.349z" fill="#efefef"/><path d="M456.855,178.188c-4.835-37.474-21.846-73.036-47.901-100.134l-22.889-23.806l9.458,31.642   c0.333,1.114,0.662,2.235,0.966,3.372c10.458,39.681-1.122,92.089-34.419,155.77l-2.953,5.646l4.843,4.141   c5.938,5.077,7.981,10.969,9.958,16.667c2.463,7.099,5.011,14.439,15.035,20.227c4.954,2.86,9.648,4.192,14.773,4.192   c3.563,0,6.815-0.627,10.237-1.288c3.365-0.639,11.394-1.255,14.204-1.439l4.268-0.279l2.139-3.704   C454.145,255.296,461.85,216.91,456.855,178.188z" fill="#3e81c8"/><path d="M396.884,90.835c-4.604-18.682-13.061-30.211-19.343-36.594l-7.374-7.491l-91.045,157.696   l4.957,4.328c5.751,5.021,7.776,10.841,9.733,16.462c2.463,7.099,5.011,14.439,15.034,20.227c4.952,2.859,9.644,4.19,14.767,4.19   c3.547,0,6.808-0.625,10.262-1.289c3.25-0.625,6.61-1.271,10.231-1.271c2.983,0,5.796,0.45,8.602,1.375l6.456,2.13l3.144-6.028   C402.97,166.588,403.554,117.927,396.884,90.835z" fill="#f8a805"/><path d="M359.99,44.11c-5.31-1.376-11.032-2.074-17.009-2.074c-7.861,0-16.052,1.22-24.342,3.625   c-26.789,7.758-68.634,32.586-115.859,106.808l-3.65,5.736l5.073,4.527c5.587,4.987,7.582,10.721,9.506,16.253   c2.455,7.097,4.995,14.436,15.028,20.229c4.952,2.859,9.644,4.19,14.767,4.19c3.547,0,6.808-0.625,10.262-1.288   c3.253-0.625,6.617-1.272,10.235-1.272c3.083,0,5.992,0.482,8.894,1.475l6.226,2.128l91.047-157.699L359.99,44.11z" fill="#3e81c8"/><path d="M323.673,28.817c-13.79-3.406-28.001-5.134-42.238-5.134c-30.545,0-60.75,7.94-87.351,22.961   c-27.41,15.48-50.262,38.147-66.084,65.553l-2.14,3.707l1.896,3.837c1.247,2.523,4.728,9.777,5.847,12.994   c2.455,7.097,4.995,14.436,15.028,20.229c4.954,2.86,9.648,4.192,14.773,4.192c3.563,0,6.816-0.627,10.262-1.292   c3.283-0.627,6.678-1.275,10.261-1.275c3.173,0,6.166,0.515,9.151,1.574l6.013,2.133l3.417-5.388   C241,92.227,280.596,55.995,320.208,45.213c1.146-0.313,2.277-0.582,3.395-0.847l32.126-7.631L323.673,28.817z" fill="#f8a805"/><g><path d="M61.221,222.306c11.387-5.561,23.853-5.936,35.389-1.122c1.413,1.214,3.244,1.933,5.214,1.933h0.774    c1.97,0,3.801-0.719,5.214-1.933c11.536-4.814,24-4.439,35.39,1.122c1.13,0.552,2.326,0.813,3.504,0.813    c2.961-0.001,5.808-1.652,7.194-4.492c1.939-3.97,0.292-8.76-3.679-10.699c-15.448-7.543-32.342-8.123-48.01-1.743    c-15.672-6.38-32.565-5.799-48.01,1.743c-3.971,1.939-5.617,6.729-3.679,10.699C52.462,222.597,57.253,224.244,61.221,222.306z"/><path d="M373.786,40.482c-87.616-50.585-199.399-21.35-251.18,65.137c-0.009-0.005-0.012-0.019-0.03-0.029l-8,13.856    c7.439,4.295,9.127,9.172,11.463,15.925c2.675,7.687,5.998,17.25,18.591,24.52c12.592,7.27,22.536,5.367,30.53,3.84    c7.016-1.353,12.093-2.325,19.523,1.965s9.127,9.172,11.463,15.925c2.675,7.687,5.998,17.25,18.591,24.52    c12.592,7.27,22.536,5.367,30.522,3.835c4.401-0.842,8.027-1.543,11.949-0.896l-76.905,133.204h-83.901l-54.19-54.18    c-7.17-7.18-16.72-11.46-25.54-11.46c-6.82,0-12.9,2.48-17.59,7.17c-11.97,11.96-12.12,27.28-0.38,39.02l38.19,38.18v81.63    c0,4.42,3.58,8,8,8s8-3.58,8-8v-65.63l8.93,8.94c5.76,5.76,13.42,8.93,21.57,8.93h204c-0.32,0.86-0.5,1.79-0.5,2.76v45    c0,4.42,3.58,8,8,8s8-3.58,8-8v-45c0-0.97-0.18-1.9-0.5-2.76h15.36l23.57,23.57c5.76,5.76,13.42,8.93,21.57,8.93    c6.81,0,12.979-0.53,19.53-7.08c16.12-16.12,10.21-28.79,2.39-36.61l-32.47-32.14c-5.89-5.89-13.75-9.27-21.57-9.27H208.778    l72.281-125.195c2.522,3.072,3.733,6.555,5.195,10.782c2.666,7.682,5.99,17.245,18.591,24.52    c12.592,7.27,22.536,5.367,30.522,3.835c7.025-1.348,12.093-2.325,19.523,1.965c7.439,4.295,9.127,9.172,11.472,15.93    c2.666,7.682,5.998,17.25,18.591,24.52c12.592,7.27,22.536,5.367,30.53,3.84c7.017-1.353,12.093-2.325,19.523,1.965l8-13.856    c-0.009-0.005-0.022-0.001-0.031-0.006C491.976,202.492,461.402,91.067,373.786,40.482z M351.052,362.895l32.47,32.14    c3.48,3.48,5.77,5.77-2.41,13.95c-2.11,2.11-3.11,2.4-8.22,2.4c-3.88,0-7.521-1.51-10.26-4.25l-25.91-25.91    c-1.5-1.5-3.53-2.34-5.65-2.34H93.393c-3.88,0-7.521-1.51-10.26-4.25l-63.12-63.12c-5.53-5.53-5.42-10.59,0.38-16.39    c1.67-1.67,3.729-2.48,6.28-2.48c4.53,0,10.12,2.66,14.23,6.77l56.53,56.53c1.5,1.5,3.539,2.34,5.66,2.34h237.68    C344.372,358.285,348.112,359.955,351.052,362.895z M195.754,148.624c-9.392-3.332-17.142-1.849-23.605-0.615    c-7.016,1.353-12.088,2.317-19.518-1.973c-7.431-4.29-9.132-9.164-11.468-15.917c-1.532-4.406-6.234-13.922-6.234-13.922    c38.51-66.701,115.621-97.202,186.826-79.613c-1.204,0.286-2.423,0.576-3.657,0.914    C276.491,48.822,235.346,86.208,195.754,148.624z M275.483,194.748c-9.219-3.152-16.85-1.715-23.227-0.489    c-7.025,1.348-12.088,2.317-19.518-1.973c-7.431-4.29-9.132-9.164-11.468-15.917c-2.105-6.054-4.63-13.261-11.74-19.607    c45.763-71.924,85.67-95.985,111.335-103.418c16.852-4.889,29.605-3.438,37.118-1.491L275.483,194.748z M355.213,240.873    c-9.05-2.985-16.563-1.572-22.85-0.364c-7.025,1.348-12.088,2.317-19.518-1.973c-7.439-4.295-9.132-9.164-11.477-15.922    c-2.132-6.127-4.689-13.458-12.029-19.866l82.5-142.894c5.452,5.538,13.076,15.852,17.277,32.896    C395.503,118.688,394.628,165.283,355.213,240.873z M427.645,285.197c0,0-10.583,0.691-15.174,1.562    c-7.016,1.353-12.088,2.317-19.518-1.973c-7.439-4.295-9.132-9.164-11.477-15.922c-2.154-6.209-4.749-13.654-12.318-20.125    c34.249-65.501,46.057-119.813,35.066-161.516c-0.333-1.243-0.682-2.438-1.037-3.624    C454.022,136.47,466.155,218.496,427.645,285.197z"/></g></g><g transform="matrix(0.13002265989780426 0 0 0.13002265989780426 270 76.999999492099)" id="L1_2"><path d="M214.063,284.229 127.461,284.229 288.454,425.225z" fill="#f8a805"/><path d="M97.339,233.229c-22.498,0-44.133,8.238-60.92,23.195l-23.246,20.697   c-3.577,3.181-5.449,7.74-5.137,12.508c0.311,4.773,2.747,9.051,6.669,11.728L28.9,311.09   c15.318,10.486,33.219,16.029,51.769,16.029h0.335l95.023-0.361l-48.568-42.529l86.604,0.003l22.321,42.305l82.073-0.314   l71.005-92.995H97.339V233.229z" fill="#ecf0f1"/><path d="M297.008,233.229 388.998,233.229 388.998,108.232z" fill="#f8a805"/><path d="M292.978,151.84c-0.204-20.529-16.451-36.61-36.989-36.61h-0.135   c-8.31,0.025-16.155,2.75-22.683,7.878c-7.185-16.328-23.354-26.878-41.192-26.878c-19.664,0-37.374,13.135-43.075,31.937   c-3.959-1.09-8.068-1.241-12.291-0.39c-11.361,2.359-20.026,12.51-20.604,24.136l-0.01,0.488c-0.071,3.054,1.069,5.959,3.269,8.25   c2.255,2.307,5.267,3.578,8.481,3.578h153.48c6.416,0,11.687-5.213,11.75-11.7L292.978,151.84z" fill="#3e81c8"/><path d="M203.673,87.346c-2.399-18.61-17.823-32.117-36.674-32.117h-0.125   c-8.316,0.025-16.165,2.75-22.693,7.878c-7.185-16.328-23.354-26.878-41.192-26.878c-19.664,0-37.374,13.135-43.076,31.937   c-3.959-1.09-8.067-1.242-12.291-0.39c-11.369,2.361-20.031,12.516-20.595,24.162l-0.012,0.246   c-0.131,3.133,1.009,6.121,3.262,8.467c2.255,2.307,5.267,3.578,8.481,3.578h127.67l1.938-1.203   c7.164-4.446,15.329-6.797,23.611-6.797c0.911,0,1.913,0.038,3.249,0.124l9.687,0.621L203.673,87.346z" fill="#3e81c8"/><g><path d="M453.458,249.122h-8c-4.419,0-8,3.582-8,8c0,4.418,3.581,8,8,8h8c4.418,0,8-3.582,8-8    C461.458,252.704,457.877,249.122,453.458,249.122z"/><path d="M405.458,265.122h8c4.418,0,8-3.582,8-8c0-4.419-3.582-8-8-8h-8c-4.419,0-8,3.582-8,8    C397.458,261.541,401.04,265.122,405.458,265.122z"/><path d="M373.458,319.122h-8c-4.419,0-8,3.581-8,8c0,4.418,3.581,8,8,8h8c4.418,0,8-3.582,8-8S377.877,319.122,373.458,319.122z"/><path d="M38.758,96.229c-1.42,0-2.34-0.74-2.76-1.17c-0.48-0.5-1.04-1.34-0.99-2.54l0.01-0.21c0.39-8.05,6.38-15.07,14.23-16.7    c1.24-0.25,2.5-0.38,3.74-0.38c1.63,0,3.24,0.22,4.8,0.65c4.18,1.16,8.53-1.23,9.79-5.39c4.68-15.46,19.24-26.26,35.41-26.26    c14.66,0,27.96,8.67,33.87,22.1c1,2.26,2.98,3.93,5.38,4.53c2.39,0.6,4.93,0.06,6.88-1.46c5.12-4.02,11.27-6.15,17.78-6.17h0.1    c14.89,0,26.89,10.79,28.74,25.14c-1.25-0.08-2.5-0.14-3.76-0.14c-10.03,0-19.63,2.91-27.83,8H38.758z M284.978,152.529    c-0.02,2.04-1.7,3.7-3.75,3.7h-153.48c-1.42,0-2.34-0.74-2.76-1.17c-0.48-0.5-1.04-1.34-0.99-2.54v-0.21    c0.4-8.05,6.39-15.07,14.24-16.7c1.24-0.25,2.5-0.38,3.74-0.38c1.63,0,3.24,0.22,4.8,0.65c4.18,1.16,8.53-1.23,9.79-5.39    c4.68-15.46,19.24-26.26,35.41-26.26c14.66,0,27.96,8.67,33.87,22.1c1,2.26,2.98,3.93,5.38,4.53c2.39,0.6,4.93,0.06,6.88-1.46    c5.12-4.02,11.26-6.15,17.77-6.17h0.11c16.09,0,28.83,12.6,28.99,28.69L284.978,152.529L284.978,152.529z M255.988,107.229h-0.16    c-6.96,0.02-13.65,1.6-19.74,4.61c-5.92-8.88-14.36-15.69-24.1-19.67v-0.41c-0.25-24.97-20.02-44.53-44.99-44.53h-0.16    c-6.96,0.02-13.65,1.6-19.74,4.61c-9.71-14.58-26.2-23.61-44.11-23.61c-20.79,0-39.73,12.47-48.24,31.05    c-2.91-0.15-5.85,0.07-8.73,0.67c-15.13,3.12-26.23,16.11-26.98,31.56l-0.02,0.39c-0.21,5.33,1.73,10.39,5.45,14.25    s8.93,6.08,14.29,6.08h108.9c-1.47,2.23-2.79,4.58-3.92,7.05c-2.91-0.15-5.86,0.07-8.74,0.67c-15.12,3.12-26.22,16.11-26.98,31.56    l-0.01,0.39c-0.21,5.33,1.73,10.39,5.45,14.25s8.92,6.08,14.29,6.08h153.48c10.78,0,19.64-8.76,19.75-19.54v-0.93    C300.718,126.789,280.958,107.229,255.988,107.229z"/><path d="M396.998,230.599v-122.37c0-3.46-2.22-6.52-5.5-7.6c-3.29-1.08-6.89,0.07-8.94,2.86l-89.6,121.74H97.338    c-24.46,0-47.98,8.96-66.24,25.22l-23.25,20.71c-5.42,4.82-8.26,11.73-7.8,18.97c0.46,7.23,4.16,13.73,10.14,17.83l14.19,9.73    c16.65,11.4,36.11,17.43,56.29,17.43l92.36-0.34l107.85,94.45l2.31,2.02c1.5,1.32,3.39,1.98,5.27,1.98c0.01,0,0.01,0,0.02,0    c2.96,0,5.55-1.61,6.92-4c0.69-1.17,1.08-2.54,1.08-4c0-1.54-0.44-2.99-1.2-4.21l-45.65-86.53l68.86-0.26    c2.48-0.01,4.82-1.17,6.33-3.15l71-93C397.458,235.929,397.878,233.109,396.998,230.599z M261.208,390.729l-112.47-98.5h60.5    L261.208,390.729z M314.488,318.239l-73.29,0.28l-20.06-38.02c-1.39-2.63-4.11-4.27-7.08-4.27h-86.6c-3.33,0-6.32,2.07-7.49,5.18    c-1.17,3.12-0.29,6.64,2.22,8.84l32.65,28.59l-73.85,0.28h-0.32c-16.94,0-33.27-5.06-47.25-14.63l-14.19-9.73    c-1.89-1.29-3.06-3.35-3.21-5.65c-0.15-2.29,0.75-4.48,2.47-6.01l23.25-20.7c15.32-13.65,35.07-21.17,55.6-21.17h275.95    L314.488,318.239z M380.998,225.229h-68.17l68.17-92.63V225.229z"/><path d="M73.458,272.229v11c0,4.42-3.58,8-8,8s-8-3.58-8-8v-11c0-4.42,3.58-8,8-8S73.458,267.809,73.458,272.229z"/><path d="M100.458,272.229v11c0,4.42-3.58,8-8,8s-8-3.58-8-8v-11c0-4.42,3.58-8,8-8S100.458,267.809,100.458,272.229z"/><path d="M255.458,272.229v11c0,4.42-3.58,8-8,8s-8-3.58-8-8v-11c0-4.42,3.58-8,8-8    C251.878,264.229,255.458,267.809,255.458,272.229z"/><path d="M282.458,272.229v11c0,4.42-3.58,8-8,8s-8-3.58-8-8v-11c0-4.42,3.58-8,8-8    C278.878,264.229,282.458,267.809,282.458,272.229z"/><path d="M308.998,272.229v11c0,4.42-3.58,8-8,8c-4.41,0-8-3.58-8-8v-11c0-4.42,3.59-8,8-8    C305.418,264.229,308.998,267.809,308.998,272.229z"/><path d="M433.458,284.122h-8c-4.419,0-8,3.581-8,8c0,4.418,3.581,8,8,8h8c4.418,0,8-3.582,8-8S437.877,284.122,433.458,284.122z"/><path d="M401.458,292.122c0-4.419-3.582-8-8-8h-8c-4.419,0-8,3.581-8,8c0,4.418,3.581,8,8,8h8    C397.877,300.122,401.458,296.541,401.458,292.122z"/><path d="M413.458,319.122h-8c-4.419,0-8,3.581-8,8c0,4.418,3.581,8,8,8h8c4.418,0,8-3.582,8-8S417.877,319.122,413.458,319.122z"/></g></g></defs><g fi:class="KUsePattern"><pattern id="pattern_L1_0" width="350" height="350" patternUnits="userSpaceOnUse"><use xlink:href="#L1_0" x="-350" y="-350"/><use xlink:href="#L1_0" x="0" y="-350"/><use xlink:href="#L1_0" x="350" y="-350"/><use xlink:href="#L1_0" x="-350" y="0"/><use xlink:href="#L1_0" x="0" y="0"/><use xlink:href="#L1_0" x="350" y="0"/><use xlink:href="#L1_0" x="-350" y="350"/><use xlink:href="#L1_0" x="0" y="350"/><use xlink:href="#L1_0" x="350" y="350"/></pattern><rect x="0" y="0" width="100%" height="100%" fill="url(#pattern_L1_0)"/></g><g fi:class="KUsePattern"><pattern id="pattern_L1_1" width="350" height="350" patternUnits="userSpaceOnUse"><use xlink:href="#L1_1" x="-350" y="-350"/><use xlink:href="#L1_1" x="0" y="-350"/><use xlink:href="#L1_1" x="350" y="-350"/><use xlink:href="#L1_1" x="-350" y="0"/><use xlink:href="#L1_1" x="0" y="0"/><use xlink:href="#L1_1" x="350" y="0"/><use xlink:href="#L1_1" x="-350" y="350"/><use xlink:href="#L1_1" x="0" y="350"/><use xlink:href="#L1_1" x="350" y="350"/></pattern><rect x="0" y="0" width="100%" height="100%" fill="url(#pattern_L1_1)"/></g><g fi:class="KUsePattern"><pattern id="pattern_L1_2" width="350" height="350" patternUnits="userSpaceOnUse"><use xlink:href="#L1_2" x="-350" y="-350"/><use xlink:href="#L1_2" x="0" y="-350"/><use xlink:href="#L1_2" x="350" y="-350"/><use xlink:href="#L1_2" x="-350" y="0"/><use xlink:href="#L1_2" x="0" y="0"/><use xlink:href="#L1_2" x="350" y="0"/><use xlink:href="#L1_2" x="-350" y="350"/><use xlink:href="#L1_2" x="0" y="350"/><use xlink:href="#L1_2" x="350" y="350"/></pattern><rect x="0" y="0" width="100%" height="100%" fill="url(#pattern_L1_2)"/></g></svg>