<svg xmlns="http://www.w3.org/2000/svg" xmlns:xlink="http://www.w3.org/1999/xlink" xmlns:fi="http://pattern.flaticon.com/" width="700" height="350"><rect width="100%" height="100%" fill="#fff"/><defs><g id="a"><path d="M289.437 23.138c-4.468-10.497-13.268-18.47-24.541-21.975-16.492-4.306-33.87 3.641-41.425 18.862-12.339 24.789-18.785 52.545-18.632 80.199v266.817c0 .537.051 1.074.154 1.612l22.955 118.938c1.936 13.925 13.993 24.405 28.029 24.405h.043c14.053 0 26.102-10.488 27.961-23.961l23.023-119.381a7.879 7.879 0 00.162-1.612V100.207c-.06-26.681-6.251-53.465-17.729-77.069zm.674 343.076l-22.938 119.023c-.767 5.534-5.568 9.704-11.179 9.704-5.602 0-10.395-4.17-11.222-10.139l-22.87-118.58v-266.04c-.136-25.044 5.688-50.14 16.85-72.567 3.991-8.033 13.2-12.22 21.454-10.062 6.097 1.902 11.043 6.37 13.712 12.637 10.54 21.702 16.133 45.919 16.193 70.034v265.99z" transform="scale(.0857) rotate(45 1195.381 4916.347)"/><path d="M217.732 189.163a8.513 8.513 0 00-8.425-.171L4.654 299.847a8.522 8.522 0 00-4.468 7.495v51.163a8.527 8.527 0 003.667 7.009 8.575 8.575 0 007.854.981L216.36 289.75a8.542 8.542 0 005.534-7.99v-85.272a8.534 8.534 0 00-4.162-7.325zm-12.893 86.688L17.24 346.201v-33.776l187.599-101.61v65.036zM507.35 299.847L302.697 188.993a8.53 8.53 0 00-8.425.171 8.528 8.528 0 00-4.161 7.325v85.272c0 3.556 2.2 6.745 5.526 7.99l204.653 76.745a8.75 8.75 0 003.002.537 8.418 8.418 0 004.843-1.518 8.526 8.526 0 003.675-7.009v-51.163a8.531 8.531 0 00-4.46-7.496zm-12.586 46.354l-187.599-70.35v-65.046l187.599 101.619v33.777z" transform="scale(.0857) rotate(45 1195.381 4916.347)"/><path d="M136.621 196.497c-14.104 0-25.582 11.478-25.582 25.582v25.582h17.054v-25.582c0-4.699 3.829-8.527 8.527-8.527s8.527 3.829 8.527 8.527v8.527h17.054v-8.527c.002-14.105-11.476-25.582-25.58-25.582zM59.876 239.124c-14.104 0-25.582 11.478-25.582 25.582v25.582h17.054v-25.582c0-4.698 3.829-8.519 8.527-8.519 4.698 0 8.527 3.82 8.527 8.519h17.054c.002-14.104-11.476-25.582-25.58-25.582zM375.383 196.497c-14.104 0-25.582 11.478-25.582 25.582v8.527h17.054v-8.527c0-4.699 3.82-8.527 8.527-8.527 4.707 0 8.527 3.829 8.527 8.527v25.582h17.054v-25.582c.002-14.105-11.476-25.582-25.58-25.582zM452.128 239.124c-14.104 0-25.582 11.478-25.582 25.582H443.6c0-4.698 3.82-8.519 8.527-8.519 4.707 0 8.527 3.82 8.527 8.519v25.582h17.054v-25.582c.002-14.104-11.476-25.582-25.58-25.582zM237.532 478.006l-92.392 15.4v-19.212l81.137-48.682-8.775-14.624-85.272 51.163a8.504 8.504 0 00-4.136 7.308v34.109a8.523 8.523 0 003.019 6.506 8.528 8.528 0 006.899 1.91l102.327-17.054-2.807-16.824zM379.766 462.051l-85.272-51.163-8.774 14.624 81.137 48.682v19.203l-92.401-15.4-2.797 16.824 102.327 17.054c.469.077.929.119 1.398.119a8.486 8.486 0 005.5-2.021 8.507 8.507 0 003.019-6.506v-34.109a8.53 8.53 0 00-4.137-7.307zM275.333 65.45c-2.788-8.348-10.744-13.712-19.425-13.925-9.047.085-16.824 5.978-19.246 14.309l-5.799 17.054 16.151 5.492 5.909-17.413c.418-1.415 1.68-2.379 3.087-2.388 1.433 0 2.695.912 3.147 2.251l5.799 17.481 16.185-5.364-5.808-17.497z" transform="scale(.0857) rotate(45 1195.381 4916.347)"/></g><g id="c"><path d="M504.011 252.009h-75.152l-44.37-116.84a8 8 0 00-7.479-5.16h-62.293l-37.714-67.885a8 8 0 00-6.993-4.115h-68c-4.857 0-8.591 4.297-7.924 9.101l8.736 62.899H135.01a8 8 0 00-7.479 5.16L83.873 250.138a7.998 7.998 0 004.639 10.318c4.128 1.572 8.751-.508 10.318-4.639l41.7-109.809h230.961l8.734 23h-173.51c-13.321 0-25.381 8.394-30.008 20.886l-2.222 6c-7.735 20.882 7.744 43.114 30.008 43.114h202.315l4.937 13c-128.151 0-118.633-.307-120.854.634l-83.504 35.366H8.011c-6.035 0-9.923 6.462-7.039 11.801l30.293 56.099a7.997 7.997 0 0010.84 3.238 7.998 7.998 0 003.238-10.84l-23.92-44.298c201.628 0 188.489.306 190.708-.634l83.504-35.366h195.494l-84.086 170H93.782L80.855 414.07a8.001 8.001 0 00-10.84-3.238 7.999 7.999 0 00-3.238 10.84l15.194 28.138a7.999 7.999 0 007.039 4.199h323a8 8 0 007.171-4.453l92-186c2.62-5.296-1.226-11.547-7.17-11.547zm-285.035-122l-7.778-56h54.105l9.445 17H237.01a8 8 0 000 16h46.626l12.778 23zm45.352 93l-12.315-38h73.18l12.315 38zm-72.967-6.859c-5.5-7.9-1.823-14.832.35-20.698 2.313-6.246 8.343-10.442 15.004-10.442h28.479l12.315 38h-43.015c-5.313-.001-10.099-2.501-13.133-6.86zm162.967 6.859l-12.315-38h44.288l14.43 38z" transform="matrix(.08716 0 0 .08716 161.567 149.265)"/><path d="M368.011 368.009c0-18.196-14.804-33-33-33s-33 14.804-33 33 14.804 33 33 33 33-14.804 33-33zm-50 0c0-9.374 7.626-17 17-17s17 7.626 17 17-7.626 17-17 17-17-7.626-17-17zM210.011 368.009c0-18.196-14.804-33-33-33s-33 14.804-33 33 14.804 33 33 33 33-14.804 33-33zm-50 0c0-9.374 7.626-17 17-17s17 7.626 17 17-7.626 17-17 17-17-7.626-17-17zM63.73 382.118c-2.611-6.38-11.88-6.757-14.78 0-2.408 5.809 2.575 12.124 8.96 10.9 4.856-.946 7.776-6.206 5.82-10.9z" transform="matrix(.08716 0 0 .08716 161.567 149.265)"/></g><g id="e"><path d="M450.1 187.5l-10.2-10.8-35.8-96.5C398 63.9 382.4 53.1 365 53H109.3c-17.4 0-33 10.9-39.1 27.2l-35.3 95.3-14.7 13.6C7.4 200 0 216 0 232.8v140.6c.1 23 18.8 41.6 41.8 41.6h26.4c23 0 41.7-18.6 41.8-41.6V353h248v20.4c.1 23 18.8 41.6 41.8 41.6h26.4c23 0 41.7-18.6 41.8-41.6V229.1c-.1-15.7-6.5-30.7-17.9-41.6zM89 87c3.2-8.5 11.3-14 20.3-14h255.8c9 0 17.1 5.6 20.3 14l31.2 84h-23.3c-5.5-37.5-40.4-63.4-77.9-57.8-29.9 4.4-53.4 27.9-57.8 57.8H57.8L89 87zm283.9 84h-95.1c5.5-26.3 31.3-43.1 57.6-37.6 18.8 4 33.5 18.7 37.5 37.6zM90 373.4c-.1 12-9.8 21.6-21.8 21.6H41.8c-12 0-21.7-9.6-21.8-21.6v-26.2c6 3.9 13.9 5.8 21.8 5.8H90v20.4zm358 0c-.1 12-9.8 21.6-21.8 21.6h-26.4c-12 0-21.7-9.7-21.8-21.6V353h48.2c7.9 0 15.8-1.9 21.8-5.8v26.2zM426.2 333H41.8c-11.9.1-21.7-9.4-21.8-21.4v-78.8c0-11 4.9-21.5 13.3-28.6l.4-.4L47.3 191H426l9.6 10.3c.1.2.4.3.5.5 7.5 7.1 11.8 17 11.8 27.3v82.5h.1c-.1 11.9-9.9 21.5-21.8 21.4z" transform="matrix(.08789 0 0 .08789 302.434 212.434)"/><path d="M132 231H57c-5.5 0-10 4.5-10 10v52c0 5.5 4.5 10 10 10h75c5.5 0 10-4.5 10-10v-52c0-5.5-4.5-10-10-10zm-10 52H67v-32h55v32zM411 231h-75c-5.5 0-10 4.5-10 10v52c0 5.5 4.5 10 10 10h75c5.5 0 10-4.5 10-10v-52c0-5.5-4.5-10-10-10zm-10 52h-55v-32h55v32zM282.3 273h-96.6c-5.5 0-10 4.5-10 10s4.5 10 10 10h96.6c5.5 0 10-4.5 10-10s-4.5-10-10-10zM282.3 242h-96.6c-5.5 0-10 4.5-10 10s4.5 10 10 10h96.6c5.5 0 10-4.5 10-10s-4.5-10-10-10z" transform="matrix(.08789 0 0 .08789 302.434 212.434)"/></g><g id="g"><path d="M30.225 103.791a8.483 8.483 0 007.834.734 8.563 8.563 0 005.112-5.982c1.792-7.774 8.602-13.21 16.563-13.21 3.106 0 6.144.845 8.772 2.449 4.028 2.441 9.284 1.161 11.716-2.867a8.516 8.516 0 00-2.867-11.725 33.973 33.973 0 00-17.621-4.924c-12.646 0-23.868 6.844-29.747 17.451a25.094 25.094 0 00-4.386-.384c-14.114 0-25.6 11.486-25.6 25.6s11.486 25.6 25.6 25.6h25.6c4.719 0 8.533-3.823 8.533-8.533s-3.814-8.533-8.533-8.533H25.6c-4.71 0-8.533-3.831-8.533-8.533 0-6.332 7.586-10.727 13.158-7.143zM424.141 48.725c2.483-2.441 7.714-6.059 11.059-6.059 6.878 0 8.431 4.693 8.533 8.533-.008.009-.008.017 0 .043-.008.009-.008.026 0 .034V51.328a8.531 8.531 0 008.533 8.405c4.685 0 8.491-3.772 8.533-8.448.102-3.934 1.672-8.619 8.533-8.619 3.345 0 8.576 3.618 11.034 6.033a8.523 8.523 0 0012.066 0 8.525 8.525 0 000-12.066c-1.126-1.126-11.366-11.034-23.1-11.034-7.475 0-13.056 2.423-17.067 5.999-4.011-3.576-9.591-5.999-17.067-5.999-11.733 0-21.973 9.907-23.1 11.034-3.328 3.319-3.328 8.695-.009 12.032 3.297 3.329 8.69 3.363 12.052.06zM492.237 307.874c-6.938-20.506-26.402-34.807-48.503-34.807-4.719 0-8.533 3.823-8.533 8.533s3.814 8.533 8.533 8.533c16.188 0 30.259 11.511 33.451 27.366.845 4.181 4.787 7.134 8.866 6.835.308-.015.613-.048.461-.063 4.659.06 8.422 3.863 8.422 8.528 0 4.702-3.823 8.533-8.533 8.533h-93.867c-4.719 0-8.533 3.823-8.533 8.533s3.814 8.533 8.533 8.533H486.4c14.114 0 25.6-11.486 25.6-25.6 0-12.107-8.448-22.279-19.763-24.924z" transform="matrix(.07739 0 0 .07739 171.188 303.188)"/><path d="M256 0c-.29 0-.563.043-.862.043h-.008C148.548.486 68.267 81.007 68.267 187.733c0 52.096 33.502 97.434 65.894 141.286 27.546 37.291 53.572 72.516 53.572 106.18v51.2c0 14.114 11.486 25.6 25.6 25.6h85.333c14.114 0 25.6-11.486 25.6-25.6v-51.2a8.53 8.53 0 00-8.533-8.533H230.4c-4.719 0-8.533 3.823-8.533 8.533s3.814 8.533 8.533 8.533h76.8V486.4c0 4.702-3.823 8.533-8.533 8.533h-85.333c-4.71 0-8.533-3.831-8.533-8.533v-51.2c0-39.287-27.648-76.706-56.917-116.326-30.746-41.626-62.549-84.668-62.549-131.14 0-87.151 58.931-154.923 141.133-168.149-29.169 25.48-72.868 78.574-72.868 168.148 0 67.968 21.7 113.946 39.134 150.886 11.511 24.388 20.599 43.648 20.599 62.447 0 4.71 3.814 8.533 8.533 8.533s8.533-3.823 8.533-8.533c0-22.622-10.3-44.459-22.238-69.734-16.708-35.396-37.495-79.454-37.495-143.599 0-94.362 52.07-144.7 76.8-163.277v376.61c0 4.71 3.814 8.533 8.533 8.533s8.533-3.823 8.533-8.533V24.457c24.721 18.577 76.8 68.915 76.8 163.277 0 64.145-20.796 108.203-37.504 143.599-11.93 25.276-22.229 47.113-22.229 69.734 0 4.71 3.814 8.533 8.533 8.533s8.533-3.823 8.533-8.533c0-18.799 9.088-38.059 20.599-62.447C336.7 301.679 358.4 255.701 358.4 187.733c0-89.574-43.699-142.669-72.866-168.149 82.202 13.227 141.133 80.998 141.133 168.149 0 51.473-33.579 93.329-63.215 130.261-22.485 28.015-43.716 54.485-47.633 81.86-.666 4.668 2.569 8.994 7.236 9.66a8.525 8.525 0 009.66-7.236c3.251-22.758 23.066-47.454 44.041-73.6 31.394-39.125 66.978-83.473 66.978-140.945C443.733 80.708 363.025 0 256 0z" transform="matrix(.07739 0 0 .07739 171.188 303.188)"/></g></defs><g fi:class="KUsePattern"><pattern id="b" width="350" height="350" patternUnits="userSpaceOnUse"><use xlink:href="#a" x="-350" y="-350"/><use xlink:href="#a" y="-350"/><use xlink:href="#a" x="350" y="-350"/><use xlink:href="#a" x="-350"/><use xlink:href="#a"/><use xlink:href="#a" x="350"/><use xlink:href="#a" x="-350" y="350"/><use xlink:href="#a" y="350"/><use xlink:href="#a" x="350" y="350"/></pattern><rect width="100%" height="100%" fill="url(#b)"/></g><g fi:class="KUsePattern"><pattern id="d" width="350" height="350" patternUnits="userSpaceOnUse"><use xlink:href="#c" x="-350" y="-350"/><use xlink:href="#c" y="-350"/><use xlink:href="#c" x="350" y="-350"/><use xlink:href="#c" x="-350"/><use xlink:href="#c"/><use xlink:href="#c" x="350"/><use xlink:href="#c" x="-350" y="350"/><use xlink:href="#c" y="350"/><use xlink:href="#c" x="350" y="350"/></pattern><rect width="100%" height="100%" fill="url(#d)"/></g><g fi:class="KUsePattern"><pattern id="f" width="350" height="350" patternUnits="userSpaceOnUse"><use xlink:href="#e" x="-350" y="-350"/><use xlink:href="#e" y="-350"/><use xlink:href="#e" x="350" y="-350"/><use xlink:href="#e" x="-350"/><use xlink:href="#e"/><use xlink:href="#e" x="350"/><use xlink:href="#e" x="-350" y="350"/><use xlink:href="#e" y="350"/><use xlink:href="#e" x="350" y="350"/></pattern><rect width="100%" height="100%" fill="url(#f)"/></g><g fi:class="KUsePattern"><pattern id="h" width="350" height="350" patternUnits="userSpaceOnUse"><use xlink:href="#g" x="-350" y="-350"/><use xlink:href="#g" y="-350"/><use xlink:href="#g" x="350" y="-350"/><use xlink:href="#g" x="-350"/><use xlink:href="#g"/><use xlink:href="#g" x="350"/><use xlink:href="#g" x="-350" y="350"/><use xlink:href="#g" y="350"/><use xlink:href="#g" x="350" y="350"/></pattern><rect width="100%" height="100%" fill="url(#h)"/></g></svg>