<svg xmlns="http://www.w3.org/2000/svg" xmlns:xlink="http://www.w3.org/1999/xlink" xmlns:fi="http://pattern.flaticon.com/" x="0" y="0" width="700" height="350" viewBox="0 0 700 350"><rect x="0px" y="0px" width="100%" height="100%" opacity="0" fill="#ffffff"/><defs><g transform="matrix(0.6306795477867126 0 0 0.6306795477867126 315.718231677042 60.66484424471855)" id="L1_8"><path d="m54 53h8v-13l-4.54-12.107c-.878-2.342-3.117-3.893-5.618-3.893h-43.842c-3.314 0-6 2.686-6 6v23h8" fill="#ca6b4a"/><path d="m21 47v-19h18v21h-16" fill="#db8c74"/><circle cx="47" cy="53" r="7" fill="#928fa1"/><circle cx="17" cy="53" r="7" fill="#928fa1"/><circle cx="47" cy="53" r="3" fill="#e8e8e8"/><circle cx="17" cy="53" r="3" fill="#e8e8e8"/><path d="m2 42h4v11h-4z" fill="#bf5763"/><path d="m58 43h4v10h-4z" fill="#f1b869"/><path d="m21 28h18v10h-18z" fill="#74a2d9"/><path d="m43 38h13l-2.572-8.575c-.254-.846-1.033-1.425-1.916-1.425h-8.512z" fill="#74a2d9"/><path d="m8 28h9v10h-9z" fill="#74a2d9"/><g fill="#e8e8e8"><path d="m8 32.354c2.791.614 5.813 1.073 9 1.348v-5.702h-9z"/><path d="m21 33.943c.989.035 1.988.057 3 .057 5.385 0 10.475-.518 15-1.435v-4.565h-18z"/><path d="m51.811 28.049c-.1-.016-.195-.049-.299-.049h-8.512v3.612c3.439-.956 6.424-2.167 8.811-3.563z"/></g><circle cx="44" cy="14" r="6" fill="#eb6a80"/><circle cx="44" cy="14" r="2" fill="#e34a60"/><path d="m24 10h-12c-1.105 0-2 .895-2 2v6c0 1.105.895 2 2 2h12c1.105 0 2-.895 2-2v-6c0-1.105-.895-2-2-2z" fill="#eb6a80"/><path d="m34 10h-6c-1.105 0-2 .895-2 2v6c0 1.105.895 2 2 2h6c1.105 0 2-.895 2-2v-6c0-1.105-.895-2-2-2z" fill="#317dc9"/><path d="m20 2h-6c-1.105 0-2 .895-2 2v4c0 1.105.895 2 2 2h6c1.105 0 2-.895 2-2v-4c0-1.105-.895-2-2-2z" fill="#317dc9"/><path d="m1 61h62v2h-62z"/><path d="m47 61c-4.411 0-8-3.589-8-8s3.589-8 8-8 8 3.589 8 8-3.589 8-8 8zm0-14c-3.309 0-6 2.691-6 6s2.691 6 6 6 6-2.691 6-6-2.691-6-6-6z"/><path d="m47 57c-2.206 0-4-1.794-4-4s1.794-4 4-4 4 1.794 4 4-1.794 4-4 4zm0-6c-1.103 0-2 .897-2 2s.897 2 2 2 2-.897 2-2-.897-2-2-2z"/><path d="m17 61c-4.411 0-8-3.589-8-8s3.589-8 8-8 8 3.589 8 8-3.589 8-8 8zm0-14c-3.309 0-6 2.691-6 6s2.691 6 6 6 6-2.691 6-6-2.691-6-6-6z"/><path d="m17 57c-2.206 0-4-1.794-4-4s1.794-4 4-4 4 1.794 4 4-1.794 4-4 4zm0-6c-1.103 0-2 .897-2 2s.897 2 2 2 2-.897 2-2-.897-2-2-2z"/><path d="m24 52h16v2h-16z"/><path d="m62 54h-8v-2h7v-11.818l-4.477-11.937c-.727-1.941-2.608-3.245-4.681-3.245h-43.842c-2.757 0-5 2.243-5 5v22h7v2h-8c-.553 0-1-.447-1-1v-23c0-3.859 3.141-7 7-7h43.842c2.902 0 5.536 1.825 6.555 4.543l4.54 12.105c.042.113.063.232.063.352v13c0 .553-.447 1-1 1z"/><path d="m56 39h-13c-.553 0-1-.447-1-1v-10c0-.553.447-1 1-1h8.512c1.335 0 2.49.859 2.874 2.139l2.572 8.574c.091.303.033.631-.155.884-.19.254-.487.403-.803.403zm-12-2h10.656l-2.187-7.287c-.127-.427-.512-.713-.957-.713h-7.512z"/><path d="m42 41h4v2h-4z"/><path d="m59 53h-2v-10c0-.553.447-1 1-1h4v2h-3z"/><path d="m7 53h-2v-10h-3v-2h4c.553 0 1 .447 1 1z"/><path d="m39 50h-16v-2h15v-19h-16v18h-2v-19c0-.553.447-1 1-1h18c.553 0 1 .447 1 1v21c0 .553-.447 1-1 1z"/><path d="m21 37h18v2h-18z"/><path d="m29 28h2v10h-2z"/><path d="m17 39h-9c-.553 0-1-.447-1-1v-10c0-.553.447-1 1-1h9c.553 0 1 .447 1 1v10c0 .553-.447 1-1 1zm-8-2h7v-8h-7z"/><path d="m9 41h12v2h-12z"/><path d="m7 19h44v2h-44z"/><path d="m9 20h2v4h-2z"/><path d="m47 20h2v4h-2z"/><path d="m24 21h-12c-1.654 0-3-1.346-3-3v-6c0-1.654 1.346-3 3-3h12c1.654 0 3 1.346 3 3v6c0 1.654-1.346 3-3 3zm-12-10c-.552 0-1 .448-1 1v6c0 .552.448 1 1 1h12c.552 0 1-.448 1-1v-6c0-.552-.448-1-1-1z"/><path d="m34 21h-6c-1.654 0-3-1.346-3-3v-6c0-1.654 1.346-3 3-3h6c1.654 0 3 1.346 3 3v6c0 1.654-1.346 3-3 3zm-6-10c-.552 0-1 .448-1 1v6c0 .552.448 1 1 1h6c.552 0 1-.448 1-1v-6c0-.552-.448-1-1-1z"/><path d="m20 11h-6c-1.654 0-3-1.346-3-3v-4c0-1.654 1.346-3 3-3h6c1.654 0 3 1.346 3 3v4c0 1.654-1.346 3-3 3zm-6-8c-.552 0-1 .448-1 1v4c0 .552.448 1 1 1h6c.552 0 1-.448 1-1v-4c0-.552-.448-1-1-1z"/><path d="m44 21c-3.859 0-7-3.141-7-7s3.141-7 7-7 7 3.141 7 7-3.141 7-7 7zm0-12c-2.757 0-5 2.243-5 5s2.243 5 5 5 5-2.243 5-5-2.243-5-5-5z"/><path d="m23 17h-2v-2h-8v-2h9c.553 0 1 .447 1 1z"/><path d="m44 17c-1.654 0-3-1.346-3-3s1.346-3 3-3 3 1.346 3 3-1.346 3-3 3zm0-4c-.552 0-1 .448-1 1s.448 1 1 1 1-.448 1-1-.448-1-1-1z"/></g><g transform="matrix(0.6483070839991772 0.254692074108423 -0.254692074108423 0.6483070839991772 78.20246738820879 157.29176817290366)" id="L1_9"><path d="m16.91 40.89 4.51-5.56c1.84 1.92 3.44 9.95 1.58 13.67l-3.94 2.95-1.06-7.95-2-2z" fill="#e6e9ed"/><path d="m19.06 51.95.94 7.05-3 2-5-11 6-6z" fill="#74a2d9"/><path d="m16 42 2 2-6 6-10-5 2-3h6z" fill="#74a2d9"/><path d="m16.91 40.89-.91 1.11h-6l-1-6 3-1z" fill="#fc6e51"/><ellipse cx="49px" cy="26px" rx="2px" ry="3px" transform="matrix(0.707 -0.707 0.707 0.707 -4.24 42.764)" fill="#fc6e51"/><path d="m47.02 6.99 8.98-2.99c.65-.22 1.32-.33 1.97-.33 2.14 0 4.03 1.26 4.03 4.33 0 4-11 17-11 17-1.38-1.38-3.22-1.78-4-1l-14 12 1.89 4.09-6.77 5.07-.12-.16c.99-3.96-.96-11.84-3.91-12.96l2.25-2.76 10.23-12.6 5.43-6.68c1.32-1.61 3.05-2.35 5.02-3.01z" fill="#e6e9ed"/><path d="m29.36 17.64 3.64-3.64 3.57 2.68-10.23 12.6-.34-.28-15-12 6-3z" fill="#74a2d9"/><path d="m47 24c-.78.78-.38 2.62 1 4s3.22 1.78 4 1l-6 6-.33.07 4.33 20.93-5 6-10.11-21.91-1.89-4.09z" fill="#74a2d9"/><path d="m24.09 32.04c2.95 1.12 4.9 9 3.91 12.96l.12.16-5.12 3.84c1.86-3.72.26-11.75-1.58-13.67z" fill="#fcd770"/><path d="m63 8c0-2.475-1.073-3.768-1.973-4.417-1.374-.99-3.373-1.188-5.344-.532l-8.979 2.993c-1.837.612-3.926 1.424-5.481 3.325l-4.821 5.933-3.497-2.623-3.83 3.83-12.172-3.58-7.75 3.875 15.777 12.62-8.034 9.888-4.564-5.477-4.458 1.486.946 5.679h-5.355l-2.925 4.388 10.697 5.349 5.34 11.748 4.498-2.999-.945-7.083 14.367-10.775 10.259 22.228 6.322-7.586-4.274-20.658 5.904-5.904c1.064-1.063.855-3.052-.395-4.717 2.415-2.909 10.687-13.148 10.687-16.991zm-29.906 7.32 2.048 1.536-.943 1.16-2.937-.864zm-20.249 1.875 4.25-2.125 15.736 4.628-6.641 8.173zm14.191 27.528-2.333 1.75c.457-3.793-.529-8.713-2.035-11.095l1.648-2.028c1.956 1.717 3.557 7.946 2.72 11.373zm-16.909-8.044 1.542-.514 3.941 4.729-.086.106h-4.677zm-6.667 7.933 1.075-1.612h11.051l1 1-4.783 4.783zm13.964 14.904-4.227-9.299 4.079-4.079 1.65 12.376zm1.522-15.984-1.602-1.602 3.985-4.904c.411.859.867 2.188 1.185 4.02.513 2.948.38 5.714-.332 7.316l-2.357 1.768zm10.289-.458c.125-3.862-1.245-9.179-3.661-11.272l17.199-21.168c1.096-1.34 2.559-2.023 4.563-2.691l3.099-1.033c.366.64.562 2.125.564 3.092.002.551.449.998 1.001.998h.001c.552 0 .999-.448.999-1 0-.449-.048-2.337-.665-3.724l3.981-1.327c1.363-.456 2.687-.358 3.542.257.758.546 1.142 1.486 1.142 2.794 0 2.516-5.966 10.581-10.13 15.597-1.634-1.16-3.534-1.345-4.521-.356l-14.574 12.492 1.864 4.038zm19.688 12.656-3.678 4.414-11.02-23.877 9.063-7.771zm-2.605-22.462-1.295-6.259.797-.683c.257.819.747 1.655 1.473 2.382.669.669 1.432 1.124 2.189 1.396zm4.141-4.932c-.591-.142-1.23-.521-1.752-1.043s-.902-1.161-1.043-1.752c-.112-.468-.035-.755.043-.834.242-.242 1.47-.116 2.586 1 .522.522.902 1.161 1.043 1.752.112.468.035.755-.043.834-.079.078-.366.154-.834.043z"/><circle cx="49" cy="15" r="1"/><circle cx="46" cy="18" r="1"/><circle cx="43" cy="21" r="1"/></g><g transform="matrix(0.10081247985363007 0 0 0.10081247985363007 221.13013410958763 261.95190097254317)" id="L1_12"><g><path d="m98.683 231.902c-50.33 0-91.126 40.521-91.126 90.521s40.796 90.521 91.126 90.521c41.169 0 75.953-27.09 87.261-64.29l-37.733-1.833c-9.047 18.07-27.827 30.498-49.528 30.498-30.519 0-55.254-24.57-55.254-54.897s24.736-54.897 55.254-54.897c4.266 0 8.417.487 12.396 1.403 16.576 3.751 30.318 14.948 37.504 29.84l37.361-2.577c-8.789-28.866-31.664-51.632-60.722-60.395-8.388-2.548-17.292-3.894-26.539-3.894z" fill="#838383"/><path d="m98.683 267.526c-30.519 0-55.254 24.57-55.254 54.897s24.736 54.897 55.254 54.897c21.701 0 40.482-12.428 49.528-30.498l.372-48.053c-7.186-14.891-20.928-26.088-37.504-29.84-3.979-.916-8.13-1.403-12.396-1.403z" fill="#ececec"/><path d="m185.945 296.191-37.361 2.577-45.005 3.121c-2.634.172-5.01.659-7.186 1.375-21.815 7.417-19.496 40.092 6.356 41.352l45.463 2.205 37.733 1.833 75.695 3.666c45.978 2.234 43.115-64.318-1.346-61.254l-11.738.802z" fill="#ffd659"/><path d="m185.945 296.191c-8.789-28.866-31.664-51.632-60.722-60.395-8.217-2.491-16.948-3.837-25.967-3.895 8.188 2.405 15.946 6.042 23.075 10.71 18.838 12.314 33.41 31.844 40.625 55.183z" fill="#595959"/><path d="m185.945 348.654-19.153-.945c-3.006 20.704-11.566 39.318-23.934 53.923 20.498-11.312 36.187-30.269 43.087-52.978z" fill="#595959"/><path d="m246.295 338.631-57.459-2.778-18.237-.888-17.893-.888-4.409-.2-15.431-.745-45.463-2.205c-1.718-.086-3.321-.315-4.838-.659 2.405 7.56 9.161 13.803 20.184 14.347l45.463 2.205 18.58.888 19.153.945 75.695 3.666c39.909 1.947 43.001-47.967 14.057-59.164 9.934 18.672.801 46.937-29.402 45.476z" fill="#317dc9"/><path d="m382.197 237.314c-35.013 12.629-60.035 45.962-60.035 85.109 0 50 40.796 90.521 91.126 90.521 50.359 0 91.155-40.521 91.155-90.521s-40.796-90.521-91.155-90.521c-10.908 0-21.386 1.89-31.091 5.412z" fill="#838383"/><path d="m394.422 270.819c-21.214 7.646-36.388 27.864-36.388 51.603 0 30.326 24.736 54.897 55.254 54.897s55.283-24.57 55.283-54.897-24.764-54.897-55.283-54.897c-6.613.001-12.969 1.175-18.866 3.294z" fill="#ececec"/><path d="m504.443 322.423c0-48.511-38.42-88.115-86.717-90.435 38.019 10.911 65.818 45.733 65.818 86.999 0 50-40.796 90.521-91.126 90.521-1.489 0-2.977-.029-4.438-.086 8.045 2.291 16.548 3.522 25.308 3.522 50.359 0 91.155-40.522 91.155-90.521z" fill="#595959"/><path d="m183.912 108.849-49.042-9.221c-36.244-6.816-42.686 48.998-2.348 48.998h17.607 30.318c33.354 0 31.292-34.565 3.465-39.777z" fill="#ececec"/><path d="m180.448 148.626c33.353 0 31.292-34.565 3.464-39.777l-9.734-1.833c15.889 8.791 18.895 31.529 5.783 41.609h.487z" fill="#cecece"/></g><path d="m413.288 224.345c-9.173 0-18.056 1.255-26.489 3.593l-18.918-51.755v-52.528c0-.409.008-.755.021-1.046.861-.074 2.192-.132 4.246-.132h42.428c10.088 0 18.296 8.223 18.296 18.331 0 10.092-8.208 18.303-18.296 18.303-4.174 0-7.557 3.383-7.557 7.556s3.383 7.556 7.557 7.556c18.423 0 33.409-14.99 33.409-33.416 0-18.441-14.987-33.444-33.409-33.444h-42.428c-9.806 0-19.38 1.258-19.38 16.291v46.309h-195.086v-13.782h22.765c22.105 0 31.123-12.686 32.133-23.562 1.15-12.426-8.018-27.59-27.274-31.199l-49.039-9.217c-13.177-2.479-24.934 1.659-32.263 11.356-7.458 9.857-8.778 23.872-3.299 34.888 5.609 11.266 17.206 17.734 31.813 17.734h10.058v19.793l-21.728 50.855c-7.193-1.633-14.61-2.484-22.165-2.484-54.414 0-98.683 43.997-98.683 98.077s44.269 98.078 98.683 98.078c21.614 0 42.136-6.814 59.348-19.704 15.048-11.269 26.673-26.85 33.214-44.317l31.436 1.527c4.155.203 7.711-3.013 7.914-7.181s-3.013-7.712-7.181-7.914l-74.662-3.626c-.054-.004-.107-.005-.161-.008l-45.478-2.209c-10.252-.495-13.958-7.423-14.015-13.205-.067-6.668 4.544-13.717 15-14.435l156.714-10.824c10.111-.698 18.201 3.031 22.813 10.495 4.77 7.723 4.994 17.967.555 25.49-4.225 7.162-11.903 10.686-22.174 10.183-4.204-.194-7.713 3.014-7.915 7.181-.203 4.168 3.012 7.712 7.181 7.914.847.041 1.687.061 2.519.061 14.65 0 26.734-6.352 33.407-17.661 7.212-12.223 6.925-28.744-.714-41.111-4.884-7.905-12.17-13.368-20.931-15.983l82.036-93.119 14.996 41.027c-34.166 15.435-57.982 49.675-57.982 89.341 0 54.08 44.269 98.078 98.683 98.078 54.43 0 98.712-43.998 98.712-98.078s-44.28-98.077-98.71-98.077zm-280.77-83.278c-8.918 0-15.236-3.229-18.286-9.357-2.939-5.898-2.189-13.725 1.82-19.033 2.219-2.929 6.159-6.078 12.817-6.078 1.41 0 2.939.14 4.609.46l49.039 9.217c10.468 1.959 15.546 9.167 15.017 14.955-.57 6.068-7.108 9.837-17.086 9.837h-22.765-15.106-10.059zm124.158 142.674-4.824.333-84.119-98.997h175.864zm-103.969-93.006 80.411 94.633-41.911 2.895c-6.548-17.425-18.157-32.967-33.176-44.214-7.051-5.28-14.664-9.522-22.673-12.713zm.223 100.172c-7.254-12.275-18.519-21.626-31.62-26.691l8.127-19.021c20.385 7.923 37.009 23.604 45.942 44.161zm-37.557-12.798c7.719 2.881 14.625 7.71 19.955 14.013l-26.731 1.846zm-16.69 127.278c-46.08 0-83.57-37.218-83.57-82.965 0-45.746 37.489-82.964 83.57-82.964 5.5 0 10.886.532 16.114 1.532l-8.322 19.478c-2.568-.324-5.168-.499-7.792-.499-34.635 0-62.811 28.016-62.811 62.453s28.176 62.454 62.811 62.454c22.318 0 42.52-11.483 53.857-30.277l22.748 1.105c-13.17 30.079-42.83 49.683-76.605 49.683zm3.699-53.223 32.127 1.56c-8.921 10.097-21.822 16.039-35.825 16.039-26.3 0-47.697-21.237-47.697-47.341 0-26.103 21.397-47.34 47.697-47.34.514 0 1.026.011 1.537.028l-9.556 22.367c-11.112 5.257-16.784 16.142-16.679 26.538.129 12.902 9.071 27.214 28.396 28.149zm310.906 53.223c-46.08 0-83.57-37.218-83.57-82.965 0-33.153 19.698-61.814 48.078-75.088l7.095 19.41c-20.399 10.328-34.414 31.4-34.414 55.678 0 15.172 5.715 29.997 16.093 41.744 2.764 3.128 7.537 3.424 10.667.66 3.127-2.763 3.423-7.538.66-10.666-7.936-8.983-12.307-20.254-12.307-31.739 0-17.763 9.914-33.264 24.533-41.362l16.066 43.956c1.12 3.064 4.015 4.965 7.099 4.965.861 0 1.737-.148 2.593-.461 3.92-1.433 5.937-5.771 4.504-9.691l-16.046-43.899c2.9-.549 5.889-.848 8.948-.848 26.315 0 47.725 21.237 47.725 47.34 0 26.104-21.41 47.341-47.725 47.341-2.997 0-6.077-.47-9.337-.966l-1.191-.181c-4.118-.616-7.976 2.222-8.597 6.348-.621 4.127 2.221 7.976 6.349 8.597l1.16.176c3.673.56 7.472 1.14 11.616 1.14 34.65 0 62.839-28.017 62.839-62.454s-28.189-62.453-62.839-62.453c-4.88 0-9.624.574-14.187 1.626l-7.092-19.403c6.797-1.778 13.927-2.735 21.279-2.735 46.096 0 83.598 37.218 83.598 82.964.001 45.748-37.501 82.966-83.597 82.966z"/></g></defs><g fi:class="KUsePattern"><pattern id="pattern_L1_8" width="350" height="350" patternUnits="userSpaceOnUse"><use xlink:href="#L1_8" x="-350" y="-350"/><use xlink:href="#L1_8" x="0" y="-350"/><use xlink:href="#L1_8" x="350" y="-350"/><use xlink:href="#L1_8" x="-350" y="0"/><use xlink:href="#L1_8" x="0" y="0"/><use xlink:href="#L1_8" x="350" y="0"/><use xlink:href="#L1_8" x="-350" y="350"/><use xlink:href="#L1_8" x="0" y="350"/><use xlink:href="#L1_8" x="350" y="350"/></pattern><rect x="0" y="0" width="100%" height="100%" fill="url(#pattern_L1_8)"/></g><g fi:class="KUsePattern"><pattern id="pattern_L1_9" width="350" height="350" patternUnits="userSpaceOnUse"><use xlink:href="#L1_9" x="-350" y="-350"/><use xlink:href="#L1_9" x="0" y="-350"/><use xlink:href="#L1_9" x="350" y="-350"/><use xlink:href="#L1_9" x="-350" y="0"/><use xlink:href="#L1_9" x="0" y="0"/><use xlink:href="#L1_9" x="350" y="0"/><use xlink:href="#L1_9" x="-350" y="350"/><use xlink:href="#L1_9" x="0" y="350"/><use xlink:href="#L1_9" x="350" y="350"/></pattern><rect x="0" y="0" width="100%" height="100%" fill="url(#pattern_L1_9)"/></g><g fi:class="KUsePattern"><pattern id="pattern_L1_12" width="350" height="350" patternUnits="userSpaceOnUse"><use xlink:href="#L1_12" x="-350" y="-350"/><use xlink:href="#L1_12" x="0" y="-350"/><use xlink:href="#L1_12" x="350" y="-350"/><use xlink:href="#L1_12" x="-350" y="0"/><use xlink:href="#L1_12" x="0" y="0"/><use xlink:href="#L1_12" x="350" y="0"/><use xlink:href="#L1_12" x="-350" y="350"/><use xlink:href="#L1_12" x="0" y="350"/><use xlink:href="#L1_12" x="350" y="350"/></pattern><rect x="0" y="0" width="100%" height="100%" fill="url(#pattern_L1_12)"/></g></svg>