<svg xmlns="http://www.w3.org/2000/svg" xmlns:xlink="http://www.w3.org/1999/xlink" xmlns:fi="http://pattern.flaticon.com/" x="0" y="0" width="700" height="350" viewBox="0 0 700 350"><rect x="0px" y="0px" width="100%" height="100%" opacity="1" fill="#ffffff"/><defs><g transform="matrix(0.06060197355958665 0.060601973559586644 -0.060601973559586644 0.06060197355958665 327.94696117711203 50.96845447148299)" id="L1_0"><path d="M289.437,23.138c-4.468-10.497-13.268-18.47-24.541-21.975c-16.492-4.306-33.87,3.641-41.425,18.862    c-12.339,24.789-18.785,52.545-18.632,80.199v266.817c0,0.537,0.051,1.074,0.154,1.612l22.955,118.938    c1.936,13.925,13.993,24.405,28.029,24.405c0.009,0,0.026,0,0.043,0c14.053,0,26.102-10.488,27.961-23.961l23.023-119.381    c0.111-0.529,0.162-1.074,0.162-1.612V100.207C307.106,73.526,300.915,46.742,289.437,23.138z M290.111,366.214l-22.938,119.023    c-0.767,5.534-5.568,9.704-11.179,9.704c-5.602,0-10.395-4.17-11.222-10.139l-22.87-118.58V100.182    c-0.136-25.044,5.688-50.14,16.85-72.567c3.991-8.033,13.2-12.22,21.454-10.062c6.097,1.902,11.043,6.37,13.712,12.637    c10.54,21.702,16.133,45.919,16.193,70.034V366.214z"/><path d="M217.732,189.163c-2.584-1.543-5.799-1.603-8.425-0.171L4.654,299.847c-2.754,1.492-4.468,4.366-4.468,7.495v51.163    c0,2.797,1.364,5.406,3.667,7.009c1.45,0.998,3.147,1.518,4.861,1.518c1.006,0,2.021-0.171,2.993-0.537l204.653-76.745    c3.326-1.253,5.534-4.434,5.534-7.99v-85.272C221.893,193.487,220.316,190.707,217.732,189.163z M204.839,275.851L17.24,346.201    v-33.776l187.599-101.61V275.851z"/><path d="M507.35,299.847L302.697,188.993c-2.643-1.424-5.841-1.373-8.425,0.171c-2.575,1.535-4.161,4.315-4.161,7.325v85.272    c0,3.556,2.2,6.745,5.526,7.99l204.653,76.745c0.981,0.358,1.995,0.537,3.002,0.537c1.714,0,3.411-0.512,4.843-1.518    c2.302-1.595,3.675-4.212,3.675-7.009v-51.163C511.81,304.213,510.096,301.339,507.35,299.847z M494.764,346.201l-187.599-70.35    v-65.046l187.599,101.619V346.201z"/><path d="M136.621,196.497c-14.104,0-25.582,11.478-25.582,25.582v25.582h17.054v-25.582c0-4.699,3.829-8.527,8.527-8.527    s8.527,3.829,8.527,8.527v8.527h17.054v-8.527C162.203,207.974,150.725,196.497,136.621,196.497z"/><path d="M59.876,239.124c-14.104,0-25.582,11.478-25.582,25.582v25.582h17.054v-25.582c0-4.698,3.829-8.519,8.527-8.519    c4.698,0,8.527,3.82,8.527,8.519h17.054C85.458,250.602,73.98,239.124,59.876,239.124z"/><path d="M375.383,196.497c-14.104,0-25.582,11.478-25.582,25.582v8.527h17.054v-8.527c0-4.699,3.82-8.527,8.527-8.527    c4.707,0,8.527,3.829,8.527,8.527v25.582h17.054v-25.582C400.965,207.974,389.487,196.497,375.383,196.497z"/><path d="M452.128,239.124c-14.104,0-25.582,11.478-25.582,25.582h17.054c0-4.698,3.82-8.519,8.527-8.519    c4.707,0,8.527,3.82,8.527,8.519v25.582h17.054v-25.582C477.71,250.602,466.232,239.124,452.128,239.124z"/><path d="M237.532,478.006l-92.392,15.4v-19.212l81.137-48.682l-8.775-14.624l-85.272,51.163c-2.567,1.535-4.136,4.306-4.136,7.308    v34.109c0,2.507,1.109,4.895,3.019,6.506c1.552,1.313,3.505,2.021,5.509,2.021c0.46,0,0.929-0.043,1.39-0.111l102.327-17.054    L237.532,478.006z"/><path d="M379.766,462.051l-85.272-51.163l-8.774,14.624l81.137,48.682v19.203l-92.401-15.4l-2.797,16.824l102.327,17.054    c0.469,0.077,0.929,0.119,1.398,0.119c2.004,0,3.957-0.708,5.5-2.021c1.919-1.62,3.019-3.999,3.019-6.506v-34.109    C383.902,466.366,382.333,463.595,379.766,462.051z"/><path d="M275.333,65.45c-2.788-8.348-10.744-13.712-19.425-13.925c-9.047,0.085-16.824,5.978-19.246,14.309l-5.799,17.054    l16.151,5.492l5.909-17.413c0.418-1.415,1.68-2.379,3.087-2.388c1.433,0,2.695,0.912,3.147,2.251l5.799,17.481l16.185-5.364    L275.333,65.45z"/></g><g transform="matrix(0.08715780824422836 0 0 0.08715780824422836 161.56661172889255 149.2651431865736)" id="L1_1"><path d="m504.011 252.009h-75.152l-44.37-116.84c-1.179-3.106-4.156-5.16-7.479-5.16h-62.293l-37.714-67.885c-1.411-2.54-4.088-4.115-6.993-4.115h-68c-4.857 0-8.591 4.297-7.924 9.101l8.736 62.899h-67.812c-3.322 0-6.3 2.054-7.479 5.16l-43.658 114.969c-1.569 4.13.508 8.75 4.639 10.318 4.128 1.572 8.751-.508 10.318-4.639l41.7-109.809h230.961l8.734 23h-173.51c-13.321 0-25.381 8.394-30.008 20.886l-2.222 6c-7.735 20.882 7.744 43.114 30.008 43.114h202.315l4.937 13c-128.151 0-118.633-.307-120.854.634l-83.504 35.366h-199.376c-6.035 0-9.923 6.462-7.039 11.801l30.293 56.099c2.099 3.89 6.955 5.339 10.84 3.238 3.888-2.099 5.338-6.952 3.238-10.84l-23.92-44.298c201.628 0 188.489.306 190.708-.634l83.504-35.366h195.494l-84.086 170h-313.261l-12.927-23.938c-2.099-3.887-6.953-5.336-10.84-3.238-3.888 2.1-5.338 6.952-3.238 10.84l15.194 28.138c1.396 2.587 4.1 4.199 7.039 4.199h323c3.043 0 5.822-1.726 7.171-4.453l92-186c2.62-5.296-1.226-11.547-7.17-11.547zm-285.035-122-7.778-56h54.105l9.445 17h-37.738c-4.418 0-8 3.582-8 8s3.582 8 8 8h46.626l12.778 23zm45.352 93-12.315-38h73.18l12.315 38zm-72.967-6.859c-5.5-7.9-1.823-14.832.35-20.698 2.313-6.246 8.343-10.442 15.004-10.442h28.479l12.315 38h-43.015c-5.313-.001-10.099-2.501-13.133-6.86zm162.967 6.859-12.315-38h44.288l14.43 38z"/><path d="m368.011 368.009c0-18.196-14.804-33-33-33s-33 14.804-33 33 14.804 33 33 33 33-14.804 33-33zm-50 0c0-9.374 7.626-17 17-17s17 7.626 17 17-7.626 17-17 17-17-7.626-17-17z"/><path d="m210.011 368.009c0-18.196-14.804-33-33-33s-33 14.804-33 33 14.804 33 33 33 33-14.804 33-33zm-50 0c0-9.374 7.626-17 17-17s17 7.626 17 17-7.626 17-17 17-17-7.626-17-17z"/><path d="m63.73 382.118c-2.611-6.38-11.88-6.757-14.78 0-2.408 5.809 2.575 12.124 8.96 10.9 4.856-.946 7.776-6.206 5.82-10.9z"/></g><g transform="matrix(0.08788750320672989 0 0 0.08788750320672989 302.4343259483576 212.43432594835758)" id="L1_2"><path d="M450.1,187.5l-10.2-10.8l-35.8-96.5C398,63.9,382.4,53.1,365,53H109.3c-17.4,0-33,10.9-39.1,27.2l-35.3,95.3l-14.7,13.6    C7.4,200,0,216,0,232.8v140.6c0.1,23,18.8,41.6,41.8,41.6h26.4c23,0,41.7-18.6,41.8-41.6V353h248v20.4c0.1,23,18.8,41.6,41.8,41.6    h26.4c23,0,41.7-18.6,41.8-41.6V229.1C467.9,213.4,461.5,198.4,450.1,187.5z M89,87c3.2-8.5,11.3-14,20.3-14h255.8    c9,0,17.1,5.6,20.3,14l31.2,84h-23.3c-5.5-37.5-40.4-63.4-77.9-57.8c-29.9,4.4-53.4,27.9-57.8,57.8H57.8L89,87z M372.9,171h-95.1    c5.5-26.3,31.3-43.1,57.6-37.6C354.2,137.4,368.9,152.1,372.9,171z M90,373.4c-0.1,12-9.8,21.6-21.8,21.6H41.8    c-12,0-21.7-9.6-21.8-21.6v-26.2c6,3.9,13.9,5.8,21.8,5.8H90V373.4z M448,373.4c-0.1,12-9.8,21.6-21.8,21.6h-26.4    c-12,0-21.7-9.7-21.8-21.6V353h48.2c7.9,0,15.8-1.9,21.8-5.8V373.4z M426.2,333H41.8c-11.9,0.1-21.7-9.4-21.8-21.4v-78.8    c0-11,4.9-21.5,13.3-28.6c0.1-0.1,0.3-0.3,0.4-0.4L47.3,191H426l9.6,10.3c0.1,0.2,0.4,0.3,0.5,0.5c7.5,7.1,11.8,17,11.8,27.3v82.5    h0.1C447.9,323.5,438.1,333.1,426.2,333z"/><path d="M132,231H57c-5.5,0-10,4.5-10,10v52c0,5.5,4.5,10,10,10h75c5.5,0,10-4.5,10-10v-52C142,235.5,137.5,231,132,231z M122,283    H67v-32h55V283z"/><path d="M411,231h-75c-5.5,0-10,4.5-10,10v52c0,5.5,4.5,10,10,10h75c5.5,0,10-4.5,10-10v-52C421,235.5,416.5,231,411,231z     M401,283h-55v-32h55V283z"/><path d="M282.3,273h-96.6c-5.5,0-10,4.5-10,10s4.5,10,10,10h96.6c5.5,0,10-4.5,10-10S287.8,273,282.3,273z"/><path d="M282.3,242h-96.6c-5.5,0-10,4.5-10,10s4.5,10,10,10h96.6c5.5,0,10-4.5,10-10S287.8,242,282.3,242z"/></g><g transform="matrix(0.07738926261663437 0 0 0.07738926261663437 171.18837048307114 303.18832941894493)" id="L1_3"><path d="M30.225,103.791c2.33,1.519,5.257,1.783,7.834,0.734c2.577-1.041,4.471-3.277,5.112-5.982     c1.792-7.774,8.602-13.21,16.563-13.21c3.106,0,6.144,0.845,8.772,2.449c4.028,2.441,9.284,1.161,11.716-2.867     c2.458-4.036,1.169-9.284-2.867-11.725c-5.299-3.217-11.401-4.924-17.621-4.924c-12.646,0-23.868,6.844-29.747,17.451     c-1.442-0.256-2.91-0.384-4.386-0.384c-14.114,0-25.6,11.486-25.6,25.6s11.486,25.6,25.6,25.6h25.6     c4.719,0,8.533-3.823,8.533-8.533s-3.814-8.533-8.533-8.533H25.6c-4.71,0-8.533-3.831-8.533-8.533     C17.067,104.602,24.653,100.207,30.225,103.791z"/><path d="M424.141,48.725c2.483-2.441,7.714-6.059,11.059-6.059c6.878,0,8.431,4.693,8.533,8.533     c-0.008,0.009-0.008,0.017,0,0.043c-0.008,0.009-0.008,0.026,0,0.034v0.017v0.017v0.009c0,0,0,0,0,0.009     c0.068,4.651,3.857,8.405,8.533,8.405c4.685,0,8.491-3.772,8.533-8.448c0.102-3.934,1.672-8.619,8.533-8.619     c3.345,0,8.576,3.618,11.034,6.033c3.337,3.337,8.73,3.337,12.066,0c3.336-3.336,3.336-8.73,0-12.066     c-1.126-1.126-11.366-11.034-23.1-11.034c-7.475,0-13.056,2.423-17.067,5.999c-4.011-3.576-9.591-5.999-17.067-5.999     c-11.733,0-21.973,9.907-23.1,11.034c-3.328,3.319-3.328,8.695-0.009,12.032C415.386,51.994,420.779,52.028,424.141,48.725z"/><path d="M492.237,307.874c-6.938-20.506-26.402-34.807-48.503-34.807c-4.719,0-8.533,3.823-8.533,8.533s3.814,8.533,8.533,8.533     c16.188,0,30.259,11.511,33.451,27.366c0.845,4.181,4.787,7.134,8.866,6.835c0.308-0.015,0.613-0.048,0.461-0.063     c4.659,0.06,8.422,3.863,8.422,8.528c0,4.702-3.823,8.533-8.533,8.533h-93.867c-4.719,0-8.533,3.823-8.533,8.533     s3.814,8.533,8.533,8.533H486.4c14.114,0,25.6-11.486,25.6-25.6C512,320.691,503.552,310.519,492.237,307.874z"/><path d="M256,0c-0.29,0-0.563,0.043-0.862,0.043h-0.008C148.548,0.486,68.267,81.007,68.267,187.733     c0,52.096,33.502,97.434,65.894,141.286c27.546,37.291,53.572,72.516,53.572,106.18v51.2c0,14.114,11.486,25.6,25.6,25.6h85.333     c14.114,0,25.6-11.486,25.6-25.6v-51.2c0-4.71-3.814-8.533-8.533-8.533H230.4c-4.719,0-8.533,3.823-8.533,8.533     s3.814,8.533,8.533,8.533h76.8V486.4c0,4.702-3.823,8.533-8.533,8.533h-85.333c-4.71,0-8.533-3.831-8.533-8.533v-51.2     c0-39.287-27.648-76.706-56.917-116.326c-30.746-41.626-62.549-84.668-62.549-131.14c0-87.151,58.931-154.923,141.133-168.149     C197.299,45.065,153.6,98.159,153.6,187.733c0,67.968,21.7,113.946,39.134,150.886c11.511,24.388,20.599,43.648,20.599,62.447     c0,4.71,3.814,8.533,8.533,8.533s8.533-3.823,8.533-8.533c0-22.622-10.3-44.459-22.238-69.734     c-16.708-35.396-37.495-79.454-37.495-143.599c0-94.362,52.07-144.7,76.8-163.277v376.61c0,4.71,3.814,8.533,8.533,8.533     s8.533-3.823,8.533-8.533V24.457c24.721,18.577,76.8,68.915,76.8,163.277c0,64.145-20.796,108.203-37.504,143.599     c-11.93,25.276-22.229,47.113-22.229,69.734c0,4.71,3.814,8.533,8.533,8.533s8.533-3.823,8.533-8.533     c0-18.799,9.088-38.059,20.599-62.447C336.7,301.679,358.4,255.701,358.4,187.733c0-89.574-43.699-142.669-72.866-168.149     c82.202,13.227,141.133,80.998,141.133,168.149c0,51.473-33.579,93.329-63.215,130.261     c-22.485,28.015-43.716,54.485-47.633,81.86c-0.666,4.668,2.569,8.994,7.236,9.66c4.693,0.666,8.994-2.577,9.66-7.236     c3.251-22.758,23.066-47.454,44.041-73.6c31.394-39.125,66.978-83.473,66.978-140.945C443.733,80.708,363.025,0,256,0z"/></g></defs><g fi:class="KUsePattern"><pattern id="pattern_L1_0" width="350" height="350" patternUnits="userSpaceOnUse"><use xlink:href="#L1_0" x="-350" y="-350"/><use xlink:href="#L1_0" x="0" y="-350"/><use xlink:href="#L1_0" x="350" y="-350"/><use xlink:href="#L1_0" x="-350" y="0"/><use xlink:href="#L1_0" x="0" y="0"/><use xlink:href="#L1_0" x="350" y="0"/><use xlink:href="#L1_0" x="-350" y="350"/><use xlink:href="#L1_0" x="0" y="350"/><use xlink:href="#L1_0" x="350" y="350"/></pattern><rect x="0" y="0" width="100%" height="100%" fill="url(#pattern_L1_0)"/></g><g fi:class="KUsePattern"><pattern id="pattern_L1_1" width="350" height="350" patternUnits="userSpaceOnUse"><use xlink:href="#L1_1" x="-350" y="-350"/><use xlink:href="#L1_1" x="0" y="-350"/><use xlink:href="#L1_1" x="350" y="-350"/><use xlink:href="#L1_1" x="-350" y="0"/><use xlink:href="#L1_1" x="0" y="0"/><use xlink:href="#L1_1" x="350" y="0"/><use xlink:href="#L1_1" x="-350" y="350"/><use xlink:href="#L1_1" x="0" y="350"/><use xlink:href="#L1_1" x="350" y="350"/></pattern><rect x="0" y="0" width="100%" height="100%" fill="url(#pattern_L1_1)"/></g><g fi:class="KUsePattern"><pattern id="pattern_L1_2" width="350" height="350" patternUnits="userSpaceOnUse"><use xlink:href="#L1_2" x="-350" y="-350"/><use xlink:href="#L1_2" x="0" y="-350"/><use xlink:href="#L1_2" x="350" y="-350"/><use xlink:href="#L1_2" x="-350" y="0"/><use xlink:href="#L1_2" x="0" y="0"/><use xlink:href="#L1_2" x="350" y="0"/><use xlink:href="#L1_2" x="-350" y="350"/><use xlink:href="#L1_2" x="0" y="350"/><use xlink:href="#L1_2" x="350" y="350"/></pattern><rect x="0" y="0" width="100%" height="100%" fill="url(#pattern_L1_2)"/></g><g fi:class="KUsePattern"><pattern id="pattern_L1_3" width="350" height="350" patternUnits="userSpaceOnUse"><use xlink:href="#L1_3" x="-350" y="-350"/><use xlink:href="#L1_3" x="0" y="-350"/><use xlink:href="#L1_3" x="350" y="-350"/><use xlink:href="#L1_3" x="-350" y="0"/><use xlink:href="#L1_3" x="0" y="0"/><use xlink:href="#L1_3" x="350" y="0"/><use xlink:href="#L1_3" x="-350" y="350"/><use xlink:href="#L1_3" x="0" y="350"/><use xlink:href="#L1_3" x="350" y="350"/></pattern><rect x="0" y="0" width="100%" height="100%" fill="url(#pattern_L1_3)"/></g></svg>