<svg xmlns="http://www.w3.org/2000/svg" viewBox="0 0 512 512"><path class="tree" d="M275.5 516.5h-39V377.1c-19.5 9.4-41.2 14.4-62.8 14.4-79.5 0-144.1-64.6-144.1-144.1 0-56.3 33-107.7 84.2-131.1 5.1-31.3 20.7-60.5 44-82.2C184.6 9.2 219.4-4.5 256-4.5s71.4 13.7 98.2 38.6c23.3 21.7 38.9 50.9 44 82.2 51.2 23.4 84.2 74.7 84.2 131.1 0 79.5-64.6 144.1-144.1 144.1-21.7 0-43.3-5-62.8-14.4v139.4zm-35-4h31V370.6l2.9 1.5c19.7 10.1 41.8 15.4 63.9 15.4 77.3 0 140.1-62.9 140.1-140.1 0-55.1-32.5-105.3-82.8-127.9l-1-.4-.2-1.1c-4.8-30.9-20-59.6-43-81-26-24.2-59.9-37.6-95.5-37.6S186.4 12.7 160.4 37c-22.9 21.4-38.2 50.1-43 81l-.2 1.1-1 .4C65.9 142 33.4 192.2 33.4 247.4c0 77.3 62.9 140.1 140.1 140.1 22.1 0 44.2-5.3 63.9-15.4l2.9-1.5v141.9zm30-1h-29V368.9l-.7.4c-20.5 11.3-43.7 17.2-67.1 17.2-76.7 0-139.1-62.4-139.1-139.1 0-55.3 32.8-105.4 83.5-127.5l.3-.1v-.3c4.5-31.2 19.7-60.2 42.9-81.7C187 13.7 220.7.5 256 .5s69 13.2 94.8 37.3c23.1 21.6 38.4 50.6 42.9 81.7v.3l.3.1c50.7 22.1 83.5 72.2 83.5 127.5 0 76.7-62.4 139.1-139.1 139.1-23.4 0-46.6-6-67.1-17.2l-.7-.4v142.6zm-25-4h21V362.1l6.7 3.7c19.9 11 42.4 16.7 65.1 16.7 74.5 0 135.1-60.6 135.1-135.1 0-53.7-31.8-102.4-81.1-123.9l-2.3-1-.4-2.5c-4.4-30.3-19.2-58.5-41.7-79.4C323 17.4 290.3 4.5 256 4.5c-34.3 0-67 12.9-92.1 36.2-22.5 20.9-37.3 49.1-41.6 79.4l-.4 2.5-2.3 1c-49.2 21.5-81.1 70.1-81.1 123.9 0 74.5 60.6 135.1 135.1 135.1 22.7 0 45.3-5.8 65.1-16.7l6.7-3.7v145.3zm92.8-146c-25.3 0-50.2-8.5-70.1-24.1l-1.7-1.3v-96.7l65.7-34.5-9.8-18.6-55.9 29.4v-62h-21v128.5l-55.9-29.4-9.8 18.6 65.7 34.5v30.2l-1.7 1.4c-19.9 15.5-44.8 24.1-70.1 24.1-62.9 0-114.1-51.2-114.1-114.1 0-48.1 30.4-91.3 75.7-107.5l6.4-2.3.5-6.8c2.2-28.6 15-55.2 36-74.8C199.4 36.4 227 25.5 256 25.5s56.6 10.9 77.7 30.6c21.1 19.6 33.9 46.2 36 74.8l.5 6.8 6.4 2.3c45.3 16.2 75.7 59.4 75.7 107.5.1 62.9-51.1 114-114 114zm-67.8-27.3l.2.1c19.2 15 43.2 23.2 67.6 23.2 60.7 0 110.1-49.4 110.1-110.1 0-46.4-29.4-88.1-73.1-103.7l-8.9-3.2-.7-9.4c-2.1-27.6-14.4-53.2-34.8-72.2s-47.1-29.5-75-29.5-54.6 10.5-75 29.5c-20.3 18.9-32.7 44.6-34.8 72.2l-.7 9.4-8.9 3.2C92.9 159.3 63.6 201 63.6 247.4c0 60.7 49.4 110.1 110.1 110.1 24.4 0 48.4-8.2 67.6-23.2l.2-.2v-25.8L174.4 273l13.5-25.7 53.6 28.2V149.7h29v59.4l53.6-28.2 13.5 25.7-67.1 35.3v92.3zm67.8 22.3c-23.7 0-47.2-7.9-66-22.3l-.8-.6v-91.2L339 207l-14.4-27.4-53 27.9v-58.7h-31V274l-53-27.9-14.6 27.4 67.5 35.5v24.7l-.8.6c-18.9 14.4-42.3 22.3-66 22.3-60.2 0-109.1-48.9-109.1-109.1 0-46 29.1-87.3 72.4-102.8l9.5-3.4.8-10c2.1-27.3 14.3-52.7 34.5-71.5 20.2-18.9 46.6-29.2 74.3-29.2s54.1 10.4 74.3 29.2c20.1 18.8 32.4 44.2 34.5 71.5l.8 10 9.5 3.4c43.3 15.5 72.4 56.8 72.4 102.8-.2 60.1-49.1 109-109.3 109zm-62.8-24.8c18 13.5 40.3 20.8 62.8 20.8 58 0 105.1-47.2 105.1-105.1 0-44.3-28-84.1-69.7-99l-11.9-4.3-1-12.6c-2-26.3-13.8-50.8-33.2-68.9-19.5-18.2-44.9-28.2-71.6-28.2s-52.1 10-71.6 28.2c-19.4 18.1-31.2 42.5-33.2 68.9l-1 12.6-11.9 4.3c-41.7 14.9-69.7 54.7-69.7 99 0 58 47.1 105.1 105.1 105.1 22.5 0 44.8-7.4 62.8-20.8v-20.3l-68.9-36.2 18.2-34.5 50.7 26.7V144.7h39v56.1l50.7-26.7 18.2 34.5-68.9 36.2v86.9z"/><path d="M277.5 518.5h-43V380.3c-19 8.7-40 13.3-60.8 13.3-80.6 0-146.1-65.5-146.1-146.1C27.6 190.8 60.7 139 112 115c5.3-31.4 21.1-60.6 44.5-82.3C183.6 7.4 218.9-6.5 256-6.5s72.4 13.9 99.6 39.2c23.4 21.8 39.1 51 44.5 82.3 51.3 23.9 84.4 75.8 84.4 132.5 0 80.6-65.5 146.1-146.1 146.1-20.8 0-41.8-4.6-60.8-13.3v138.2zm-39-4h35V373.9l2.9 1.4c19.2 9.3 40.6 14.2 61.9 14.2 78.4 0 142.1-63.7 142.1-142.1 0-55.5-32.6-106.2-83-129.3l-1-.4-.2-1.1c-5-30.9-20.4-59.7-43.4-81.1-26.3-24.5-60.7-38-96.8-38S185.6 11 159.2 35.6c-23 21.4-38.4 50.2-43.4 81.1l-.2 1.1-1 .4c-50.4 23.1-83 73.8-83 129.3 0 78.4 63.7 142.1 142.1 142.1 21.3 0 42.7-4.9 61.9-14.2l2.9-1.4v140.5zm30-5h-25v-144l-3.7 2c-20.2 11.1-43.1 17-66.1 17-75.6 0-137.1-61.5-137.1-137.1 0-54.5 32.3-103.9 82.3-125.7l1.3-.6.2-1.4c4.4-30.7 19.5-59.3 42.3-80.6C188 15.6 221.2 2.5 256 2.5s68 13.1 93.4 36.8c22.8 21.3 37.8 49.9 42.3 80.6l.2 1.4 1.3.6c50 21.8 82.3 71.2 82.3 125.7 0 75.6-61.5 137.1-137.1 137.1-23.1 0-45.9-5.9-66.1-17l-3.7-2v143.8zm-21-4h17V358.7l9.6 5.3c19.6 10.8 41.8 16.5 64.2 16.5 73.4 0 133.1-59.7 133.1-133.1 0-52.9-31.3-100.8-79.9-122l-3.3-1.4-.5-3.6c-4.3-29.8-18.9-57.6-41-78.2C322 19.2 289.8 6.5 256 6.5c-33.8 0-66 12.7-90.7 35.7-22.1 20.6-36.7 48.4-41 78.2l-.5 3.6-3.3 1.4c-48.5 21.2-79.9 69.1-79.9 122 0 73.4 59.7 133.1 133.1 133.1 22.4 0 44.6-5.7 64.2-16.5l9.6-5.3v146.8zm90.8-142c-25.7 0-51-8.7-71.3-24.5l-2.5-1.9v-98.9l65-34.2-7.9-15-57.1 30v-63.3h-17v129.8l-57.1-30-7.9 15 65 34.2v32.4l-2.5 2c-20.3 15.8-45.6 24.5-71.3 24.5-64 0-116.1-52.1-116.1-116.1 0-49 31-92.9 77-109.4l5.2-1.9.4-5.5c2.2-29.1 15.2-56.1 36.7-76.1 21.5-20.1 49.6-31.1 79.1-31.1 29.5 0 57.6 11.1 79.1 31.1 21.4 20 34.5 47 36.7 76.1l.4 5.5 5.2 1.9c46.1 16.5 77 60.4 77 109.4 0 64-52.1 116-116.1 116zm-69.8-28.4l1 .7c19.6 15.3 44 23.7 68.9 23.7 61.8 0 112.1-50.3 112.1-112.1 0-47.3-29.9-89.7-74.4-105.6l-7.6-2.7-.6-8.1c-2.1-28.1-14.7-54.2-35.4-73.5-20.8-19.4-47.9-30-76.4-30-28.5 0-55.6 10.7-76.4 30-20.7 19.3-33.3 45.4-35.4 73.5l-.6 8.1-7.6 2.7c-44.5 15.9-74.4 58.3-74.4 105.6 0 61.8 50.3 112.1 112.1 112.1 24.8 0 49.3-8.4 68.9-23.6l1-.8v-28l-66.4-34.9 11.6-22.1 54.8 28.8V151.7h25v60.7l54.8-28.8 11.6 22.1-66.4 34.9v94.5zm69.8 19.4c-22.9 0-45.6-7.5-64-21.2l-.8-.6v-89l68.2-35.8-16.3-31-51.9 27.3v-57.4h-35v123.9l-51.9-27.3-16.3 31 68.2 35.8v22.5l-.8.6c-18.4 13.7-41.1 21.2-64 21.2-59.1 0-107.1-48-107.1-107.1 0-45.2 28.6-85.7 71.1-100.9l10.7-3.8.9-11.3c2-26.8 14-51.8 33.8-70.2 19.9-18.5 45.8-28.7 73-28.7 27.2 0 53.1 10.2 73 28.7 19.8 18.4 31.8 43.3 33.8 70.2l.9 11.3 10.7 3.8c42.5 15.2 71.1 55.7 71.1 100.9-.2 59.1-48.2 107.1-107.3 107.1zm-60.8-23.8c17.5 12.8 39.1 19.9 60.8 19.9 56.9 0 103.1-46.3 103.1-103.1 0-43.5-27.5-82.5-68.4-97.1l-13.2-4.7-1.1-13.9c-2-25.8-13.5-49.8-32.6-67.6C307 46.4 282 36.6 255.9 36.6c-26.2 0-51.1 9.8-70.2 27.6-19 17.7-30.6 41.7-32.6 67.6l-1.1 13.9-13.2 4.7C97.9 165 70.4 204 70.4 247.5c0 56.9 46.3 103.1 103.1 103.1 21.7 0 43.3-7 60.8-19.9v-18.1L164.9 276l20-38.1 49.5 26.1V142.7h43v54.8l49.5-26.1 20 38.1-69.6 36.6v84.6z"/></svg>