<svg xmlns="http://www.w3.org/2000/svg" viewBox="0 0 512 512"><switch><g><path d="M248 296h16v16h-16zM248 384h16v16h-16z"/><path d="M288 498h-64c-5.5 0-10-4.5-10-10v-88.4l-136.7-38c-4.3-1.2-7.3-5.2-7.3-9.6v-46H56c-20.2 0-37.5-14.4-41.3-34.2-4.2-22.3 10.1-43.9 32.1-48.8 3.8-21 20.4-37.2 41.6-40.5 26.8-4.1 51.9 14 56.8 40.5 19.1 4.3 32.8 21.3 32.8 41 0 11.2-4.4 21.8-12.3 29.7-7.9 7.9-18.5 12.3-29.7 12.3h-14v13.3l92 13.1v-72.3L123.9 170H112c-20.2 0-37.5-14.4-41.3-34.2-4.2-22.3 10.1-43.9 32.1-48.8 3.8-21 20.4-37.2 41.6-40.5 26.8-4.1 52 14 56.8 40.5 13 2.9 23.9 11.9 29.2 24.2 8.9 20.3.3 44-19.1 54.1l12.6 12.6 42.3-42.3c-14.1-4.9-24.8-17.1-27.6-31.9-4.2-22.3 10.2-43.8 32.1-48.6 3.8-21 20.4-37.2 41.6-40.5 13.2-2 26.4 1.2 37.2 9.1 10.4 7.6 17.3 18.7 19.6 31.4 19.1 4.3 32.8 21.3 32.8 41 0 10.8-4.1 21.1-11.5 28.9 5.4-3.2 11.5-5.4 18-6.4 13.2-2 26.4 1.2 37.2 9.1 10.4 7.6 17.3 18.7 19.6 31.4 19.1 4.3 32.8 21.3 32.8 41 0 11.2-4.4 21.8-12.3 29.7-7.9 7.9-18.5 12.3-29.7 12.3h-6v62c0 4.4-2.8 8.2-7 9.5l-145 45.8V488c0 5.5-4.5 10-10 10zM56 302h18v50c0 2.7 1.8 5.1 4.4 5.8L218 396.6V488c0 3.3 2.7 6 6 6h64c3.3 0 6-2.7 6-6V356.4l147.8-46.7c2.5-.8 4.2-3.1 4.2-5.7v-66h10c10.1 0 19.7-3.9 26.9-11.1 7.2-7.2 11.1-16.7 11.1-26.9 0-18.3-13-34-30.9-37.4l-1.4-.3-.2-1.4c-1.9-12.1-8.3-22.8-18.2-30.1-9.9-7.3-22-10.3-34.2-8.4-20 3.1-35.5 18.5-38.5 38.5l-.2 1.4-1.4.3c-20.6 3.9-34.2 23.8-30.3 44.4 3.3 18 19 31 37.3 31h26v29.1l-108 21.6V256c0-1.6-.6-3.1-1.8-4.2L264.5 224l90-90h5.5c10.1 0 19.7-3.9 26.9-11.1 7.2-7.2 11.1-16.7 11.1-26.9 0-18.3-13-34-30.9-37.4l-1.4-.3-.2-1.4c-1.9-12.1-8.3-22.8-18.2-30.1-9.9-7.3-22-10.3-34.2-8.4-20 3.1-35.5 18.5-38.5 38.5l-.2 1.4-1.4.3c-20.5 3.9-34.1 23.7-30.3 44.2 2.7 14.5 13.7 26.1 27.9 29.8l3.4.9-50 50-19.5-19.5 2.7-1.2c19.2-8.4 28-30.8 19.6-50-5-11.5-15.4-19.8-27.7-22.1l-1.4-.3-.2-1.4c-3.8-25.1-27.3-42.4-52.4-38.5-20 3.1-35.5 18.5-38.5 38.5l-.2 1.4-1.4.3c-20.6 3.9-34.2 23.8-30.3 44.4C78 153 93.7 166 112 166h13.5l.6.6 91.9 91.9v78.6l-100-14.3V302h18c10.1 0 19.7-3.9 26.9-11.1 7.2-7.2 11.1-16.7 11.1-26.9 0-18.3-13-34-30.9-37.4l-1.4-.3-.2-1.4c-3.8-25.1-27.4-42.4-52.4-38.5-20 3.1-35.5 18.5-38.5 38.5l-.2 1.4-1.4.3c-20.6 3.9-34.2 23.8-30.3 44.4 3.3 18 19 31 37.3 31zm214.1-78l24.9 24.9c1.9 1.9 2.9 4.4 2.9 7.1v27.8l100-20V242h-22c-20.2 0-37.5-14.4-41.3-34.2-4.2-22.3 10.1-43.9 32.1-48.8 1.9-10.2 6.7-19.3 13.7-26.3-6.2 3.5-13.2 5.3-20.4 5.3h-3.9l-86 86zM282 482h-52v-28h16v-12h-16v-50c0-2.7-1.8-5.1-4.4-5.8L86 347.4V302h20v26c0 3 2.2 5.5 5.1 5.9l111.9 16 37.8 7.6 2.4-11.8L230 339v-77h16v-12h-19.5l-84-84h47l44.8 44.8 8.5-8.5-10.3-10.3 58-58h47l-85.8 85.8c-2.3 2.3-2.3 6.1 0 8.5l30.2 30.2V296c0 3.3 2.7 6 6 6 .4 0 .8 0 1.2-.1l24.8-5V310h12v-15.5l76-15.2v6.7h12v-48h20v61.6l-68 21.5V306h-12v18.9l-67.8 21.4c-2.5.8-4.2 3.1-4.2 5.7v74h-16v12h16v44zm-48-4h44v-36h-16v-20h16v-70c0-4.4 2.8-8.2 7-9.5l65-20.5v-20h20v13.6l60-18.9V242h-12v48h-20v-5.8l-68 13.6V314h-20v-12.2l-20 4c-.7.1-1.3.2-2 .2-5.5 0-10-4.5-10-10v-35.9L248.9 231c-3.9-3.9-3.9-10.2 0-14.1l78.9-78.9h-35.7l-54 54 10.3 10.3-14.1 14.1-46.4-46.4h-35.7l76 76H250v20h-16v69.8l33.9 6.8-3.9 19.6-41.6-8.3-111.8-16c-4.9-.7-8.6-5-8.6-9.9v-22H90v38.4l136.7 38c4.3 1.2 7.3 5.2 7.3 9.6v46h16v20h-16v20zm-98-188H56c-14.3 0-26-11.7-26-26s11.7-26 26-26c3.3 0 6-2.7 6-6 .1-18.7 15.3-33.8 34-33.8h.2c15.9.1 29.5 11 33 26.4l.4 2-2 .4c-16.8 3.8-28.7 18-29.6 35h12c1-13.4 12.3-24 25.9-24 14.3 0 26 11.7 26 26 .1 14.3-11.6 26-25.9 26zm-40-87.8c-16.5 0-29.9 13.4-30 29.9 0 5.5-4.5 10-10 10-12.1 0-22 9.9-22 22s9.9 22 22 22h80c12.1 0 22-9.9 22-22s-9.9-22-22-22-22 9.9-22 22v2H94v-2c0-19 12.6-35.4 30.8-40.4-3.7-12.7-15.2-21.4-28.6-21.4-.1-.1-.2-.1-.2-.1zM456 226h-80c-14.3 0-26-11.7-26-26s11.7-26 26-26c13.7 0 24.9 10.6 25.9 24h12c-.9-17-12.8-31.2-29.6-35l-2-.4.4-2c4.2-18.3 22.4-29.8 40.7-25.6 15.5 3.5 26.4 17.1 26.4 33 0 3.3 2.7 6 6 6 14.3 0 26 11.7 26 26s-11.5 26-25.8 26zm-80-48c-12.1 0-22 9.9-22 22s9.9 22 22 22h80c12.1 0 22-9.9 22-22s-9.9-22-22-22c-5.5 0-10-4.5-10-10-.1-14-9.7-26-23.3-29.1-15.5-3.5-31 5.7-35.4 20.7 18.2 5 30.7 21.4 30.8 40.4v2h-20v-2c-.1-12.1-10-22-22.1-22zm-184-24h-80c-14.3 0-26-11.7-26-26s11.7-26 26-26c13.7 0 24.9 10.6 25.9 24h12c-.9-17-12.8-31.2-29.6-35l-2-.4.4-2c2-8.9 7.4-16.4 15.1-21.2 7.7-4.8 16.8-6.4 25.7-4.4 15.5 3.5 26.4 17.1 26.4 33 0 3.3 2.7 6 6 6 14.3 0 26 11.7 26 26s-11.6 26-25.9 26zm-80-48c-12.1 0-22 9.9-22 22s9.9 22 22 22h80c12.1 0 22-9.9 22-22s-9.9-22-22-22c-5.5 0-10-4.5-10-10-.1-14-9.7-26-23.3-29.1-15.5-3.5-31 5.7-35.4 20.7 18.2 5 30.7 21.4 30.8 40.4v2h-20v-2c-.1-12.1-10-22-22.1-22zm248 16h-80c-14.3 0-26-11.7-26-26s11.7-26 26-26c3.3 0 6-2.7 6-6 .1-18.8 15.4-34 34.2-33.8 15.9.1 29.5 11 33 26.4l.4 2-2 .4c-16.8 3.8-28.7 18-29.6 35h12c1-13.4 12.3-24 25.9-24 14.3 0 26 11.7 26 26s-11.6 26-25.9 26zm-40-87.8c-16.5 0-29.9 13.4-30 29.9 0 5.5-4.5 10-10 10-12.1 0-22 9.9-22 22s9.9 22 22 22h80c12.1 0 22-9.9 22-22s-9.9-22-22-22-22 9.9-22 22v2h-20v-2c0-19 12.6-35.4 30.8-40.4-3.7-12.7-15.2-21.4-28.6-21.4-.1-.1-.2-.1-.2-.1z"/><path d="M280 88h16v16h-16zM64 256h16v16H64z"/></g></switch></svg>