<svg id="Layer_1" height="512" viewBox="0 0 128 128" width="512" xmlns="http://www.w3.org/2000/svg" data-name="Layer 1"><path d="m19.578 13h49.333v102h-49.333z" fill="#869aff"/><path d="m55.017 13h13.894v102h-13.894z" fill="#6f6fff"/><path d="m33.411 83.328h21.667v31.672h-21.667z" fill="#f1f3fa"/><path d="m28.244 21.59h32v8.59h-32z" fill="#f1f3fa"/><path d="m28.001 40.524h10.454v10.454h-10.454z" fill="#f1f3fa"/><path d="m49.79 40.524h10.454v10.454h-10.454z" fill="#f1f3fa"/><path d="m28.001 59.691h10.454v10.454h-10.454z" fill="#f1f3fa"/><path d="m49.79 59.691h10.454v10.454h-10.454z" fill="#f1f3fa"/><path d="m68.911 80.5h19.756v8.625h-19.756z" fill="#ce5d42"/><path d="m78.789 89.125h19.756v8.625h-19.756z" fill="#ffae47"/><path d="m68.911 97.75h19.756v8.625h-19.756z" fill="#ce5d42"/><path d="m88.667 97.75h19.756v8.625h-19.756z" fill="#ce5d42"/><path d="m78.789 106.375h19.756v8.625h-19.756z" fill="#ffae47"/><path d="m68.911 89.125h9.878v8.625h-9.878z" fill="#ffae47" transform="matrix(-1 0 0 -1 147.7 186.875)"/><path d="m55.017 21.59h5.227v8.827h-5.227z" fill="#d8e2eb"/><path d="m55.017 40.524h5.227v10.454h-5.227z" fill="#d8e2eb"/><path d="m55.017 59.691h5.227v10.454h-5.227z" fill="#d8e2eb"/><path d="m44.244 83.328h10.833v31.672h-10.833z" fill="#d8e2eb"/><path d="m101.833 97.75h6.589v8.625h-6.589z" fill="#a9403a"/><path d="m82.078 97.75h6.589v8.625h-6.589z" fill="#a9403a"/><path d="m82.078 80.5h6.589v8.625h-6.589z" fill="#a9403a"/><path d="m91.955 89.125h6.589v8.625h-6.589z" fill="#ff8e1f"/><path d="m91.955 106.375h6.589v8.625h-6.589z" fill="#ff8e1f"/><path d="m72.2 89.125h6.589v8.625h-6.589z" fill="#ff8e1f"/><g fill="#8b3120"><path d="m34.5 23.34a1.75 1.75 0 0 0 0-3.5h-6.256a1.75 1.75 0 0 0 -1.75 1.75v8.59a1.75 1.75 0 0 0 1.75 1.75h32a1.75 1.75 0 0 0 1.75-1.75v-8.59a1.75 1.75 0 0 0 -1.75-1.75h-10.454a1.75 1.75 0 0 0 0 3.5h8.7v5.09h-28.5v-5.09z"/><path d="m42.625 23.34a1.75 1.75 0 0 0 0-3.5h-1.125a1.75 1.75 0 0 0 0 3.5z"/><path d="m26.251 50.979a1.75 1.75 0 0 0 1.749 1.75h10.455a1.75 1.75 0 0 0 1.75-1.75v-10.455a1.75 1.75 0 0 0 -1.75-1.75h-10.455a1.75 1.75 0 0 0 -1.75 1.75zm3.5-8.7h6.954v6.954h-6.954z"/><path d="m61.994 40.524a1.75 1.75 0 0 0 -1.75-1.75h-10.454a1.75 1.75 0 0 0 -1.75 1.75v10.455a1.75 1.75 0 0 0 1.75 1.75h10.454a1.75 1.75 0 0 0 1.75-1.75zm-3.5 8.7h-6.954v-6.95h6.954z"/><path d="m26.251 70.145a1.75 1.75 0 0 0 1.749 1.755h10.455a1.75 1.75 0 0 0 1.75-1.75v-10.459a1.75 1.75 0 0 0 -1.75-1.75h-10.455a1.75 1.75 0 0 0 -1.75 1.75zm3.5-8.7h6.954v6.955h-6.954z"/><path d="m60.244 71.9a1.75 1.75 0 0 0 1.75-1.75v-10.459a1.75 1.75 0 0 0 -1.75-1.75h-10.454a1.75 1.75 0 0 0 -1.75 1.75v10.454a1.75 1.75 0 0 0 3.5 0v-8.7h6.954v8.7a1.75 1.75 0 0 0 1.75 1.755z"/><path d="m108.423 96h-8.128v-6.875a1.75 1.75 0 0 0 -1.75-1.75h-8.128v-6.875a1.75 1.75 0 0 0 -1.75-1.75h-18.006v-65.75a1.75 1.75 0 0 0 -1.75-1.75h-49.334a1.75 1.75 0 0 0 -1.75 1.75v94.738a1.75 1.75 0 0 0 3.5 0v-92.988h45.834v98.5h-32v-28.171h18.166v22.754a1.75 1.75 0 0 0 3.5 0v-24.5a1.75 1.75 0 0 0 -1.75-1.75h-21.666a1.75 1.75 0 0 0 -1.75 1.75v29.917h-18.661a1.75 1.75 0 0 0 0 3.5h95a1.75 1.75 0 0 0 0-3.5h-27.461v-5.125h16.256v1.563a1.75 1.75 0 0 0 3.5 0v-1.562h8.128a1.75 1.75 0 0 0 1.75-1.75v-8.626a1.75 1.75 0 0 0 -1.75-1.75zm-21.506-13.75v5.125h-16.256v-5.125zm-9.878 13.75h-6.378v-5.125h6.378zm0 17.25h-6.378v-5.125h6.378zm-6.378-8.625v-5.125h8.128a1.75 1.75 0 0 0 1.75-1.75v-6.875h16.256v5.125h-11.378a1.75 1.75 0 0 0 0 3.5h1.5v5.125zm36.012 0h-16.256v-5.125h16.256z"/><path d="m115 113.25h-1a1.75 1.75 0 0 0 0 3.5h1a1.75 1.75 0 0 0 0-3.5z"/></g></svg>