<svg height="512" viewBox="0 0 128 128" width="512" xmlns="http://www.w3.org/2000/svg" data-name="Layer 1"><path d="M19.578 13h49.333v102H19.578z" fill="#869aff"/><path d="M55.017 13h13.894v102H55.017z" fill="#6f6fff"/><path d="M33.411 83.328h21.667V115H33.411zM28.244 21.59h32v8.59h-32zM28.001 40.524h10.454v10.454H28.001zM49.79 40.524h10.454v10.454H49.79zM28.001 59.691h10.454v10.454H28.001zM49.79 59.691h10.454v10.454H49.79z" fill="#f1f3fa"/><path d="M68.911 80.5h19.756v8.625H68.911z" fill="#ce5d42"/><path d="M78.789 89.125h19.756v8.625H78.789z" fill="#ffae47"/><path d="M68.911 97.75h19.756v8.625H68.911zM88.667 97.75h19.756v8.625H88.667z" fill="#ce5d42"/><path d="M78.789 106.375h19.756V115H78.789zM78.789 97.75h-9.878v-8.625h9.878z" fill="#ffae47"/><path d="M55.017 21.59h5.227v8.827h-5.227zM55.017 40.524h5.227v10.454h-5.227zM55.017 59.691h5.227v10.454h-5.227zM44.244 83.328h10.833V115H44.244z" fill="#d8e2eb"/><path d="M101.833 97.75h6.589v8.625h-6.589zM82.078 97.75h6.589v8.625h-6.589zM82.078 80.5h6.589v8.625h-6.589z" fill="#a9403a"/><path d="M91.955 89.125h6.589v8.625h-6.589zM91.955 106.375h6.589V115h-6.589zM72.2 89.125h6.589v8.625H72.2z" fill="#ff8e1f"/><g fill="#8b3120"><path d="M34.5 23.34a1.75 1.75 0 000-3.5h-6.256a1.75 1.75 0 00-1.75 1.75v8.59a1.75 1.75 0 001.75 1.75h32a1.75 1.75 0 001.75-1.75v-8.59a1.75 1.75 0 00-1.75-1.75H49.79a1.75 1.75 0 000 3.5h8.7v5.09h-28.5v-5.09z"/><path d="M42.625 23.34a1.75 1.75 0 000-3.5H41.5a1.75 1.75 0 000 3.5zM26.251 50.979A1.75 1.75 0 0028 52.729h10.455a1.75 1.75 0 001.75-1.75V40.524a1.75 1.75 0 00-1.75-1.75H28a1.75 1.75 0 00-1.75 1.75zm3.5-8.7h6.954v6.954h-6.954zM61.994 40.524a1.75 1.75 0 00-1.75-1.75H49.79a1.75 1.75 0 00-1.75 1.75v10.455a1.75 1.75 0 001.75 1.75h10.454a1.75 1.75 0 001.75-1.75zm-3.5 8.7H51.54v-6.95h6.954zM26.251 70.145A1.75 1.75 0 0028 71.9h10.455a1.75 1.75 0 001.75-1.75V59.691a1.75 1.75 0 00-1.75-1.75H28a1.75 1.75 0 00-1.75 1.75zm3.5-8.7h6.954V68.4h-6.954zM60.244 71.9a1.75 1.75 0 001.75-1.75V59.691a1.75 1.75 0 00-1.75-1.75H49.79a1.75 1.75 0 00-1.75 1.75v10.454a1.75 1.75 0 003.5 0v-8.7h6.954v8.7a1.75 1.75 0 001.75 1.755z"/><path d="M108.423 96h-8.128v-6.875a1.75 1.75 0 00-1.75-1.75h-8.128V80.5a1.75 1.75 0 00-1.75-1.75H70.661V13a1.75 1.75 0 00-1.75-1.75H19.577a1.75 1.75 0 00-1.75 1.75v94.738a1.75 1.75 0 003.5 0V14.75h45.834v98.5h-32V85.079h18.166v22.754a1.75 1.75 0 003.5 0v-24.5a1.75 1.75 0 00-1.75-1.75H33.411a1.75 1.75 0 00-1.75 1.75v29.917H13a1.75 1.75 0 000 3.5h95a1.75 1.75 0 000-3.5H80.539v-5.125h16.256v1.563a1.75 1.75 0 003.5 0v-1.562h8.128a1.75 1.75 0 001.75-1.75V97.75a1.75 1.75 0 00-1.75-1.75zM86.917 82.25v5.125H70.661V82.25zM77.039 96h-6.378v-5.125h6.378zm0 17.25h-6.378v-5.125h6.378zm-6.378-8.625V99.5h8.128a1.75 1.75 0 001.75-1.75v-6.875h16.256V96H85.417a1.75 1.75 0 000 3.5h1.5v5.125zm36.012 0H90.417V99.5h16.256zM115 113.25h-1a1.75 1.75 0 000 3.5h1a1.75 1.75 0 000-3.5z"/></g></svg>