<svg xmlns="http://www.w3.org/2000/svg" viewBox="0 0 72 129.95"><defs><style>.cls-1{fill:#22a7f0;}.cls-1,.cls-3{opacity:0.66;}.cls-2{fill:#e6e6e6;}.cls-3{fill:#3234ff;stroke:#3234ff;stroke-miterlimit:10;}.cls-4{fill:#cf000f;}.cls-5{fill:#e67e22;}.cls-6{fill:#26a65b;}.cls-7{fill:#db3e3e;opacity:0.75;}</style></defs><title>web</title><g id="page"><rect id="img" class="cls-1" x="3" y="53.95" width="26" height="14"/><rect id="_Path_" data-name="&lt;Path&gt;" class="cls-2" x="33" y="54.87" width="37" height="3.5"/><rect id="_Path_2" data-name="&lt;Path&gt;" class="cls-2" x="33" y="62.99" width="37" height="4.25"/><rect class="cls-3" x="9.5" y="86.45" width="13" height="13"/><rect class="cls-3" x="27.5" y="86.45" width="13" height="13"/><rect class="cls-3" x="45.5" y="86.45" width="13" height="13"/></g><g id="bar"><path id="header" class="cls-2" d="M166,108H104c-2.2,0-4,1.38-4,3.08V118h70v-6.92C170,109.38,168.2,108,166,108Z" transform="translate(-100 -70.05)"/><rect class="cls-2" x="3" y="74.95" width="56" height="4"/><rect class="cls-2" x="4" y="106.95" width="57" height="5"/><path id="header-2" data-name="header" class="cls-2" d="M172,197.85V193H102v4.85c0,1.18,1.8,2.15,4,2.15h62C170.2,200,172,199,172,197.85Z" transform="translate(-100 -70.05)"/></g><g id="buttons"><circle id="red" class="cls-4" cx="5" cy="43.75" r="2"/><circle id="orange" class="cls-5" cx="11" cy="43.75" r="2"/><circle id="green" class="cls-6" cx="17" cy="43.75" r="2"/></g><g id="hearts"><path class="cls-7" d="M136.35,80.53a2.57,2.57,0,0,1,3.94-.82c1,.88.95,2.63-.06,4.36a11,11,0,0,1-4,3.43A11,11,0,0,1,132.38,84c-1-1.76-.93-3.5.06-4.36A2.57,2.57,0,0,1,136.35,80.53Z" transform="translate(-100 -70.05)"/><path class="cls-7" d="M163.35,71.53a2.57,2.57,0,0,1,3.94-.82c1,.88.95,2.63-.06,4.36a11,11,0,0,1-4,3.43A11,11,0,0,1,159.38,75c-1-1.76-.93-3.5.06-4.36A2.57,2.57,0,0,1,163.35,71.53Z" transform="translate(-100 -70.05)"/><path class="cls-7" d="M105.35,88.53a2.57,2.57,0,0,1,3.94-.82c1,.88.95,2.63-.06,4.36a11,11,0,0,1-4,3.43A11,11,0,0,1,101.38,92c-1-1.76-.93-3.5.06-4.36A2.57,2.57,0,0,1,105.35,88.53Z" transform="translate(-100 -70.05)"/></g></svg>